font.ufo
<glyph name="exclam" format="1">
  <advance width="402"/>
  <unicode hex="0021"/>
  <outline>
    <contour>
      <point x="251" y="79" type="curve" smooth="yes"/>
      <point x="251" y="115"/>
      <point x="226" y="142"/>
      <point x="188" y="142" type="curve" smooth="yes"/>
      <point x="143" y="142"/>
      <point x="99" y="100"/>
      <point x="99" y="53" type="curve" smooth="yes"/>
      <point x="99" y="17"/>
      <point x="124" y="-11"/>
      <point x="163" y="-11" type="curve" smooth="yes"/>
      <point x="209" y="-11"/>
      <point x="251" y="32"/>
    </contour>
    <contour>
      <point x="212" y="342" type="curve"/>
      <point x="248" y="639" type="line" smooth="yes"/>
      <point x="262" y="725"/>
      <point x="220" y="776"/>
      <point x="168" y="776" type="curve" smooth="yes"/>
      <point x="116" y="776"/>
      <point x="78" y="725"/>
      <point x="88" y="639" type="curve"/>
      <point x="118" y="290" type="line" smooth="yes"/>
      <point x="125" y="237"/>
      <point x="142" y="208"/>
      <point x="177" y="208" type="curve" smooth="yes"/>
      <point x="192" y="208"/>
      <point x="201" y="214"/>
      <point x="211" y="223" type="curve"/>
      <point x="204" y="255"/>
      <point x="205" y="294"/>
    </contour>
  </outline>
</glyph>
<glyph name="quotedbl" format="1">
  <advance width="439"/>
  <unicode hex="0022"/>
  <outline>
    <contour>
      <point x="187" y="821" type="curve" smooth="yes"/>
      <point x="187" y="881"/>
      <point x="168" y="920"/>
      <point x="123" y="920" type="curve" smooth="yes"/>
      <point x="82" y="920"/>
      <point x="60" y="881"/>
      <point x="60" y="822" type="curve" smooth="yes"/>
      <point x="60" y="729"/>
      <point x="96" y="594"/>
      <point x="124" y="594" type="curve" smooth="yes"/>
      <point x="153" y="594"/>
      <point x="187" y="729"/>
    </contour>
    <contour>
      <point x="379" y="821" type="curve" smooth="yes"/>
      <point x="379" y="881"/>
      <point x="360" y="920"/>
      <point x="315" y="920" type="curve" smooth="yes"/>
      <point x="274" y="920"/>
      <point x="252" y="881"/>
      <point x="252" y="822" type="curve" smooth="yes"/>
      <point x="252" y="729"/>
      <point x="289" y="594"/>
      <point x="316" y="594" type="curve" smooth="yes"/>
      <point x="346" y="594"/>
      <point x="379" y="729"/>
    </contour>
  </outline>
</glyph>
<glyph name="numbersign" format="1">
  <advance width="856"/>
  <unicode hex="0023"/>
  <outline>
    <contour>
      <point x="409" y="738" type="curve" smooth="yes"/>
      <point x="353" y="738"/>
      <point x="325" y="706"/>
      <point x="305" y="639" type="curve" smooth="yes"/>
      <point x="137" y="87" type="line" smooth="yes"/>
      <point x="128" y="57"/>
      <point x="114" y="39"/>
      <point x="90" y="29" type="curve"/>
      <point x="102" y="6"/>
      <point x="112" y="-10"/>
      <point x="146" y="-10" type="curve" smooth="yes"/>
      <point x="202" y="-10"/>
      <point x="238" y="23"/>
      <point x="258" y="90" type="curve" smooth="yes"/>
      <point x="425" y="642" type="line" smooth="yes"/>
      <point x="435" y="671"/>
      <point x="450" y="690"/>
      <point x="474" y="699" type="curve"/>
      <point x="463" y="722"/>
      <point x="442" y="738"/>
    </contour>
    <contour>
      <point x="697" y="738" type="curve" smooth="yes"/>
      <point x="641" y="738"/>
      <point x="614" y="706"/>
      <point x="592" y="639" type="curve" smooth="yes"/>
      <point x="426" y="87" type="line" smooth="yes"/>
      <point x="415" y="57"/>
      <point x="401" y="39"/>
      <point x="378" y="29" type="curve"/>
      <point x="390" y="6"/>
      <point x="400" y="-10"/>
      <point x="434" y="-10" type="curve" smooth="yes"/>
      <point x="490" y="-10"/>
      <point x="526" y="23"/>
      <point x="546" y="90" type="curve" smooth="yes"/>
      <point x="713" y="642" type="line" smooth="yes"/>
      <point x="723" y="671"/>
      <point x="738" y="690"/>
      <point x="762" y="699" type="curve"/>
      <point x="751" y="722"/>
      <point x="730" y="738"/>
    </contour>
    <contour>
      <point x="709" y="234" type="curve" smooth="yes"/>
      <point x="709" y="245"/>
      <point x="706" y="255"/>
      <point x="702" y="264" type="curve"/>
      <point x="174" y="264" type="line" smooth="yes"/>
      <point x="97" y="264"/>
      <point x="61" y="240"/>
      <point x="61" y="208" type="curve" smooth="yes"/>
      <point x="61" y="197"/>
      <point x="64" y="187"/>
      <point x="69" y="177" type="curve"/>
      <point x="596" y="177" type="line" smooth="yes"/>
      <point x="674" y="177"/>
      <point x="709" y="202"/>
    </contour>
    <contour>
      <point x="796" y="521" type="curve" smooth="yes"/>
      <point x="796" y="532"/>
      <point x="793" y="541"/>
      <point x="788" y="551" type="curve"/>
      <point x="261" y="551" type="line" smooth="yes"/>
      <point x="183" y="551"/>
      <point x="148" y="527"/>
      <point x="148" y="493" type="curve" smooth="yes"/>
      <point x="148" y="483"/>
      <point x="151" y="473"/>
      <point x="155" y="463" type="curve"/>
      <point x="682" y="463" type="line" smooth="yes"/>
      <point x="761" y="463"/>
      <point x="796" y="488"/>
    </contour>
  </outline>
</glyph>
<glyph name="dollar" format="1">
  <advance width="669"/>
  <unicode hex="0024"/>
  <outline>
    <contour>
      <point x="294" y="702" type="line"/>
      <point x="294" y="783" type="line" smooth="yes"/>
      <point x="294" y="813"/>
      <point x="283" y="831"/>
      <point x="263" y="841" type="curve"/>
      <point x="281" y="863"/>
      <point x="306" y="880"/>
      <point x="340" y="880" type="curve" smooth="yes"/>
      <point x="396" y="880"/>
      <point x="423" y="848"/>
      <point x="423" y="780" type="curve" smooth="yes"/>
      <point x="423" y="702" type="line"/>
    </contour>
    <contour>
      <point x="392" y="45" type="line"/>
      <point x="392" y="-53" type="line" smooth="yes"/>
      <point x="392" y="-83"/>
      <point x="400" y="-101"/>
      <point x="421" y="-111" type="curve"/>
      <point x="404" y="-134"/>
      <point x="379" y="-150"/>
      <point x="344" y="-150" type="curve" smooth="yes"/>
      <point x="288" y="-150"/>
      <point x="263" y="-117"/>
      <point x="263" y="-50" type="curve" smooth="yes"/>
      <point x="263" y="45" type="line"/>
    </contour>
    <component base="S"/>
  </outline>
</glyph>
<glyph name="percent" format="1">
  <advance width="910"/>
  <unicode hex="0025"/>
  <outline>
    <contour>
      <point x="218" y="329" type="curve" smooth="yes"/>
      <point x="329" y="329"/>
      <point x="402" y="437"/>
      <point x="402" y="549" type="curve" smooth="yes"/>
      <point x="402" y="647"/>
      <point x="345" y="738"/>
      <point x="246" y="738" type="curve" smooth="yes"/>
      <point x="134" y="738"/>
      <point x="68" y="626"/>
      <point x="68" y="519" type="curve" smooth="yes"/>
      <point x="68" y="418"/>
      <point x="122" y="329"/>
    </contour>
    <contour>
      <point x="234" y="653" type="curve" smooth="yes"/>
      <point x="273" y="653"/>
      <point x="296" y="591"/>
      <point x="296" y="530" type="curve" smooth="yes"/>
      <point x="296" y="457"/>
      <point x="267" y="413"/>
      <point x="232" y="413" type="curve" smooth="yes"/>
      <point x="193" y="413"/>
      <point x="169" y="474"/>
      <point x="169" y="535" type="curve" smooth="yes"/>
      <point x="169" y="604"/>
      <point x="195" y="653"/>
    </contour>
    <contour>
      <point x="199" y="71" type="line"/>
      <point x="187" y="53"/>
      <point x="165" y="28"/>
      <point x="154" y="22" type="curve"/>
      <point x="171" y="-9"/>
      <point x="193" y="-11"/>
      <point x="205" y="-11" type="curve" smooth="yes"/>
      <point x="239" y="-11"/>
      <point x="262" y="23"/>
      <point x="276" y="43" type="curve" smooth="yes"/>
      <point x="713" y="658" type="line" smooth="yes"/>
      <point x="726" y="676"/>
      <point x="742" y="701"/>
      <point x="758" y="707" type="curve"/>
      <point x="742" y="733"/>
      <point x="719" y="738"/>
      <point x="706" y="738" type="curve" smooth="yes"/>
      <point x="672" y="738"/>
      <point x="646" y="703"/>
      <point x="634" y="687" type="curve" smooth="yes"/>
    </contour>
    <contour>
      <point x="658" y="-10" type="curve" smooth="yes"/>
      <point x="769" y="-10"/>
      <point x="842" y="99"/>
      <point x="842" y="211" type="curve" smooth="yes"/>
      <point x="842" y="308"/>
      <point x="785" y="400"/>
      <point x="686" y="400" type="curve" smooth="yes"/>
      <point x="574" y="400"/>
      <point x="508" y="287"/>
      <point x="508" y="180" type="curve" smooth="yes"/>
      <point x="508" y="79"/>
      <point x="562" y="-10"/>
    </contour>
    <contour>
      <point x="674" y="313" type="curve" smooth="yes"/>
      <point x="713" y="313"/>
      <point x="736" y="252"/>
      <point x="736" y="191" type="curve" smooth="yes"/>
      <point x="736" y="118"/>
      <point x="707" y="75"/>
      <point x="672" y="75" type="curve" smooth="yes"/>
      <point x="633" y="75"/>
      <point x="609" y="135"/>
      <point x="609" y="197" type="curve" smooth="yes"/>
      <point x="609" y="265"/>
      <point x="635" y="313"/>
    </contour>
  </outline>
</glyph>
<glyph name="ampersand" format="1">
  <advance width="760"/>
  <unicode hex="0026"/>
  <outline>
    <contour>
      <point x="327" y="463" type="curve"/>
      <point x="242" y="463"/>
      <point x="188" y="508"/>
      <point x="188" y="578" type="curve" smooth="yes"/>
      <point x="188" y="631"/>
      <point x="221" y="666"/>
      <point x="263" y="666" type="curve" smooth="yes"/>
      <point x="307" y="666"/>
      <point x="333" y="639"/>
      <point x="335" y="571" type="curve"/>
      <point x="401" y="551"/>
      <point x="453" y="587"/>
      <point x="453" y="637" type="curve" smooth="yes"/>
      <point x="453" y="693"/>
      <point x="384" y="739"/>
      <point x="296" y="739" type="curve" smooth="yes"/>
      <point x="193" y="739"/>
      <point x="86" y="652"/>
      <point x="86" y="525" type="curve" smooth="yes"/>
      <point x="86" y="431"/>
      <point x="142" y="358"/>
      <point x="250" y="358" type="curve" smooth="yes"/>
      <point x="338" y="358"/>
      <point x="356" y="427"/>
    </contour>
    <contour>
      <point x="207" y="389" type="line"/>
      <point x="131" y="354"/>
      <point x="65" y="297"/>
      <point x="65" y="203" type="curve" smooth="yes"/>
      <point x="65" y="77"/>
      <point x="177" y="-10"/>
      <point x="342" y="-10" type="curve" smooth="yes"/>
      <point x="506" y="-10"/>
      <point x="627" y="105"/>
      <point x="627" y="248" type="curve" smooth="yes"/>
      <point x="627" y="300"/>
      <point x="613" y="337"/>
      <point x="588" y="378" type="curve"/>
      <point x="534" y="357" type="line"/>
      <point x="604" y="357" type="line" smooth="yes"/>
      <point x="716" y="357"/>
      <point x="767" y="401"/>
      <point x="767" y="468" type="curve" smooth="yes"/>
      <point x="767" y="529"/>
      <point x="708" y="580"/>
      <point x="624" y="541" type="curve"/>
      <point x="636" y="476"/>
      <point x="620" y="431"/>
      <point x="511" y="431" type="curve" smooth="yes"/>
      <point x="438" y="431"/>
      <point x="432" y="386"/>
      <point x="452" y="349" type="curve"/>
      <point x="517" y="349"/>
      <point x="550" y="311"/>
      <point x="550" y="248" type="curve" smooth="yes"/>
      <point x="550" y="162"/>
      <point x="463" y="107"/>
      <point x="365" y="107" type="curve" smooth="yes"/>
      <point x="259" y="107"/>
      <point x="182" y="160"/>
      <point x="182" y="246" type="curve" smooth="yes"/>
      <point x="182" y="300"/>
      <point x="209" y="345"/>
      <point x="263" y="375" type="curve"/>
    </contour>
  </outline>
</glyph>
<glyph name="quotesingle" format="1">
  <advance width="247"/>
  <unicode hex="0027"/>
  <outline>
    <contour>
      <point x="188" y="805" type="curve" smooth="yes"/>
      <point x="188" y="864"/>
      <point x="168" y="904"/>
      <point x="123" y="904" type="curve" smooth="yes"/>
      <point x="82" y="904"/>
      <point x="59" y="864"/>
      <point x="59" y="805" type="curve" smooth="yes"/>
      <point x="59" y="719"/>
      <point x="96" y="594"/>
      <point x="124" y="594" type="curve" smooth="yes"/>
      <point x="153" y="594"/>
      <point x="188" y="718"/>
    </contour>
  </outline>
</glyph>
<glyph name="parenleft" format="1">
  <advance width="500"/>
  <unicode hex="0028"/>
  <outline>
    <contour>
      <point x="467" y="892" type="curve"/>
      <point x="459" y="909"/>
      <point x="437" y="916"/>
      <point x="417" y="916" type="curve" smooth="yes"/>
      <point x="322" y="916"/>
      <point x="102" y="642"/>
      <point x="102" y="312" type="curve" smooth="yes"/>
      <point x="102" y="-22"/>
      <point x="323" y="-291"/>
      <point x="417" y="-291" type="curve" smooth="yes"/>
      <point x="438" y="-291"/>
      <point x="459" y="-283"/>
      <point x="467" y="-266" type="curve"/>
      <point x="362" y="-153"/>
      <point x="238" y="24"/>
      <point x="238" y="313" type="curve" smooth="yes"/>
      <point x="238" y="602"/>
      <point x="362" y="779"/>
    </contour>
  </outline>
</glyph>
<glyph name="parenright" format="1">
  <advance width="500"/>
  <unicode hex="0029"/>
  <outline>
    <contour>
      <point x="414" y="312" type="curve" smooth="yes"/>
      <point x="414" y="-22"/>
      <point x="193" y="-291"/>
      <point x="100" y="-291" type="curve" smooth="yes"/>
      <point x="78" y="-291"/>
      <point x="57" y="-283"/>
      <point x="49" y="-266" type="curve"/>
      <point x="153" y="-153"/>
      <point x="279" y="24"/>
      <point x="279" y="313" type="curve" smooth="yes"/>
      <point x="279" y="602"/>
      <point x="153" y="779"/>
      <point x="49" y="892" type="curve"/>
      <point x="57" y="909"/>
      <point x="78" y="916"/>
      <point x="100" y="916" type="curve" smooth="yes"/>
      <point x="194" y="916"/>
      <point x="414" y="642"/>
    </contour>
  </outline>
</glyph>
<glyph name="asterisk" format="1">
  <advance width="614"/>
  <unicode hex="002A"/>
  <outline>
    <contour>
      <point x="371" y="862" type="curve" smooth="yes"/>
      <point x="371" y="905"/>
      <point x="350" y="938"/>
      <point x="305" y="938" type="curve" smooth="yes"/>
      <point x="265" y="938"/>
      <point x="244" y="905"/>
      <point x="244" y="864" type="curve" smooth="yes"/>
      <point x="244" y="829"/>
      <point x="260" y="784"/>
      <point x="275" y="751" type="curve"/>
      <point x="241" y="783"/>
      <point x="186" y="821"/>
      <point x="148" y="821" type="curve" smooth="yes"/>
      <point x="119" y="821"/>
      <point x="84" y="801"/>
      <point x="84" y="757" type="curve" smooth="yes"/>
      <point x="84" y="712"/>
      <point x="144" y="686"/>
      <point x="203" y="685" type="curve"/>
      <point x="221" y="685"/>
      <point x="239" y="687"/>
      <point x="255" y="690" type="curve"/>
      <point x="207" y="664"/>
      <point x="145" y="616"/>
      <point x="145" y="569" type="curve" smooth="yes"/>
      <point x="145" y="543"/>
      <point x="171" y="506"/>
      <point x="207" y="506" type="curve" smooth="yes"/>
      <point x="267" y="506"/>
      <point x="296" y="594"/>
      <point x="306" y="656" type="curve"/>
      <point x="316" y="593"/>
      <point x="346" y="507"/>
      <point x="404" y="507" type="curve" smooth="yes"/>
      <point x="436" y="507"/>
      <point x="469" y="537"/>
      <point x="469" y="567" type="curve" smooth="yes"/>
      <point x="469" y="615"/>
      <point x="407" y="664"/>
      <point x="358" y="690" type="curve"/>
      <point x="374" y="686"/>
      <point x="394" y="683"/>
      <point x="411" y="683" type="curve"/>
      <point x="469" y="684"/>
      <point x="530" y="710"/>
      <point x="530" y="756" type="curve" smooth="yes"/>
      <point x="530" y="799"/>
      <point x="500" y="821"/>
      <point x="468" y="821" type="curve" smooth="yes"/>
      <point x="425" y="821"/>
      <point x="370" y="778"/>
      <point x="336" y="747" type="curve"/>
      <point x="352" y="779"/>
      <point x="371" y="826"/>
    </contour>
  </outline>
</glyph>
<glyph name="plus" format="1">
  <advance width="709"/>
  <unicode hex="002B"/>
  <outline>
    <contour>
      <point x="408" y="696" type="curve"/>
      <point x="404" y="462" type="line"/>
      <point x="644" y="465" type="line"/>
      <point x="646" y="460"/>
      <point x="649" y="447"/>
      <point x="649" y="440" type="curve" smooth="yes"/>
      <point x="649" y="363"/>
      <point x="577" y="357"/>
      <point x="539" y="357" type="curve" smooth="yes"/>
      <point x="518" y="357"/>
      <point x="496" y="358"/>
      <point x="404" y="361" type="curve"/>
      <point x="407" y="283"/>
      <point x="407" y="247"/>
      <point x="408" y="225" type="curve"/>
      <point x="408" y="178"/>
      <point x="394" y="115"/>
      <point x="325" y="115" type="curve" smooth="yes"/>
      <point x="317" y="115"/>
      <point x="305" y="117"/>
      <point x="301" y="120" type="curve"/>
      <point x="305" y="361" type="line"/>
      <point x="65" y="357" type="line"/>
      <point x="62" y="363"/>
      <point x="59" y="376"/>
      <point x="59" y="387" type="curve" smooth="yes"/>
      <point x="59" y="460"/>
      <point x="129" y="465"/>
      <point x="167" y="465" type="curve" smooth="yes"/>
      <point x="188" y="465"/>
      <point x="211" y="465"/>
      <point x="303" y="462" type="curve"/>
      <point x="300" y="538"/>
      <point x="299" y="575"/>
      <point x="298" y="597" type="curve" smooth="yes"/>
      <point x="298" y="635"/>
      <point x="306" y="702"/>
      <point x="378" y="702" type="curve" smooth="yes"/>
      <point x="389" y="702"/>
      <point x="401" y="698"/>
    </contour>
  </outline>
</glyph>
<glyph name="comma" format="1">
  <advance width="323"/>
  <unicode hex="002C"/>
  <outline>
    <contour>
      <point x="148" y="-45" type="curve" smooth="yes"/>
      <point x="148" y="-97"/>
      <point x="126" y="-143"/>
      <point x="81" y="-177" type="curve"/>
      <point x="86" y="-197"/>
      <point x="100" y="-205"/>
      <point x="115" y="-205" type="curve" smooth="yes"/>
      <point x="178" y="-205"/>
      <point x="265" y="-108"/>
      <point x="265" y="9" type="curve" smooth="yes"/>
      <point x="265" y="88"/>
      <point x="223" y="143"/>
      <point x="166" y="143" type="curve" smooth="yes"/>
      <point x="121" y="143"/>
      <point x="89" y="108"/>
      <point x="79" y="71" type="curve"/>
      <point x="125" y="48"/>
      <point x="148" y="6"/>
    </contour>
  </outline>
</glyph>
<glyph name="hyphen" format="1">
  <advance width="556"/>
  <unicode hex="002D"/>
  <outline>
    <contour>
      <point x="496" y="321" type="curve" smooth="yes"/>
      <point x="496" y="329"/>
      <point x="494" y="341"/>
      <point x="491" y="347" type="curve"/>
      <point x="179" y="347" type="line" smooth="yes"/>
      <point x="144" y="347"/>
      <point x="60" y="347"/>
      <point x="60" y="267" type="curve" smooth="yes"/>
      <point x="60" y="256"/>
      <point x="64" y="243"/>
      <point x="67" y="237" type="curve"/>
      <point x="377" y="237" type="line" smooth="yes"/>
      <point x="412" y="237"/>
      <point x="496" y="237"/>
    </contour>
  </outline>
</glyph>
<glyph name="period" format="1">
  <advance width="381"/>
  <unicode hex="002E"/>
  <outline>
    <contour>
      <point x="275" y="90" type="curve" smooth="yes"/>
      <point x="275" y="129"/>
      <point x="247" y="160"/>
      <point x="205" y="160" type="curve" smooth="yes"/>
      <point x="155" y="160"/>
      <point x="107" y="114"/>
      <point x="107" y="62" type="curve" smooth="yes"/>
      <point x="107" y="23"/>
      <point x="135" y="-8"/>
      <point x="177" y="-8" type="curve" smooth="yes"/>
      <point x="228" y="-8"/>
      <point x="275" y="39"/>
    </contour>
  </outline>
</glyph>
<glyph name="slash" format="1">
  <advance width="520"/>
  <unicode hex="002F"/>
  <outline>
    <contour>
      <point x="537" y="997" type="curve"/>
      <point x="523" y="987"/>
      <point x="511" y="956"/>
      <point x="504" y="935" type="curve" smooth="yes"/>
      <point x="156" y="-66" type="line" smooth="yes"/>
      <point x="148" y="-90"/>
      <point x="128" y="-144"/>
      <point x="79" y="-144" type="curve" smooth="yes"/>
      <point x="68" y="-144"/>
      <point x="50" y="-142"/>
      <point x="30" y="-125" type="curve"/>
      <point x="40" y="-116"/>
      <point x="55" y="-84"/>
      <point x="63" y="-61" type="curve" smooth="yes"/>
      <point x="411" y="938" type="line" smooth="yes"/>
      <point x="418" y="961"/>
      <point x="438" y="1015"/>
      <point x="485" y="1015" type="curve" smooth="yes"/>
      <point x="500" y="1015"/>
      <point x="520" y="1011"/>
    </contour>
  </outline>
</glyph>
<glyph name="zero" format="1">
  <advance width="675"/>
  <unicode hex="0030"/>
  <outline>
    <contour>
      <point x="52" y="365" type="curve" smooth="yes"/>
      <point x="52" y="154"/>
      <point x="151" y="-10"/>
      <point x="337" y="-10" type="curve" smooth="yes"/>
      <point x="523" y="-10"/>
      <point x="623" y="154"/>
      <point x="623" y="365" type="curve" smooth="yes"/>
      <point x="623" y="579"/>
      <point x="523" y="738"/>
      <point x="337" y="738" type="curve" smooth="yes"/>
      <point x="151" y="738"/>
      <point x="52" y="579"/>
    </contour>
    <contour>
      <point x="324" y="651" type="curve" smooth="yes"/>
      <point x="425" y="651"/>
      <point x="482" y="535"/>
      <point x="489" y="370" type="curve" smooth="yes"/>
      <point x="497" y="206"/>
      <point x="452" y="78"/>
      <point x="350" y="78" type="curve" smooth="yes"/>
      <point x="250" y="78"/>
      <point x="194" y="195"/>
      <point x="186" y="358" type="curve" smooth="yes"/>
      <point x="178" y="523"/>
      <point x="223" y="651"/>
    </contour>
  </outline>
</glyph>
<glyph name="one" format="1">
  <advance width="378"/>
  <unicode hex="0031"/>
  <outline>
    <contour>
      <point x="268" y="87" type="curve"/>
      <point x="268" y="637" type="line" smooth="yes"/>
      <point x="268" y="698"/>
      <point x="235" y="738"/>
      <point x="173" y="738" type="curve" smooth="yes"/>
      <point x="91" y="738"/>
      <point x="27" y="683"/>
      <point x="27" y="643" type="curve" smooth="yes"/>
      <point x="27" y="630"/>
      <point x="34" y="619"/>
      <point x="46" y="614" type="curve"/>
      <point x="66" y="628"/>
      <point x="88" y="637"/>
      <point x="109" y="637" type="curve" smooth="yes"/>
      <point x="129" y="637"/>
      <point x="139" y="625"/>
      <point x="139" y="604" type="curve" smooth="yes"/>
      <point x="139" y="90" type="line" smooth="yes"/>
      <point x="139" y="23"/>
      <point x="164" y="-10"/>
      <point x="221" y="-10" type="curve" smooth="yes"/>
      <point x="255" y="-10"/>
      <point x="280" y="6"/>
      <point x="298" y="29" type="curve"/>
      <point x="277" y="39"/>
      <point x="268" y="57"/>
    </contour>
  </outline>
</glyph>
<glyph name="two" format="1">
  <advance width="581"/>
  <unicode hex="0032"/>
  <outline>
    <contour>
      <point x="516" y="519" type="curve" smooth="yes"/>
      <point x="516" y="642"/>
      <point x="426" y="738"/>
      <point x="279" y="738" type="curve" smooth="yes"/>
      <point x="156" y="738"/>
      <point x="43" y="665"/>
      <point x="43" y="566" type="curve" smooth="yes"/>
      <point x="43" y="504"/>
      <point x="93" y="470"/>
      <point x="143" y="470" type="curve" smooth="yes"/>
      <point x="189" y="470"/>
      <point x="216" y="489"/>
      <point x="232" y="515" type="curve"/>
      <point x="203" y="527"/>
      <point x="185" y="551"/>
      <point x="185" y="580" type="curve" smooth="yes"/>
      <point x="185" y="621"/>
      <point x="219" y="657"/>
      <point x="270" y="657" type="curve" smooth="yes"/>
      <point x="330" y="657"/>
      <point x="375" y="612"/>
      <point x="375" y="521" type="curve" smooth="yes"/>
      <point x="375" y="365"/>
      <point x="213" y="230"/>
      <point x="39" y="105" type="curve"/>
      <point x="23" y="41"/>
      <point x="59" y="0"/>
      <point x="125" y="0" type="curve" smooth="yes"/>
      <point x="409" y="0" type="line" smooth="yes"/>
      <point x="512" y="0"/>
      <point x="550" y="38"/>
      <point x="550" y="87" type="curve" smooth="yes"/>
      <point x="550" y="109"/>
      <point x="539" y="133"/>
      <point x="525" y="148" type="curve"/>
      <point x="500" y="129"/>
      <point x="464" y="120"/>
      <point x="406" y="117" type="curve" smooth="yes"/>
      <point x="95" y="100" type="line"/>
      <point x="114" y="77" type="line"/>
      <point x="378" y="209"/>
      <point x="516" y="369"/>
    </contour>
  </outline>
</glyph>
<glyph name="three" format="1">
  <advance width="569"/>
  <unicode hex="0033"/>
  <outline>
    <contour>
      <point x="486" y="582" type="curve" smooth="yes"/>
      <point x="486" y="677"/>
      <point x="406" y="738"/>
      <point x="289" y="738" type="curve" smooth="yes"/>
      <point x="187" y="738"/>
      <point x="89" y="677"/>
      <point x="89" y="628" type="curve" smooth="yes"/>
      <point x="89" y="610"/>
      <point x="100" y="594"/>
      <point x="115" y="590" type="curve"/>
      <point x="147" y="615"/>
      <point x="200" y="642"/>
      <point x="258" y="642" type="curve" smooth="yes"/>
      <point x="315" y="642"/>
      <point x="361" y="612"/>
      <point x="361" y="561" type="curve" smooth="yes"/>
      <point x="361" y="450"/>
      <point x="155" y="430"/>
      <point x="155" y="364" type="curve" smooth="yes"/>
      <point x="155" y="354"/>
      <point x="159" y="343"/>
      <point x="168" y="336" type="curve"/>
      <point x="182" y="339"/>
      <point x="201" y="341"/>
      <point x="217" y="341" type="curve" smooth="yes"/>
      <point x="335" y="341"/>
      <point x="413" y="266"/>
      <point x="413" y="185" type="curve" smooth="yes"/>
      <point x="413" y="129"/>
      <point x="369" y="81"/>
      <point x="293" y="81" type="curve" smooth="yes"/>
      <point x="221" y="81"/>
      <point x="145" y="127"/>
      <point x="114" y="216" type="curve"/>
      <point x="93" y="214"/>
      <point x="40" y="193"/>
      <point x="40" y="133" type="curve" smooth="yes"/>
      <point x="40" y="40"/>
      <point x="155" y="-10"/>
      <point x="248" y="-10" type="curve" smooth="yes"/>
      <point x="385" y="-10"/>
      <point x="517" y="84"/>
      <point x="517" y="225" type="curve" smooth="yes"/>
      <point x="517" y="333"/>
      <point x="443" y="411"/>
      <point x="353" y="428" type="curve"/>
      <point x="427" y="451"/>
      <point x="486" y="510"/>
    </contour>
  </outline>
</glyph>
<glyph name="four" format="1">
  <advance width="629"/>
  <unicode hex="0034"/>
  <outline>
    <contour>
      <point x="485" y="640" type="curve" smooth="yes"/>
      <point x="485" y="87" type="line" smooth="yes"/>
      <point x="485" y="57"/>
      <point x="495" y="39"/>
      <point x="514" y="29" type="curve"/>
      <point x="497" y="6"/>
      <point x="472" y="-10"/>
      <point x="438" y="-10" type="curve" smooth="yes"/>
      <point x="382" y="-10"/>
      <point x="356" y="23"/>
      <point x="356" y="90" type="curve" smooth="yes"/>
      <point x="356" y="575" type="line" smooth="yes"/>
      <point x="356" y="584"/>
      <point x="354" y="593"/>
      <point x="344" y="593" type="curve" smooth="yes"/>
      <point x="306" y="593"/>
      <point x="150" y="368"/>
      <point x="150" y="289" type="curve" smooth="yes"/>
      <point x="150" y="271"/>
      <point x="160" y="266"/>
      <point x="184" y="266" type="curve" smooth="yes"/>
      <point x="521" y="266" type="line" smooth="yes"/>
      <point x="542" y="266"/>
      <point x="573" y="268"/>
      <point x="592" y="284" type="curve"/>
      <point x="599" y="276"/>
      <point x="607" y="260"/>
      <point x="607" y="242" type="curve" smooth="yes"/>
      <point x="607" y="201"/>
      <point x="568" y="173"/>
      <point x="509" y="173" type="curve" smooth="yes"/>
      <point x="130" y="173" type="line" smooth="yes"/>
      <point x="81" y="173"/>
      <point x="50" y="190"/>
      <point x="50" y="238" type="curve" smooth="yes"/>
      <point x="50" y="385"/>
      <point x="291" y="738"/>
      <point x="418" y="738" type="curve" smooth="yes"/>
      <point x="463" y="738"/>
      <point x="485" y="706"/>
    </contour>
  </outline>
</glyph>
<glyph name="five" format="1">
  <advance width="571"/>
  <unicode hex="0035"/>
  <outline>
    <contour>
      <point x="383" y="729" type="curve"/>
      <point x="269" y="729" type="line" smooth="yes"/>
      <point x="197" y="729"/>
      <point x="143" y="709"/>
      <point x="129" y="644" type="curve" smooth="yes"/>
      <point x="97" y="490"/>
      <point x="81" y="421"/>
      <point x="81" y="393" type="curve" smooth="yes"/>
      <point x="81" y="358"/>
      <point x="103" y="341"/>
      <point x="126" y="341" type="curve"/>
      <point x="151" y="351"/>
      <point x="190" y="361"/>
      <point x="234" y="361" type="curve" smooth="yes"/>
      <point x="328" y="361"/>
      <point x="421" y="308"/>
      <point x="421" y="208" type="curve" smooth="yes"/>
      <point x="421" y="141"/>
      <point x="372" y="95"/>
      <point x="297" y="95" type="curve" smooth="yes"/>
      <point x="232" y="95"/>
      <point x="168" y="134"/>
      <point x="140" y="212" type="curve"/>
      <point x="110" y="212"/>
      <point x="57" y="187"/>
      <point x="57" y="129" type="curve" smooth="yes"/>
      <point x="57" y="42"/>
      <point x="157" y="-10"/>
      <point x="255" y="-10" type="curve" smooth="yes"/>
      <point x="409" y="-10"/>
      <point x="521" y="115"/>
      <point x="521" y="247" type="curve" smooth="yes"/>
      <point x="521" y="380"/>
      <point x="421" y="469"/>
      <point x="305" y="469" type="curve" smooth="yes"/>
      <point x="228" y="469"/>
      <point x="172" y="439"/>
      <point x="131" y="414" type="curve"/>
      <point x="159" y="383" type="line"/>
      <point x="209" y="612" type="line"/>
      <point x="343" y="612" type="line" smooth="yes"/>
      <point x="427" y="612"/>
      <point x="479" y="637"/>
      <point x="479" y="698" type="curve" smooth="yes"/>
      <point x="479" y="717"/>
      <point x="470" y="738"/>
      <point x="460" y="749" type="curve"/>
      <point x="439" y="732"/>
      <point x="407" y="729"/>
    </contour>
  </outline>
</glyph>
<glyph name="six" format="1">
  <advance width="625"/>
  <unicode hex="0036"/>
  <outline>
    <contour>
      <point x="61" y="315" type="curve" smooth="yes"/>
      <point x="61" y="137"/>
      <point x="156" y="-10"/>
      <point x="330" y="-10" type="curve" smooth="yes"/>
      <point x="464" y="-10"/>
      <point x="574" y="82"/>
      <point x="574" y="235" type="curve" smooth="yes"/>
      <point x="574" y="335"/>
      <point x="499" y="448"/>
      <point x="367" y="448" type="curve" smooth="yes"/>
      <point x="310" y="448"/>
      <point x="263" y="412"/>
      <point x="262" y="357" type="curve"/>
      <point x="390" y="356"/>
      <point x="459" y="270"/>
      <point x="459" y="183" type="curve" smooth="yes"/>
      <point x="459" y="112"/>
      <point x="411" y="71"/>
      <point x="355" y="71" type="curve" smooth="yes"/>
      <point x="267" y="71"/>
      <point x="195" y="162"/>
      <point x="195" y="331" type="curve" smooth="yes"/>
      <point x="195" y="534"/>
      <point x="317" y="668"/>
      <point x="481" y="685" type="curve"/>
      <point x="482" y="687"/>
      <point x="482" y="691"/>
      <point x="482" y="694" type="curve" smooth="yes"/>
      <point x="482" y="725"/>
      <point x="449" y="738"/>
      <point x="421" y="738" type="curve" smooth="yes"/>
      <point x="216" y="738"/>
      <point x="61" y="531"/>
    </contour>
  </outline>
</glyph>
<glyph name="seven" format="1">
  <advance width="509"/>
  <unicode hex="0037"/>
  <outline>
    <contour>
      <point x="151" y="729" type="line"/>
      <point x="105" y="729"/>
      <point x="20" y="721"/>
      <point x="20" y="639" type="curve" smooth="yes"/>
      <point x="20" y="617"/>
      <point x="31" y="596"/>
      <point x="41" y="587" type="curve"/>
      <point x="61" y="605"/>
      <point x="91" y="611"/>
      <point x="118" y="611" type="curve" smooth="yes"/>
      <point x="300" y="611" type="line" smooth="yes"/>
      <point x="318" y="611"/>
      <point x="344" y="611"/>
      <point x="370" y="617" type="curve"/>
      <point x="288" y="475"/>
      <point x="116" y="253"/>
      <point x="116" y="111" type="curve" smooth="yes"/>
      <point x="116" y="41"/>
      <point x="156" y="-10"/>
      <point x="219" y="-10" type="curve" smooth="yes"/>
      <point x="281" y="-10"/>
      <point x="299" y="46"/>
      <point x="300" y="52" type="curve"/>
      <point x="267" y="65"/>
      <point x="248" y="93"/>
      <point x="248" y="140" type="curve" smooth="yes"/>
      <point x="248" y="360"/>
      <point x="479" y="604"/>
      <point x="479" y="691" type="curve" smooth="yes"/>
      <point x="479" y="713"/>
      <point x="474" y="724"/>
      <point x="470" y="729" type="curve"/>
    </contour>
  </outline>
</glyph>
<glyph name="eight" format="1">
  <advance width="623"/>
  <unicode hex="0038"/>
  <outline>
    <contour>
      <point x="178" y="221" type="curve" smooth="yes"/>
      <point x="178" y="271"/>
      <point x="198" y="313"/>
      <point x="227" y="345" type="curve"/>
      <point x="328" y="288"/>
      <point x="446" y="250"/>
      <point x="446" y="157" type="curve" smooth="yes"/>
      <point x="446" y="96"/>
      <point x="389" y="63"/>
      <point x="337" y="63" type="curve" smooth="yes"/>
      <point x="235" y="63"/>
      <point x="178" y="142"/>
    </contour>
    <contour>
      <point x="426" y="512" type="curve" smooth="yes"/>
      <point x="426" y="462"/>
      <point x="409" y="428"/>
      <point x="389" y="400" type="curve"/>
      <point x="292" y="452"/>
      <point x="189" y="490"/>
      <point x="189" y="575" type="curve" smooth="yes"/>
      <point x="189" y="635"/>
      <point x="238" y="669"/>
      <point x="288" y="669" type="curve" smooth="yes"/>
      <point x="371" y="669"/>
      <point x="426" y="591"/>
    </contour>
    <contour>
      <point x="544" y="537" type="curve" smooth="yes"/>
      <point x="544" y="667"/>
      <point x="412" y="738"/>
      <point x="307" y="738" type="curve" smooth="yes"/>
      <point x="167" y="738"/>
      <point x="78" y="643"/>
      <point x="78" y="543" type="curve" smooth="yes"/>
      <point x="78" y="468"/>
      <point x="118" y="420"/>
      <point x="170" y="381" type="curve"/>
      <point x="114" y="348"/>
      <point x="60" y="287"/>
      <point x="60" y="201" type="curve" smooth="yes"/>
      <point x="60" y="64"/>
      <point x="203" y="-10"/>
      <point x="324" y="-10" type="curve" smooth="yes"/>
      <point x="431" y="-10"/>
      <point x="563" y="61"/>
      <point x="563" y="191" type="curve" smooth="yes"/>
      <point x="563" y="273"/>
      <point x="511" y="325"/>
      <point x="446" y="368" type="curve"/>
      <point x="498" y="401"/>
      <point x="544" y="455"/>
    </contour>
  </outline>
</glyph>
<glyph name="nine" format="1">
  <advance width="608"/>
  <unicode hex="0039"/>
  <outline>
    <contour>
      <point x="555" y="412" type="curve" smooth="yes"/>
      <point x="555" y="592"/>
      <point x="457" y="738"/>
      <point x="282" y="738" type="curve" smooth="yes"/>
      <point x="149" y="738"/>
      <point x="42" y="647"/>
      <point x="42" y="497" type="curve" smooth="yes"/>
      <point x="42" y="399"/>
      <point x="118" y="281"/>
      <point x="254" y="281" type="curve" smooth="yes"/>
      <point x="311" y="281"/>
      <point x="357" y="316"/>
      <point x="358" y="372" type="curve"/>
      <point x="233" y="372"/>
      <point x="156" y="457"/>
      <point x="156" y="550" type="curve" smooth="yes"/>
      <point x="156" y="617"/>
      <point x="204" y="657"/>
      <point x="259" y="657" type="curve" smooth="yes"/>
      <point x="352" y="657"/>
      <point x="423" y="556"/>
      <point x="423" y="391" type="curve" smooth="yes"/>
      <point x="423" y="200"/>
      <point x="308" y="61"/>
      <point x="144" y="44" type="curve"/>
      <point x="143" y="41"/>
      <point x="143" y="38"/>
      <point x="143" y="34" type="curve" smooth="yes"/>
      <point x="143" y="4"/>
      <point x="175" y="-10"/>
      <point x="205" y="-10" type="curve" smooth="yes"/>
      <point x="409" y="-10"/>
      <point x="555" y="202"/>
    </contour>
  </outline>
</glyph>
<glyph name="colon" format="1">
  <advance width="367"/>
  <unicode hex="003A"/>
  <outline>
    <contour>
      <point x="269" y="463" type="curve" smooth="yes"/>
      <point x="269" y="504"/>
      <point x="241" y="534"/>
      <point x="199" y="534" type="curve" smooth="yes"/>
      <point x="149" y="534"/>
      <point x="101" y="487"/>
      <point x="101" y="436" type="curve" smooth="yes"/>
      <point x="101" y="397"/>
      <point x="130" y="366"/>
      <point x="172" y="366" type="curve" smooth="yes"/>
      <point x="223" y="366"/>
      <point x="269" y="412"/>
    </contour>
    <contour>
      <point x="269" y="92" type="curve" smooth="yes"/>
      <point x="269" y="132"/>
      <point x="241" y="162"/>
      <point x="199" y="162" type="curve" smooth="yes"/>
      <point x="149" y="162"/>
      <point x="101" y="115"/>
      <point x="101" y="65" type="curve" smooth="yes"/>
      <point x="101" y="25"/>
      <point x="130" y="-6"/>
      <point x="172" y="-6" type="curve" smooth="yes"/>
      <point x="223" y="-6"/>
      <point x="269" y="41"/>
    </contour>
  </outline>
</glyph>
<glyph name="semicolon" format="1">
  <advance width="367"/>
  <unicode hex="003B"/>
  <outline>
    <contour>
      <point x="269" y="463" type="curve" smooth="yes"/>
      <point x="269" y="504"/>
      <point x="241" y="534"/>
      <point x="199" y="534" type="curve" smooth="yes"/>
      <point x="149" y="534"/>
      <point x="101" y="487"/>
      <point x="101" y="436" type="curve" smooth="yes"/>
      <point x="101" y="397"/>
      <point x="130" y="366"/>
      <point x="172" y="366" type="curve" smooth="yes"/>
      <point x="223" y="366"/>
      <point x="269" y="412"/>
    </contour>
    <contour>
      <point x="159" y="-34" type="curve" smooth="yes"/>
      <point x="159" y="-87"/>
      <point x="137" y="-143"/>
      <point x="92" y="-177" type="curve"/>
      <point x="97" y="-197"/>
      <point x="111" y="-205"/>
      <point x="126" y="-205" type="curve" smooth="yes"/>
      <point x="197" y="-205"/>
      <point x="273" y="-71"/>
      <point x="273" y="32" type="curve" smooth="yes"/>
      <point x="273" y="96"/>
      <point x="244" y="159"/>
      <point x="177" y="159" type="curve" smooth="yes"/>
      <point x="132" y="159"/>
      <point x="100" y="124"/>
      <point x="90" y="86" type="curve"/>
      <point x="136" y="64"/>
      <point x="159" y="17"/>
    </contour>
  </outline>
</glyph>
<glyph name="less" format="1">
  <advance width="728"/>
  <unicode hex="003C"/>
  <outline>
    <contour>
      <point x="210" y="438" type="curve" smooth="yes"/>
      <point x="210" y="478"/>
      <point x="539" y="613"/>
      <point x="613" y="640" type="curve"/>
      <point x="613" y="679"/>
      <point x="577" y="692"/>
      <point x="555" y="692" type="curve" smooth="yes"/>
      <point x="487" y="692"/>
      <point x="56" y="500"/>
      <point x="56" y="409" type="curve" smooth="yes"/>
      <point x="56" y="324"/>
      <point x="445" y="143"/>
      <point x="527" y="143" type="curve" smooth="yes"/>
      <point x="580" y="143"/>
      <point x="615" y="181"/>
      <point x="615" y="244" type="curve"/>
      <point x="488" y="284"/>
      <point x="210" y="407"/>
    </contour>
  </outline>
</glyph>
<glyph name="equal" format="1">
  <advance width="800"/>
  <unicode hex="003D"/>
  <outline>
    <contour>
      <point x="219" y="487" type="line"/>
      <point x="185" y="487"/>
      <point x="101" y="487"/>
      <point x="101" y="406" type="curve" smooth="yes"/>
      <point x="101" y="396"/>
      <point x="105" y="384"/>
      <point x="107" y="377" type="curve"/>
      <point x="581" y="377" type="line" smooth="yes"/>
      <point x="615" y="377"/>
      <point x="699" y="377"/>
      <point x="699" y="462" type="curve" smooth="yes"/>
      <point x="699" y="469"/>
      <point x="698" y="481"/>
      <point x="695" y="487" type="curve"/>
    </contour>
    <contour>
      <point x="219" y="222" type="line"/>
      <point x="185" y="222"/>
      <point x="101" y="222"/>
      <point x="101" y="141" type="curve" smooth="yes"/>
      <point x="101" y="130"/>
      <point x="105" y="118"/>
      <point x="107" y="112" type="curve"/>
      <point x="581" y="112" type="line" smooth="yes"/>
      <point x="615" y="112"/>
      <point x="699" y="112"/>
      <point x="699" y="196" type="curve" smooth="yes"/>
      <point x="699" y="204"/>
      <point x="698" y="216"/>
      <point x="695" y="222" type="curve"/>
    </contour>
  </outline>
</glyph>
<glyph name="greater" format="1">
  <advance width="706"/>
  <unicode hex="003E"/>
  <outline>
    <contour>
      <point x="176" y="143" type="curve" smooth="yes"/>
      <point x="258" y="143"/>
      <point x="647" y="324"/>
      <point x="647" y="409" type="curve" smooth="yes"/>
      <point x="647" y="500"/>
      <point x="216" y="692"/>
      <point x="149" y="692" type="curve" smooth="yes"/>
      <point x="127" y="692"/>
      <point x="90" y="679"/>
      <point x="90" y="640" type="curve"/>
      <point x="164" y="613"/>
      <point x="494" y="478"/>
      <point x="494" y="438" type="curve" smooth="yes"/>
      <point x="494" y="407"/>
      <point x="216" y="284"/>
      <point x="89" y="244" type="curve"/>
      <point x="89" y="181"/>
      <point x="124" y="143"/>
    </contour>
  </outline>
</glyph>
<glyph name="question" format="1">
  <advance width="566"/>
  <unicode hex="003F"/>
  <outline>
    <contour>
      <point x="329" y="318" type="curve" smooth="yes"/>
      <point x="329" y="419"/>
      <point x="502" y="462"/>
      <point x="502" y="614" type="curve" smooth="yes"/>
      <point x="502" y="709"/>
      <point x="408" y="775"/>
      <point x="289" y="775" type="curve" smooth="yes"/>
      <point x="169" y="775"/>
      <point x="62" y="711"/>
      <point x="62" y="617" type="curve" smooth="yes"/>
      <point x="62" y="557"/>
      <point x="102" y="511"/>
      <point x="164" y="511" type="curve" smooth="yes"/>
      <point x="212" y="511"/>
      <point x="247" y="549"/>
      <point x="248" y="563" type="curve"/>
      <point x="216" y="575"/>
      <point x="191" y="605"/>
      <point x="191" y="640" type="curve" smooth="yes"/>
      <point x="191" y="683"/>
      <point x="223" y="708"/>
      <point x="270" y="708" type="curve" smooth="yes"/>
      <point x="333" y="708"/>
      <point x="370" y="663"/>
      <point x="370" y="610" type="curve" smooth="yes"/>
      <point x="370" y="467"/>
      <point x="215" y="428"/>
      <point x="215" y="306" type="curve" smooth="yes"/>
      <point x="215" y="244"/>
      <point x="260" y="207"/>
      <point x="312" y="207" type="curve" smooth="yes"/>
      <point x="348" y="207"/>
      <point x="378" y="230"/>
      <point x="381" y="263" type="curve"/>
      <point x="347" y="270"/>
      <point x="329" y="295"/>
    </contour>
    <contour>
      <point x="379" y="79" type="curve" smooth="yes"/>
      <point x="379" y="114"/>
      <point x="351" y="141"/>
      <point x="309" y="141" type="curve" smooth="yes"/>
      <point x="261" y="141"/>
      <point x="212" y="100"/>
      <point x="212" y="53" type="curve" smooth="yes"/>
      <point x="212" y="19"/>
      <point x="240" y="-10"/>
      <point x="282" y="-10" type="curve" smooth="yes"/>
      <point x="333" y="-10"/>
      <point x="379" y="32"/>
    </contour>
  </outline>
</glyph>
<glyph name="at" format="1">
  <advance width="925"/>
  <unicode hex="0040"/>
  <outline>
    <contour>
      <point x="535" y="282" type="line"/>
      <point x="420" y="277"/>
      <point x="377" y="241"/>
      <point x="375" y="200" type="curve" smooth="yes"/>
      <point x="372" y="166"/>
      <point x="396" y="152"/>
      <point x="432" y="152" type="curve" smooth="yes"/>
      <point x="470" y="152"/>
      <point x="505" y="173"/>
      <point x="534" y="210" type="curve"/>
      <point x="538" y="161" type="line"/>
      <point x="506" y="116"/>
      <point x="449" y="81"/>
      <point x="374" y="81" type="curve" smooth="yes"/>
      <point x="295" y="81"/>
      <point x="241" y="119"/>
      <point x="246" y="188" type="curve" smooth="yes"/>
      <point x="251" y="270"/>
      <point x="353" y="327"/>
      <point x="538" y="329" type="curve"/>
    </contour>
    <contour>
      <point x="649" y="384" type="curve" smooth="yes"/>
      <point x="638" y="184" type="line" smooth="yes"/>
      <point x="636" y="157"/>
      <point x="646" y="144"/>
      <point x="668" y="144" type="curve" smooth="yes"/>
      <point x="721" y="144"/>
      <point x="789" y="207"/>
      <point x="793" y="346" type="curve" smooth="yes"/>
      <point x="797" y="517"/>
      <point x="683" y="631"/>
      <point x="496" y="627" type="curve" smooth="yes"/>
      <point x="263" y="622"/>
      <point x="120" y="463"/>
      <point x="120" y="241" type="curve" smooth="yes"/>
      <point x="120" y="52"/>
      <point x="237" y="-34"/>
      <point x="402" y="-34" type="curve" smooth="yes"/>
      <point x="475" y="-34"/>
      <point x="543" y="-20"/>
      <point x="606" y="7" type="curve"/>
      <point x="641" y="-31"/>
      <point x="527" y="-88"/>
      <point x="385" y="-88" type="curve" smooth="yes"/>
      <point x="212" y="-88"/>
      <point x="60" y="18"/>
      <point x="60" y="241" type="curve" smooth="yes"/>
      <point x="60" y="492"/>
      <point x="249" y="681"/>
      <point x="510" y="681" type="curve" smooth="yes"/>
      <point x="725" y="681"/>
      <point x="853" y="534"/>
      <point x="853" y="361" type="curve" smooth="yes"/>
      <point x="853" y="183"/>
      <point x="738" y="80"/>
      <point x="618" y="80" type="curve" smooth="yes"/>
      <point x="556" y="80"/>
      <point x="514" y="112"/>
      <point x="519" y="175" type="curve" smooth="yes"/>
      <point x="532" y="397" type="line" smooth="yes"/>
      <point x="535" y="447"/>
      <point x="516" y="469"/>
      <point x="473" y="469" type="curve" smooth="yes"/>
      <point x="434" y="469"/>
      <point x="411" y="449"/>
      <point x="410" y="423" type="curve" smooth="yes"/>
      <point x="409" y="413"/>
      <point x="413" y="399"/>
      <point x="421" y="389" type="curve"/>
      <point x="403" y="375"/>
      <point x="379" y="366"/>
      <point x="352" y="366" type="curve" smooth="yes"/>
      <point x="304" y="366"/>
      <point x="280" y="391"/>
      <point x="282" y="426" type="curve" smooth="yes"/>
      <point x="285" y="486"/>
      <point x="381" y="527"/>
      <point x="480" y="527" type="curve" smooth="yes"/>
      <point x="583" y="527"/>
      <point x="655" y="485"/>
    </contour>
  </outline>
</glyph>
<glyph name="A" format="1">
  <advance width="709"/>
  <unicode hex="0041"/>
  <outline>
    <contour>
      <point x="355" y="729" type="move" name="top"/>
    </contour>
    <contour>
      <point x="666" y="23" type="move" name="ogonek"/>
    </contour>
    <contour>
      <point x="533" y="151" type="line"/>
      <point x="179" y="151" type="line"/>
      <point x="208" y="234" type="line"/>
      <point x="502" y="234" type="line"/>
    </contour>
    <contour>
      <point x="437" y="637" type="curve" smooth="yes"/>
      <point x="632" y="113" type="line" smooth="yes"/>
      <point x="646" y="74"/>
      <point x="664" y="50"/>
      <point x="690" y="38" type="curve"/>
      <point x="676" y="10"/>
      <point x="643" y="-10"/>
      <point x="603" y="-10" type="curve" smooth="yes"/>
      <point x="557" y="-10"/>
      <point x="530" y="9"/>
      <point x="509" y="74" type="curve" smooth="yes"/>
      <point x="326" y="620" type="line"/>
      <point x="370" y="611" type="line"/>
      <point x="197" y="75" type="line" smooth="yes"/>
      <point x="178" y="12"/>
      <point x="148" y="-10"/>
      <point x="111" y="-10" type="curve" smooth="yes"/>
      <point x="76" y="-10"/>
      <point x="40" y="8"/>
      <point x="31" y="34" type="curve"/>
      <point x="52" y="42"/>
      <point x="62" y="59"/>
      <point x="77" y="96" type="curve" smooth="yes"/>
      <point x="292" y="649" type="line"/>
      <point x="284" y="672"/>
      <point x="273" y="687"/>
      <point x="257" y="699" type="curve"/>
      <point x="273" y="722"/>
      <point x="301" y="738"/>
      <point x="336" y="738" type="curve" smooth="yes"/>
      <point x="394" y="738"/>
      <point x="412" y="703"/>
    </contour>
  </outline>
</glyph>
<glyph name="B" format="1">
  <advance width="752"/>
  <unicode hex="0042"/>
  <outline>
    <contour>
      <point x="652" y="538" type="curve" smooth="yes"/>
      <point x="652" y="456"/>
      <point x="597" y="403"/>
      <point x="514" y="383" type="curve"/>
      <point x="624" y="367"/>
      <point x="700" y="292"/>
      <point x="700" y="202" type="curve" smooth="yes"/>
      <point x="700" y="97"/>
      <point x="607" y="0"/>
      <point x="416" y="0" type="curve" smooth="yes"/>
      <point x="282" y="0" type="line" smooth="yes"/>
      <point x="146" y="0"/>
      <point x="101" y="39"/>
      <point x="101" y="154" type="curve" smooth="yes"/>
      <point x="102" y="630" type="line" smooth="yes"/>
      <point x="102" y="660"/>
      <point x="92" y="678"/>
      <point x="71" y="688" type="curve"/>
      <point x="91" y="713"/>
      <point x="118" y="729"/>
      <point x="159" y="729" type="curve" smooth="yes"/>
      <point x="380" y="729" type="line" smooth="yes"/>
      <point x="569" y="729"/>
      <point x="652" y="639"/>
    </contour>
    <contour>
      <point x="232" y="639" type="line"/>
      <point x="232" y="415" type="line"/>
      <point x="377" y="415" type="line" smooth="yes"/>
      <point x="475" y="414"/>
      <point x="518" y="460"/>
      <point x="518" y="527" type="curve" smooth="yes"/>
      <point x="518" y="588"/>
      <point x="475" y="639"/>
      <point x="377" y="639" type="curve" smooth="yes"/>
    </contour>
    <contour>
      <point x="232" y="325" type="line"/>
      <point x="231" y="154" type="line" smooth="yes"/>
      <point x="231" y="107"/>
      <point x="247" y="91"/>
      <point x="298" y="91" type="curve" smooth="yes"/>
      <point x="416" y="91" type="line" smooth="yes"/>
      <point x="512" y="91"/>
      <point x="565" y="137"/>
      <point x="565" y="208" type="curve" smooth="yes"/>
      <point x="565" y="282"/>
      <point x="512" y="325"/>
      <point x="416" y="325" type="curve" smooth="yes"/>
    </contour>
  </outline>
</glyph>
<glyph name="C" format="1">
  <advance width="715"/>
  <unicode hex="0043"/>
  <outline>
    <contour>
      <point x="359" y="729" type="move" name="top"/>
    </contour>
    <contour>
      <point x="359" y="0" type="move" name="bottom"/>
    </contour>
    <contour>
      <point x="645" y="601" type="curve" smooth="yes"/>
      <point x="645" y="548"/>
      <point x="603" y="527"/>
      <point x="554" y="527" type="curve" smooth="yes"/>
      <point x="535" y="527"/>
      <point x="513" y="531"/>
      <point x="494" y="542" type="curve"/>
      <point x="505" y="612"/>
      <point x="471" y="659"/>
      <point x="395" y="659" type="curve" smooth="yes"/>
      <point x="297" y="659"/>
      <point x="200" y="561"/>
      <point x="200" y="373" type="curve" smooth="yes"/>
      <point x="200" y="180"/>
      <point x="290" y="106"/>
      <point x="419" y="106" type="curve" smooth="yes"/>
      <point x="505" y="106"/>
      <point x="580" y="154"/>
      <point x="618" y="197" type="curve"/>
      <point x="625" y="195"/>
      <point x="647" y="182"/>
      <point x="647" y="146" type="curve" smooth="yes"/>
      <point x="647" y="84"/>
      <point x="537" y="-10"/>
      <point x="385" y="-10" type="curve" smooth="yes"/>
      <point x="189" y="-10"/>
      <point x="63" y="126"/>
      <point x="63" y="354" type="curve" smooth="yes"/>
      <point x="63" y="588"/>
      <point x="205" y="738"/>
      <point x="411" y="738" type="curve" smooth="yes"/>
      <point x="540" y="738"/>
      <point x="645" y="678"/>
    </contour>
  </outline>
</glyph>
<glyph name="D" format="1">
  <advance width="772"/>
  <unicode hex="0044"/>
  <outline>
    <contour>
      <point x="386" y="721" type="move" name="top"/>
    </contour>
    <contour>
      <point x="232" y="631" type="curve"/>
      <point x="231" y="142" type="line" smooth="yes"/>
      <point x="231" y="103"/>
      <point x="247" y="80"/>
      <point x="336" y="80" type="curve" smooth="yes"/>
      <point x="481" y="80"/>
      <point x="585" y="184"/>
      <point x="585" y="363" type="curve" smooth="yes"/>
      <point x="585" y="543"/>
      <point x="481" y="648"/>
      <point x="336" y="648" type="curve" smooth="yes"/>
      <point x="296" y="648"/>
      <point x="270" y="643"/>
    </contour>
    <contour>
      <point x="720" y="363" type="curve" smooth="yes"/>
      <point x="720" y="115"/>
      <point x="547" y="-10"/>
      <point x="336" y="-10" type="curve" smooth="yes"/>
      <point x="164" y="-10"/>
      <point x="101" y="41"/>
      <point x="101" y="149" type="curve" smooth="yes"/>
      <point x="102" y="603" type="line" smooth="yes"/>
      <point x="102" y="638"/>
      <point x="95" y="669"/>
      <point x="79" y="693" type="curve"/>
      <point x="162" y="722"/>
      <point x="240" y="738"/>
      <point x="336" y="738" type="curve" smooth="yes"/>
      <point x="547" y="738"/>
      <point x="720" y="613"/>
    </contour>
  </outline>
</glyph>
<glyph name="E" format="1">
  <advance width="687"/>
  <unicode hex="0045"/>
  <outline>
    <contour>
      <point x="360" y="729" type="move" name="top"/>
    </contour>
    <contour>
      <point x="563" y="25" type="move" name="ogonek"/>
    </contour>
    <contour>
      <point x="344" y="0" type="move" name="bottom"/>
    </contour>
    <contour>
      <point x="498" y="729" type="line"/>
      <point x="592" y="729"/>
      <point x="627" y="703"/>
      <point x="627" y="658" type="curve" smooth="yes"/>
      <point x="627" y="633"/>
      <point x="615" y="614"/>
      <point x="596" y="602" type="curve"/>
      <point x="567" y="617"/>
      <point x="532" y="623"/>
      <point x="486" y="623" type="curve" smooth="yes"/>
      <point x="244" y="623" type="line"/>
      <point x="244" y="175" type="line" smooth="yes"/>
      <point x="244" y="126"/>
      <point x="264" y="105"/>
      <point x="309" y="105" type="curve" smooth="yes"/>
      <point x="486" y="105" type="line" smooth="yes"/>
      <point x="532" y="105"/>
      <point x="567" y="119"/>
      <point x="596" y="146" type="curve"/>
      <point x="615" y="133"/>
      <point x="627" y="108"/>
      <point x="627" y="84" type="curve" smooth="yes"/>
      <point x="627" y="37"/>
      <point x="592" y="0"/>
      <point x="506" y="0" type="curve" smooth="yes"/>
      <point x="292" y="0" type="line" smooth="yes"/>
      <point x="172" y="0"/>
      <point x="115" y="47"/>
      <point x="115" y="161" type="curve" smooth="yes"/>
      <point x="115" y="630" type="line" smooth="yes"/>
      <point x="115" y="660"/>
      <point x="105" y="678"/>
      <point x="84" y="688" type="curve"/>
      <point x="104" y="713"/>
      <point x="131" y="729"/>
      <point x="171" y="729" type="curve" smooth="yes"/>
    </contour>
    <contour>
      <point x="410" y="437" type="line"/>
      <point x="504" y="437"/>
      <point x="539" y="421"/>
      <point x="539" y="376" type="curve" smooth="yes"/>
      <point x="539" y="350"/>
      <point x="527" y="331"/>
      <point x="510" y="319" type="curve"/>
      <point x="480" y="331"/>
      <point x="445" y="332"/>
      <point x="400" y="332" type="curve" smooth="yes"/>
      <point x="226" y="332" type="line"/>
      <point x="226" y="437" type="line"/>
    </contour>
  </outline>
</glyph>
<glyph name="F" format="1">
  <advance width="646"/>
  <unicode hex="0046"/>
  <outline>
    <contour>
      <point x="410" y="427" type="line"/>
      <point x="504" y="427"/>
      <point x="539" y="413"/>
      <point x="539" y="374" type="curve" smooth="yes"/>
      <point x="539" y="352"/>
      <point x="527" y="335"/>
      <point x="510" y="324" type="curve"/>
      <point x="480" y="334"/>
      <point x="445" y="335"/>
      <point x="400" y="335" type="curve" smooth="yes"/>
      <point x="226" y="335" type="line"/>
      <point x="226" y="427" type="line"/>
    </contour>
    <contour>
      <point x="115" y="630" type="line"/>
      <point x="115" y="660"/>
      <point x="105" y="678"/>
      <point x="84" y="688" type="curve"/>
      <point x="104" y="713"/>
      <point x="131" y="729"/>
      <point x="171" y="729" type="curve" smooth="yes"/>
      <point x="506" y="729" type="line" smooth="yes"/>
      <point x="600" y="729"/>
      <point x="627" y="703"/>
      <point x="627" y="666" type="curve" smooth="yes"/>
      <point x="627" y="641"/>
      <point x="615" y="622"/>
      <point x="596" y="610" type="curve"/>
      <point x="567" y="625"/>
      <point x="532" y="631"/>
      <point x="486" y="631" type="curve" smooth="yes"/>
      <point x="244" y="631" type="line"/>
      <point x="244" y="88" type="line" smooth="yes"/>
      <point x="244" y="57"/>
      <point x="252" y="39"/>
      <point x="273" y="29" type="curve"/>
      <point x="256" y="7"/>
      <point x="231" y="-10"/>
      <point x="197" y="-10" type="curve" smooth="yes"/>
      <point x="141" y="-10"/>
      <point x="115" y="24"/>
      <point x="115" y="91" type="curve" smooth="yes"/>
    </contour>
  </outline>
</glyph>
<glyph name="G" format="1">
  <advance width="762"/>
  <unicode hex="0047"/>
  <outline>
    <contour>
      <point x="433" y="729" type="move" name="top"/>
    </contour>
    <contour>
      <point x="381" y="0" type="move" name="bottom"/>
    </contour>
    <contour>
      <point x="692" y="597" type="curve" smooth="yes"/>
      <point x="692" y="555"/>
      <point x="650" y="525"/>
      <point x="601" y="525" type="curve" smooth="yes"/>
      <point x="582" y="525"/>
      <point x="561" y="529"/>
      <point x="541" y="541" type="curve"/>
      <point x="549" y="612"/>
      <point x="504" y="659"/>
      <point x="425" y="659" type="curve" smooth="yes"/>
      <point x="289" y="659"/>
      <point x="204" y="545"/>
      <point x="202" y="361" type="curve" smooth="yes"/>
      <point x="201" y="193"/>
      <point x="278" y="92"/>
      <point x="408" y="92" type="curve" smooth="yes"/>
      <point x="492" y="92"/>
      <point x="540" y="129"/>
      <point x="558" y="204" type="curve"/>
      <point x="558" y="290" type="line"/>
      <point x="516" y="290" type="line" smooth="yes"/>
      <point x="483" y="290"/>
      <point x="447" y="289"/>
      <point x="411" y="287" type="curve"/>
      <point x="401" y="302"/>
      <point x="396" y="324"/>
      <point x="396" y="335" type="curve" smooth="yes"/>
      <point x="396" y="377"/>
      <point x="436" y="390"/>
      <point x="557" y="390" type="curve" smooth="yes"/>
      <point x="662" y="390"/>
      <point x="687" y="361"/>
      <point x="687" y="292" type="curve" smooth="yes"/>
      <point x="686" y="-7" type="line" smooth="yes"/>
      <point x="686" y="-37"/>
      <point x="696" y="-55"/>
      <point x="716" y="-65" type="curve"/>
      <point x="698" y="-88"/>
      <point x="673" y="-104"/>
      <point x="639" y="-104" type="curve" smooth="yes"/>
      <point x="583" y="-104"/>
      <point x="557" y="-71"/>
      <point x="557" y="-4" type="curve" smooth="yes"/>
      <point x="557" y="111" type="line"/>
      <point x="579" y="111" type="line"/>
      <point x="553" y="46"/>
      <point x="480" y="-10"/>
      <point x="374" y="-10" type="curve" smooth="yes"/>
      <point x="224" y="-10"/>
      <point x="63" y="104"/>
      <point x="63" y="334" type="curve" smooth="yes"/>
      <point x="63" y="568"/>
      <point x="206" y="738"/>
      <point x="452" y="738" type="curve" smooth="yes"/>
      <point x="591" y="738"/>
      <point x="692" y="673"/>
    </contour>
  </outline>
</glyph>
<glyph name="H" format="1">
  <advance width="812"/>
  <unicode hex="0048"/>
  <outline>
    <contour>
      <point x="234" y="87" type="curve"/>
      <point x="234" y="639" type="line" smooth="yes"/>
      <point x="234" y="706"/>
      <point x="207" y="738"/>
      <point x="151" y="738" type="curve" smooth="yes"/>
      <point x="118" y="738"/>
      <point x="92" y="722"/>
      <point x="75" y="699" type="curve"/>
      <point x="95" y="690"/>
      <point x="105" y="671"/>
      <point x="105" y="642" type="curve" smooth="yes"/>
      <point x="105" y="90" type="line" smooth="yes"/>
      <point x="105" y="23"/>
      <point x="130" y="-10"/>
      <point x="187" y="-10" type="curve" smooth="yes"/>
      <point x="221" y="-10"/>
      <point x="246" y="6"/>
      <point x="264" y="29" type="curve"/>
      <point x="243" y="39"/>
      <point x="234" y="57"/>
    </contour>
    <contour>
      <point x="707" y="87" type="curve"/>
      <point x="707" y="639" type="line" smooth="yes"/>
      <point x="707" y="706"/>
      <point x="681" y="738"/>
      <point x="624" y="738" type="curve" smooth="yes"/>
      <point x="591" y="738"/>
      <point x="565" y="722"/>
      <point x="548" y="699" type="curve"/>
      <point x="568" y="690"/>
      <point x="578" y="671"/>
      <point x="578" y="642" type="curve" smooth="yes"/>
      <point x="578" y="90" type="line" smooth="yes"/>
      <point x="578" y="23"/>
      <point x="603" y="-10"/>
      <point x="660" y="-10" type="curve" smooth="yes"/>
      <point x="694" y="-10"/>
      <point x="719" y="6"/>
      <point x="736" y="29" type="curve"/>
      <point x="716" y="39"/>
      <point x="707" y="57"/>
    </contour>
    <contour>
      <point x="610" y="412" type="line"/>
      <point x="200" y="412" type="line"/>
      <point x="200" y="325" type="line"/>
      <point x="610" y="325" type="line"/>
    </contour>
  </outline>
</glyph>
<glyph name="I" format="1">
  <advance width="340"/>
  <unicode hex="0049"/>
  <outline>
    <contour>
      <point x="169" y="729" type="move" name="top"/>
    </contour>
    <contour>
      <point x="253" y="11" type="move" name="ogonek"/>
    </contour>
    <contour>
      <point x="234" y="87" type="line"/>
      <point x="234" y="57"/>
      <point x="243" y="39"/>
      <point x="264" y="29" type="curve"/>
      <point x="246" y="6"/>
      <point x="221" y="-10"/>
      <point x="187" y="-10" type="curve" smooth="yes"/>
      <point x="130" y="-10"/>
      <point x="105" y="23"/>
      <point x="105" y="90" type="curve" smooth="yes"/>
      <point x="105" y="642" type="line" smooth="yes"/>
      <point x="105" y="671"/>
      <point x="95" y="690"/>
      <point x="75" y="699" type="curve"/>
      <point x="92" y="722"/>
      <point x="118" y="738"/>
      <point x="151" y="738" type="curve" smooth="yes"/>
      <point x="207" y="738"/>
      <point x="234" y="706"/>
      <point x="234" y="639" type="curve" smooth="yes"/>
    </contour>
  </outline>
</glyph>
<glyph name="J" format="1">
  <advance width="441"/>
  <unicode hex="004A"/>
  <outline>
    <contour>
      <point x="178" y="-10" type="curve" smooth="yes"/>
      <point x="290" y="-10"/>
      <point x="369" y="52"/>
      <point x="369" y="178" type="curve" smooth="yes"/>
      <point x="369" y="639" type="line" smooth="yes"/>
      <point x="369" y="706"/>
      <point x="343" y="738"/>
      <point x="287" y="738" type="curve" smooth="yes"/>
      <point x="254" y="738"/>
      <point x="228" y="722"/>
      <point x="210" y="699" type="curve"/>
      <point x="231" y="690"/>
      <point x="240" y="671"/>
      <point x="240" y="642" type="curve" smooth="yes"/>
      <point x="240" y="173" type="line" smooth="yes"/>
      <point x="240" y="119"/>
      <point x="206" y="94"/>
      <point x="156" y="94" type="curve" smooth="yes"/>
      <point x="111" y="94"/>
      <point x="76" y="109"/>
      <point x="42" y="137" type="curve"/>
      <point x="30" y="125"/>
      <point x="22" y="107"/>
      <point x="22" y="86" type="curve" smooth="yes"/>
      <point x="22" y="35"/>
      <point x="82" y="-10"/>
    </contour>
  </outline>
</glyph>
<glyph name="K" format="1">
  <advance width="721"/>
  <unicode hex="004B"/>
  <outline>
    <contour>
      <point x="361" y="700" type="move" name="top"/>
    </contour>
    <contour>
      <point x="375" y="0" type="move" name="bottom"/>
    </contour>
    <contour>
      <point x="234" y="87" type="line"/>
      <point x="234" y="57"/>
      <point x="243" y="39"/>
      <point x="264" y="29" type="curve"/>
      <point x="246" y="6"/>
      <point x="221" y="-10"/>
      <point x="187" y="-10" type="curve" smooth="yes"/>
      <point x="130" y="-10"/>
      <point x="105" y="23"/>
      <point x="105" y="90" type="curve" smooth="yes"/>
      <point x="105" y="642" type="line" smooth="yes"/>
      <point x="105" y="671"/>
      <point x="95" y="690"/>
      <point x="75" y="699" type="curve"/>
      <point x="92" y="722"/>
      <point x="118" y="738"/>
      <point x="151" y="738" type="curve" smooth="yes"/>
      <point x="207" y="738"/>
      <point x="234" y="706"/>
      <point x="234" y="639" type="curve" smooth="yes"/>
    </contour>
    <contour>
      <point x="670" y="649" type="curve"/>
      <point x="639" y="645"/>
      <point x="607" y="633"/>
      <point x="564" y="590" type="curve" smooth="yes"/>
      <point x="311" y="344" type="line"/>
      <point x="312" y="398" type="line"/>
      <point x="566" y="143" type="line" smooth="yes"/>
      <point x="608" y="102"/>
      <point x="635" y="86"/>
      <point x="672" y="90" type="curve"/>
      <point x="672" y="31"/>
      <point x="630" y="-10"/>
      <point x="583" y="-10" type="curve" smooth="yes"/>
      <point x="531" y="-10"/>
      <point x="498" y="17"/>
      <point x="434" y="94" type="curve" smooth="yes"/>
      <point x="228" y="343" type="line"/>
      <point x="228" y="371" type="line"/>
      <point x="411" y="603" type="line" smooth="yes"/>
      <point x="485" y="706"/>
      <point x="523" y="738"/>
      <point x="582" y="738" type="curve" smooth="yes"/>
      <point x="633" y="738"/>
      <point x="667" y="700"/>
    </contour>
  </outline>
</glyph>
<glyph name="L" format="1">
  <advance width="584"/>
  <unicode hex="004C"/>
  <outline>
    <contour>
      <point x="169" y="729" type="move" name="top"/>
    </contour>
    <contour>
      <point x="233" y="700" type="move" name="topright"/>
    </contour>
    <contour>
      <point x="330" y="0" type="move" name="bottom"/>
    </contour>
    <contour>
      <point x="237" y="639" type="line"/>
      <point x="237" y="706"/>
      <point x="210" y="738"/>
      <point x="154" y="738" type="curve" smooth="yes"/>
      <point x="120" y="738"/>
      <point x="94" y="722"/>
      <point x="77" y="699" type="curve"/>
      <point x="97" y="690"/>
      <point x="107" y="671"/>
      <point x="107" y="642" type="curve" smooth="yes"/>
      <point x="107" y="153" type="line" smooth="yes"/>
      <point x="107" y="39"/>
      <point x="156" y="0"/>
      <point x="277" y="0" type="curve" smooth="yes"/>
      <point x="434" y="0" type="line" smooth="yes"/>
      <point x="516" y="0"/>
      <point x="552" y="42"/>
      <point x="552" y="89" type="curve" smooth="yes"/>
      <point x="552" y="108"/>
      <point x="544" y="128"/>
      <point x="526" y="137" type="curve"/>
      <point x="505" y="111"/>
      <point x="475" y="97"/>
      <point x="429" y="97" type="curve" smooth="yes"/>
      <point x="302" y="97" type="line" smooth="yes"/>
      <point x="257" y="97"/>
      <point x="237" y="118"/>
      <point x="237" y="167" type="curve" smooth="yes"/>
    </contour>
  </outline>
</glyph>
<glyph name="M" format="1">
  <advance width="965"/>
  <unicode hex="004D"/>
  <outline>
    <contour>
      <point x="846" y="639" type="line"/>
      <point x="844" y="670"/>
      <point x="848" y="697"/>
      <point x="862" y="718" type="curve"/>
      <point x="839" y="729"/>
      <point x="808" y="738"/>
      <point x="773" y="738" type="curve" smooth="yes"/>
      <point x="691" y="738"/>
      <point x="643" y="712"/>
      <point x="610" y="597" type="curve" smooth="yes"/>
      <point x="472" y="197" type="line"/>
      <point x="497" y="197" type="line"/>
      <point x="361" y="601" type="line" smooth="yes"/>
      <point x="335" y="692"/>
      <point x="304" y="738"/>
      <point x="224" y="738" type="curve" smooth="yes"/>
      <point x="173" y="738"/>
      <point x="128" y="723"/>
      <point x="98" y="706" type="curve"/>
      <point x="112" y="688"/>
      <point x="118" y="660"/>
      <point x="116" y="631" type="curve" smooth="yes"/>
      <point x="75" y="92" type="line" smooth="yes"/>
      <point x="73" y="62"/>
      <point x="65" y="38"/>
      <point x="48" y="22" type="curve"/>
      <point x="67" y="3"/>
      <point x="92" y="-10"/>
      <point x="122" y="-10" type="curve" smooth="yes"/>
      <point x="169" y="-10"/>
      <point x="188" y="21"/>
      <point x="192" y="85" type="curve" smooth="yes"/>
      <point x="229" y="683" type="line"/>
      <point x="200" y="674" type="line"/>
      <point x="421" y="43" type="line" smooth="yes"/>
      <point x="428" y="19"/>
      <point x="437" y="4"/>
      <point x="470" y="4" type="curve" smooth="yes"/>
      <point x="503" y="4"/>
      <point x="516" y="19"/>
      <point x="524" y="42" type="curve" smooth="yes"/>
      <point x="744" y="678" type="line"/>
      <point x="714" y="678" type="line"/>
      <point x="750" y="82" type="line" smooth="yes"/>
      <point x="755" y="12"/>
      <point x="786" y="-7"/>
      <point x="833" y="-7" type="curve" smooth="yes"/>
      <point x="862" y="-7"/>
      <point x="879" y="-1"/>
      <point x="899" y="9" type="curve"/>
      <point x="888" y="26"/>
      <point x="882" y="66"/>
      <point x="881" y="95" type="curve" smooth="yes"/>
    </contour>
  </outline>
</glyph>
<glyph name="N" format="1">
  <advance width="823"/>
  <unicode hex="004E"/>
  <outline>
    <contour>
      <point x="412" y="729" type="move" name="top"/>
    </contour>
    <contour>
      <point x="415" y="0" type="move" name="bottom"/>
    </contour>
    <contour>
      <point x="292" y="658" type="curve" smooth="yes"/>
      <point x="593" y="168" type="line"/>
      <point x="593" y="642" type="line" smooth="yes"/>
      <point x="593" y="671"/>
      <point x="583" y="690"/>
      <point x="563" y="699" type="curve"/>
      <point x="580" y="722"/>
      <point x="606" y="738"/>
      <point x="640" y="738" type="curve" smooth="yes"/>
      <point x="696" y="738"/>
      <point x="723" y="706"/>
      <point x="723" y="639" type="curve" smooth="yes"/>
      <point x="723" y="87" type="line" smooth="yes"/>
      <point x="723" y="57"/>
      <point x="728" y="36"/>
      <point x="743" y="19" type="curve"/>
      <point x="728" y="2"/>
      <point x="701" y="-10"/>
      <point x="664" y="-10" type="curve" smooth="yes"/>
      <point x="605" y="-10"/>
      <point x="559" y="27"/>
      <point x="502" y="118" type="curve" smooth="yes"/>
      <point x="239" y="543" type="line"/>
      <point x="239" y="87" type="line" smooth="yes"/>
      <point x="239" y="57"/>
      <point x="248" y="39"/>
      <point x="268" y="29" type="curve"/>
      <point x="250" y="6"/>
      <point x="226" y="-10"/>
      <point x="192" y="-10" type="curve" smooth="yes"/>
      <point x="135" y="-10"/>
      <point x="109" y="23"/>
      <point x="109" y="90" type="curve" smooth="yes"/>
      <point x="109" y="642" type="line" smooth="yes"/>
      <point x="109" y="671"/>
      <point x="100" y="690"/>
      <point x="79" y="699" type="curve"/>
      <point x="97" y="722"/>
      <point x="122" y="738"/>
      <point x="167" y="738" type="curve" smooth="yes"/>
      <point x="220" y="738"/>
      <point x="257" y="714"/>
    </contour>
  </outline>
</glyph>
<glyph name="O" format="1">
  <advance width="784"/>
  <unicode hex="004F"/>
  <outline>
    <contour>
      <point x="393" y="729" type="move" name="top"/>
    </contour>
    <contour>
      <point x="716" y="365" type="curve" smooth="yes"/>
      <point x="716" y="581"/>
      <point x="614" y="738"/>
      <point x="393" y="738" type="curve" smooth="yes"/>
      <point x="176" y="738"/>
      <point x="68" y="579"/>
      <point x="68" y="365" type="curve" smooth="yes"/>
      <point x="68" y="149"/>
      <point x="176" y="-10"/>
      <point x="393" y="-10" type="curve" smooth="yes"/>
      <point x="613" y="-10"/>
      <point x="716" y="150"/>
    </contour>
    <contour>
      <point x="411" y="76" type="curve" smooth="yes"/>
      <point x="286" y="76"/>
      <point x="214" y="190"/>
      <point x="202" y="358" type="curve" smooth="yes"/>
      <point x="191" y="527"/>
      <point x="248" y="653"/>
      <point x="373" y="653" type="curve" smooth="yes"/>
      <point x="500" y="653"/>
      <point x="572" y="539"/>
      <point x="582" y="370" type="curve" smooth="yes"/>
      <point x="594" y="202"/>
      <point x="537" y="76"/>
    </contour>
  </outline>
</glyph>
<glyph name="P" format="1">
  <advance width="627"/>
  <unicode hex="0050"/>
  <outline>
    <contour>
      <point x="603" y="498" type="curve" smooth="yes"/>
      <point x="603" y="343"/>
      <point x="472" y="266"/>
      <point x="322" y="266" type="curve" smooth="yes"/>
      <point x="217" y="266" type="line"/>
      <point x="217" y="87" type="line" smooth="yes"/>
      <point x="217" y="57"/>
      <point x="226" y="39"/>
      <point x="247" y="29" type="curve"/>
      <point x="229" y="6"/>
      <point x="204" y="-10"/>
      <point x="170" y="-10" type="curve" smooth="yes"/>
      <point x="114" y="-10"/>
      <point x="88" y="23"/>
      <point x="88" y="90" type="curve" smooth="yes"/>
      <point x="88" y="630" type="line" smooth="yes"/>
      <point x="88" y="660"/>
      <point x="78" y="678"/>
      <point x="57" y="688" type="curve"/>
      <point x="77" y="713"/>
      <point x="104" y="729"/>
      <point x="145" y="729" type="curve" smooth="yes"/>
      <point x="322" y="729" type="line" smooth="yes"/>
      <point x="472" y="730"/>
      <point x="603" y="652"/>
    </contour>
    <contour>
      <point x="217" y="647" type="line"/>
      <point x="217" y="347" type="line"/>
      <point x="302" y="347" type="line" smooth="yes"/>
      <point x="403" y="347"/>
      <point x="456" y="409"/>
      <point x="456" y="497" type="curve" smooth="yes"/>
      <point x="456" y="586"/>
      <point x="403" y="647"/>
      <point x="302" y="647" type="curve" smooth="yes"/>
    </contour>
  </outline>
</glyph>
<glyph name="Q" format="1">
  <advance width="818"/>
  <unicode hex="0051"/>
  <outline>
    <contour>
      <point x="738" y="411" type="curve" smooth="yes"/>
      <point x="738" y="614"/>
      <point x="603" y="738"/>
      <point x="421" y="738" type="curve" smooth="yes"/>
      <point x="218" y="738"/>
      <point x="76" y="577"/>
      <point x="76" y="359" type="curve" smooth="yes"/>
      <point x="76" y="194"/>
      <point x="176" y="108"/>
      <point x="277" y="108" type="curve" smooth="yes"/>
      <point x="340" y="108"/>
      <point x="371" y="148"/>
      <point x="371" y="189" type="curve" smooth="yes"/>
      <point x="371" y="196"/>
      <point x="371" y="202"/>
      <point x="369" y="208" type="curve"/>
      <point x="364" y="208"/>
      <point x="359" y="207"/>
      <point x="354" y="207" type="curve" smooth="yes"/>
      <point x="268" y="207"/>
      <point x="208" y="279"/>
      <point x="208" y="409" type="curve" smooth="yes"/>
      <point x="208" y="554"/>
      <point x="278" y="651"/>
      <point x="392" y="651" type="curve" smooth="yes"/>
      <point x="512" y="651"/>
      <point x="602" y="542"/>
      <point x="602" y="392" type="curve" smooth="yes"/>
      <point x="602" y="225"/>
      <point x="513" y="111"/>
      <point x="366" y="52" type="curve" smooth="yes"/>
      <point x="309" y="29"/>
      <point x="297" y="18"/>
      <point x="297" y="-1" type="curve" smooth="yes"/>
      <point x="297" y="-74"/>
      <point x="446" y="-212"/>
      <point x="605" y="-212" type="curve" smooth="yes"/>
      <point x="748" y="-212"/>
      <point x="778" y="-97"/>
      <point x="730" y="-46" type="curve"/>
      <point x="698" y="-70"/>
      <point x="659" y="-82"/>
      <point x="617" y="-82" type="curve" smooth="yes"/>
      <point x="539" y="-82"/>
      <point x="458" y="-58"/>
      <point x="399" y="-9" type="curve"/>
      <point x="610" y="47"/>
      <point x="738" y="202"/>
    </contour>
  </outline>
</glyph>
<glyph name="R" format="1">
  <advance width="659"/>
  <unicode hex="0052"/>
  <outline>
    <contour>
      <point x="322" y="725" type="move" name="top"/>
    </contour>
    <contour>
      <point x="340" y="0" type="move" name="bottom"/>
    </contour>
    <contour>
      <point x="505" y="165" type="curve" smooth="yes"/>
      <point x="375" y="323" type="line"/>
      <point x="272" y="308" type="line"/>
      <point x="395" y="109" type="line" smooth="yes"/>
      <point x="443" y="25"/>
      <point x="476" y="-10"/>
      <point x="532" y="-10" type="curve" smooth="yes"/>
      <point x="584" y="-10"/>
      <point x="617" y="27"/>
      <point x="620" y="85" type="curve"/>
      <point x="581" y="85"/>
      <point x="553" y="109"/>
    </contour>
    <contour>
      <point x="589" y="506" type="curve" smooth="yes"/>
      <point x="589" y="653"/>
      <point x="458" y="729"/>
      <point x="308" y="729" type="curve" smooth="yes"/>
      <point x="145" y="729" type="line" smooth="yes"/>
      <point x="104" y="729"/>
      <point x="77" y="713"/>
      <point x="57" y="688" type="curve"/>
      <point x="78" y="678"/>
      <point x="88" y="660"/>
      <point x="88" y="630" type="curve" smooth="yes"/>
      <point x="88" y="90" type="line" smooth="yes"/>
      <point x="88" y="23"/>
      <point x="114" y="-10"/>
      <point x="170" y="-10" type="curve" smooth="yes"/>
      <point x="204" y="-10"/>
      <point x="229" y="6"/>
      <point x="247" y="29" type="curve"/>
      <point x="226" y="39"/>
      <point x="217" y="57"/>
      <point x="217" y="87" type="curve" smooth="yes"/>
      <point x="217" y="284" type="line"/>
      <point x="308" y="284" type="line" smooth="yes"/>
      <point x="458" y="284"/>
      <point x="589" y="360"/>
    </contour>
    <contour>
      <point x="217" y="634" type="line"/>
      <point x="302" y="634" type="line" smooth="yes"/>
      <point x="403" y="634"/>
      <point x="456" y="587"/>
      <point x="456" y="506" type="curve" smooth="yes"/>
      <point x="456" y="425"/>
      <point x="403" y="378"/>
      <point x="302" y="378" type="curve" smooth="yes"/>
      <point x="217" y="378" type="line"/>
    </contour>
  </outline>
</glyph>
<glyph name="S" format="1">
  <advance width="680"/>
  <unicode hex="0053"/>
  <outline>
    <contour>
      <point x="341" y="729" type="move" name="top"/>
    </contour>
    <contour>
      <point x="341" y="0" type="move" name="bottom"/>
    </contour>
    <contour>
      <point x="610" y="594" type="curve" smooth="yes"/>
      <point x="610" y="676"/>
      <point x="509" y="740"/>
      <point x="355" y="740" type="curve" smooth="yes"/>
      <point x="215" y="740"/>
      <point x="90" y="665"/>
      <point x="90" y="541" type="curve" smooth="yes"/>
      <point x="90" y="333"/>
      <point x="501" y="328"/>
      <point x="501" y="182" type="curve" smooth="yes"/>
      <point x="501" y="117"/>
      <point x="438" y="74"/>
      <point x="349" y="74" type="curve" smooth="yes"/>
      <point x="258" y="74"/>
      <point x="206" y="113"/>
      <point x="206" y="157" type="curve" smooth="yes"/>
      <point x="206" y="179"/>
      <point x="216" y="198"/>
      <point x="230" y="212" type="curve"/>
      <point x="213" y="228"/>
      <point x="189" y="240"/>
      <point x="158" y="240" type="curve" smooth="yes"/>
      <point x="116" y="240"/>
      <point x="74" y="209"/>
      <point x="74" y="156" type="curve" smooth="yes"/>
      <point x="74" y="58"/>
      <point x="195" y="-10"/>
      <point x="349" y="-10" type="curve" smooth="yes"/>
      <point x="500" y="-10"/>
      <point x="630" y="77"/>
      <point x="630" y="205" type="curve" smooth="yes"/>
      <point x="630" y="417"/>
      <point x="219" y="433"/>
      <point x="219" y="567" type="curve" smooth="yes"/>
      <point x="219" y="624"/>
      <point x="276" y="656"/>
      <point x="354" y="656" type="curve" smooth="yes"/>
      <point x="439" y="656"/>
      <point x="479" y="613"/>
      <point x="479" y="576" type="curve" smooth="yes"/>
      <point x="479" y="566"/>
      <point x="477" y="552"/>
      <point x="472" y="540" type="curve"/>
      <point x="492" y="527"/>
      <point x="515" y="521"/>
      <point x="540" y="521" type="curve" smooth="yes"/>
      <point x="578" y="521"/>
      <point x="610" y="548"/>
    </contour>
  </outline>
</glyph>
<glyph name="T" format="1">
  <advance width="611"/>
  <unicode hex="0054"/>
  <outline>
    <contour>
      <point x="306" y="700" type="move" name="top"/>
    </contour>
    <contour>
      <point x="319" y="0" type="move" name="bottom"/>
    </contour>
    <contour>
      <point x="370" y="678" type="line"/>
      <point x="241" y="678" type="line"/>
      <point x="241" y="90" type="line" smooth="yes"/>
      <point x="241" y="23"/>
      <point x="266" y="-10"/>
      <point x="323" y="-10" type="curve" smooth="yes"/>
      <point x="357" y="-10"/>
      <point x="382" y="6"/>
      <point x="400" y="29" type="curve"/>
      <point x="379" y="39"/>
      <point x="370" y="57"/>
      <point x="370" y="87" type="curve" smooth="yes"/>
    </contour>
    <contour>
      <point x="510" y="729" type="curve"/>
      <point x="140" y="729" type="line" smooth="yes"/>
      <point x="97" y="729"/>
      <point x="70" y="732"/>
      <point x="42" y="745" type="curve"/>
      <point x="30" y="732"/>
      <point x="20" y="712"/>
      <point x="20" y="695" type="curve" smooth="yes"/>
      <point x="20" y="659"/>
      <point x="37" y="631"/>
      <point x="101" y="631" type="curve" smooth="yes"/>
      <point x="471" y="631" type="line" smooth="yes"/>
      <point x="515" y="631"/>
      <point x="543" y="627"/>
      <point x="570" y="614" type="curve"/>
      <point x="581" y="627"/>
      <point x="591" y="647"/>
      <point x="591" y="664" type="curve" smooth="yes"/>
      <point x="591" y="700"/>
      <point x="574" y="729"/>
    </contour>
  </outline>
</glyph>
<glyph name="U" format="1">
  <advance width="737"/>
  <unicode hex="0055"/>
  <outline>
    <contour>
      <point x="384" y="729" type="move" name="top"/>
    </contour>
    <contour>
      <point x="448" y="6" type="move" name="ogonek"/>
    </contour>
    <contour>
      <point x="226" y="639" type="line"/>
      <point x="226" y="706"/>
      <point x="199" y="738"/>
      <point x="142" y="738" type="curve" smooth="yes"/>
      <point x="109" y="738"/>
      <point x="84" y="722"/>
      <point x="66" y="699" type="curve"/>
      <point x="87" y="690"/>
      <point x="97" y="671"/>
      <point x="97" y="642" type="curve" smooth="yes"/>
      <point x="97" y="261" type="line" smooth="yes"/>
      <point x="97" y="98"/>
      <point x="184" y="-10"/>
      <point x="384" y="-10" type="curve" smooth="yes"/>
      <point x="585" y="-10"/>
      <point x="671" y="98"/>
      <point x="671" y="261" type="curve" smooth="yes"/>
      <point x="671" y="639" type="line" smooth="yes"/>
      <point x="671" y="706"/>
      <point x="645" y="738"/>
      <point x="588" y="738" type="curve" smooth="yes"/>
      <point x="555" y="738"/>
      <point x="529" y="722"/>
      <point x="511" y="699" type="curve"/>
      <point x="532" y="690"/>
      <point x="542" y="671"/>
      <point x="542" y="642" type="curve" smooth="yes"/>
      <point x="542" y="243" type="line" smooth="yes"/>
      <point x="542" y="139"/>
      <point x="482" y="90"/>
      <point x="384" y="90" type="curve" smooth="yes"/>
      <point x="285" y="90"/>
      <point x="226" y="141"/>
      <point x="226" y="243" type="curve" smooth="yes"/>
    </contour>
  </outline>
</glyph>
<glyph name="V" format="1">
  <advance width="724"/>
  <unicode hex="0056"/>
  <outline>
    <contour>
      <point x="537" y="545" type="curve" smooth="yes"/>
      <point x="537" y="618"/>
      <point x="529" y="661"/>
      <point x="500" y="709" type="curve"/>
      <point x="520" y="725"/>
      <point x="555" y="739"/>
      <point x="583" y="739" type="curve" smooth="yes"/>
      <point x="647" y="739"/>
      <point x="687" y="682"/>
      <point x="687" y="581" type="curve" smooth="yes"/>
      <point x="687" y="346"/>
      <point x="456" y="-10"/>
      <point x="328" y="-10" type="curve"/>
      <point x="271" y="-10"/>
      <point x="244" y="18"/>
      <point x="219" y="94" type="curve" smooth="yes"/>
      <point x="44" y="623" type="line" smooth="yes"/>
      <point x="31" y="661"/>
      <point x="23" y="685"/>
      <point x="-1" y="698" type="curve"/>
      <point x="21" y="725"/>
      <point x="49" y="738"/>
      <point x="83" y="738" type="curve" smooth="yes"/>
      <point x="129" y="738"/>
      <point x="163" y="717"/>
      <point x="187" y="636" type="curve" smooth="yes"/>
      <point x="359" y="51" type="line"/>
      <point x="328" y="65" type="line"/>
      <point x="452" y="182"/>
      <point x="537" y="392"/>
    </contour>
  </outline>
</glyph>
<glyph name="W" format="1">
  <advance width="1009"/>
  <unicode hex="0057"/>
  <outline>
    <contour>
      <point x="208" y="636" type="line"/>
      <point x="190" y="716"/>
      <point x="150" y="738"/>
      <point x="104" y="738" type="curve" smooth="yes"/>
      <point x="70" y="738"/>
      <point x="42" y="725"/>
      <point x="20" y="698" type="curve"/>
      <point x="44" y="685"/>
      <point x="55" y="661"/>
      <point x="65" y="623" type="curve" smooth="yes"/>
      <point x="207" y="94" type="line" smooth="yes"/>
      <point x="227" y="15"/>
      <point x="255" y="-10"/>
      <point x="312" y="-10" type="curve" smooth="yes"/>
      <point x="407" y="-10"/>
      <point x="528" y="281"/>
      <point x="561" y="520" type="curve"/>
      <point x="480" y="622" type="line"/>
      <point x="440" y="381"/>
      <point x="393" y="193"/>
      <point x="292" y="54" type="curve"/>
      <point x="342" y="51" type="line"/>
    </contour>
    <contour>
      <point x="567" y="653" type="line"/>
      <point x="551" y="716"/>
      <point x="522" y="738"/>
      <point x="477" y="738" type="curve" smooth="yes"/>
      <point x="443" y="738"/>
      <point x="416" y="725"/>
      <point x="394" y="698" type="curve"/>
      <point x="418" y="685"/>
      <point x="428" y="661"/>
      <point x="439" y="623" type="curve" smooth="yes"/>
      <point x="584" y="94" type="line" smooth="yes"/>
      <point x="604" y="19"/>
      <point x="634" y="-10"/>
      <point x="675" y="-10" type="curve" smooth="yes"/>
      <point x="791" y="-10"/>
      <point x="977" y="362"/>
      <point x="977" y="567" type="curve" smooth="yes"/>
      <point x="977" y="681"/>
      <point x="923" y="738"/>
      <point x="859" y="738" type="curve" smooth="yes"/>
      <point x="833" y="738"/>
      <point x="792" y="723"/>
      <point x="776" y="709" type="curve"/>
      <point x="812" y="680"/>
      <point x="834" y="615"/>
      <point x="834" y="533" type="curve" smooth="yes"/>
      <point x="834" y="410"/>
      <point x="783" y="220"/>
      <point x="681" y="66" type="curve"/>
      <point x="716" y="62" type="line"/>
    </contour>
  </outline>
</glyph>
<glyph name="X" format="1">
  <advance width="657"/>
  <unicode hex="0058"/>
  <outline>
    <contour>
      <point x="288" y="399" type="line"/>
      <point x="343" y="327" type="line"/>
      <point x="230" y="129" type="line" smooth="yes"/>
      <point x="174" y="26"/>
      <point x="142" y="-10"/>
      <point x="88" y="-10" type="curve" smooth="yes"/>
      <point x="49" y="-10"/>
      <point x="13" y="18"/>
      <point x="15" y="73" type="curve"/>
      <point x="42" y="73"/>
      <point x="59" y="81"/>
      <point x="78" y="108" type="curve" smooth="yes"/>
    </contour>
    <contour>
      <point x="206" y="671" type="curve" smooth="yes"/>
      <point x="559" y="125" type="line" smooth="yes"/>
      <point x="589" y="80"/>
      <point x="616" y="67"/>
      <point x="643" y="66" type="curve"/>
      <point x="631" y="21"/>
      <point x="599" y="-10"/>
      <point x="553" y="-10" type="curve" smooth="yes"/>
      <point x="513" y="-10"/>
      <point x="486" y="5"/>
      <point x="452" y="57" type="curve" smooth="yes"/>
      <point x="99" y="603" type="line" smooth="yes"/>
      <point x="69" y="649"/>
      <point x="42" y="661"/>
      <point x="15" y="661" type="curve"/>
      <point x="26" y="708"/>
      <point x="59" y="738"/>
      <point x="105" y="738" type="curve" smooth="yes"/>
      <point x="145" y="738"/>
      <point x="174" y="721"/>
    </contour>
    <contour>
      <point x="644" y="654" type="curve"/>
      <point x="616" y="654"/>
      <point x="599" y="646"/>
      <point x="580" y="619" type="curve" smooth="yes"/>
      <point x="372" y="330" type="line"/>
      <point x="316" y="402" type="line"/>
      <point x="428" y="598" type="line" smooth="yes"/>
      <point x="485" y="701"/>
      <point x="516" y="739"/>
      <point x="570" y="739" type="curve" smooth="yes"/>
      <point x="609" y="739"/>
      <point x="645" y="709"/>
    </contour>
  </outline>
</glyph>
<glyph name="Y" format="1">
  <advance width="633"/>
  <unicode hex="0059"/>
  <outline>
    <contour>
      <point x="323" y="729" type="move" name="top"/>
    </contour>
    <contour>
      <point x="199" y="658" type="line"/>
      <point x="171" y="705"/>
      <point x="142" y="738"/>
      <point x="96" y="738" type="curve" smooth="yes"/>
      <point x="57" y="738"/>
      <point x="25" y="718"/>
      <point x="10" y="670" type="curve"/>
      <point x="35" y="668"/>
      <point x="54" y="655"/>
      <point x="71" y="629" type="curve" smooth="yes"/>
      <point x="255" y="318" type="line"/>
      <point x="254" y="95" type="line" smooth="yes"/>
      <point x="254" y="26"/>
      <point x="284" y="-7"/>
      <point x="331" y="-7" type="curve" smooth="yes"/>
      <point x="361" y="-7"/>
      <point x="380" y="-1"/>
      <point x="400" y="9" type="curve"/>
      <point x="389" y="26"/>
      <point x="382" y="56"/>
      <point x="382" y="82" type="curve" smooth="yes"/>
      <point x="383" y="320" type="line"/>
      <point x="589" y="598" type="line" smooth="yes"/>
      <point x="608" y="624"/>
      <point x="618" y="651"/>
      <point x="618" y="673" type="curve" smooth="yes"/>
      <point x="618" y="711"/>
      <point x="587" y="738"/>
      <point x="537" y="738" type="curve" smooth="yes"/>
      <point x="508" y="738"/>
      <point x="486" y="730"/>
      <point x="463" y="719" type="curve"/>
      <point x="487" y="694"/>
      <point x="490" y="659"/>
      <point x="460" y="621" type="curve" smooth="yes"/>
      <point x="294" y="388" type="line"/>
      <point x="359" y="386" type="line"/>
    </contour>
  </outline>
</glyph>
<glyph name="Z" format="1">
  <advance width="652"/>
  <unicode hex="005A"/>
  <outline>
    <contour>
      <point x="325" y="729" type="move" name="top"/>
    </contour>
    <contour>
      <point x="478" y="729" type="curve"/>
      <point x="194" y="729" type="line" smooth="yes"/>
      <point x="145" y="729"/>
      <point x="105" y="732"/>
      <point x="72" y="743" type="curve"/>
      <point x="59" y="728"/>
      <point x="50" y="709"/>
      <point x="50" y="687" type="curve" smooth="yes"/>
      <point x="50" y="643"/>
      <point x="82" y="604"/>
      <point x="200" y="604" type="curve" smooth="yes"/>
      <point x="271" y="604"/>
      <point x="390" y="611"/>
      <point x="502" y="630" type="curve"/>
      <point x="510" y="656" type="line"/>
      <point x="96" y="214" type="line" smooth="yes"/>
      <point x="57" y="176"/>
      <point x="38" y="145"/>
      <point x="38" y="105" type="curve" smooth="yes"/>
      <point x="38" y="41"/>
      <point x="93" y="0"/>
      <point x="166" y="0" type="curve" smooth="yes"/>
      <point x="459" y="0" type="line" smooth="yes"/>
      <point x="576" y="0"/>
      <point x="608" y="40"/>
      <point x="608" y="84" type="curve" smooth="yes"/>
      <point x="608" y="106"/>
      <point x="599" y="130"/>
      <point x="585" y="146" type="curve"/>
      <point x="555" y="129"/>
      <point x="519" y="121"/>
      <point x="470" y="118" type="curve" smooth="yes"/>
      <point x="132" y="98" type="line"/>
      <point x="136" y="73" type="line"/>
      <point x="547" y="514" type="line" smooth="yes"/>
      <point x="586" y="553"/>
      <point x="606" y="583"/>
      <point x="606" y="624" type="curve" smooth="yes"/>
      <point x="606" y="687"/>
      <point x="551" y="729"/>
    </contour>
  </outline>
</glyph>
<glyph name="bracketleft" format="1">
  <advance width="429"/>
  <unicode hex="005B"/>
  <outline>
    <contour>
      <point x="183" y="-100" type="line"/>
      <point x="183" y="886" type="line"/>
      <point x="375" y="886" type="line"/>
      <point x="378" y="890"/>
      <point x="380" y="900"/>
      <point x="380" y="908" type="curve" smooth="yes"/>
      <point x="380" y="973"/>
      <point x="314" y="973"/>
      <point x="287" y="973" type="curve" smooth="yes"/>
      <point x="54" y="973" type="line"/>
      <point x="54" y="-60" type="line" smooth="yes"/>
      <point x="54" y="-187"/>
      <point x="141" y="-187"/>
      <point x="177" y="-187" type="curve" smooth="yes"/>
      <point x="375" y="-187" type="line"/>
      <point x="378" y="-182"/>
      <point x="380" y="-172"/>
      <point x="380" y="-164" type="curve" smooth="yes"/>
      <point x="380" y="-100"/>
      <point x="314" y="-100"/>
      <point x="287" y="-100" type="curve" smooth="yes"/>
    </contour>
  </outline>
</glyph>
<glyph name="backslash" format="1">
  <advance width="605"/>
  <unicode hex="005C"/>
  <outline>
    <contour>
      <point x="121" y="1020" type="curve" smooth="yes"/>
      <point x="107" y="1020"/>
      <point x="87" y="1016"/>
      <point x="70" y="1002" type="curve"/>
      <point x="84" y="992"/>
      <point x="96" y="961"/>
      <point x="103" y="940" type="curve" smooth="yes"/>
      <point x="315" y="336"/>
      <point x="360" y="196"/>
      <point x="451" y="-61" type="curve"/>
      <point x="459" y="-85"/>
      <point x="479" y="-139"/>
      <point x="527" y="-139" type="curve" smooth="yes"/>
      <point x="540" y="-139"/>
      <point x="557" y="-137"/>
      <point x="577" y="-120" type="curve"/>
      <point x="567" y="-111"/>
      <point x="552" y="-79"/>
      <point x="544" y="-56" type="curve"/>
      <point x="434" y="255"/>
      <point x="316" y="607"/>
      <point x="196" y="942" type="curve" smooth="yes"/>
      <point x="188" y="966"/>
      <point x="169" y="1020"/>
    </contour>
  </outline>
</glyph>
<glyph name="bracketright" format="1">
  <advance width="429"/>
  <unicode hex="005D"/>
  <outline>
    <contour>
      <point x="253" y="886" type="line"/>
      <point x="253" y="-100" type="line"/>
      <point x="60" y="-100" type="line"/>
      <point x="59" y="-105"/>
      <point x="56" y="-114"/>
      <point x="56" y="-123" type="curve" smooth="yes"/>
      <point x="56" y="-187"/>
      <point x="122" y="-187"/>
      <point x="149" y="-187" type="curve" smooth="yes"/>
      <point x="382" y="-187" type="line"/>
      <point x="382" y="846" type="line" smooth="yes"/>
      <point x="382" y="973"/>
      <point x="294" y="973"/>
      <point x="259" y="973" type="curve" smooth="yes"/>
      <point x="60" y="973" type="line"/>
      <point x="59" y="968"/>
      <point x="56" y="958"/>
      <point x="56" y="950" type="curve" smooth="yes"/>
      <point x="56" y="886"/>
      <point x="122" y="886"/>
      <point x="149" y="886" type="curve" smooth="yes"/>
    </contour>
  </outline>
</glyph>
<glyph name="asciicircum" format="1">
  <advance width="672"/>
  <unicode hex="005E"/>
  <outline>
    <contour>
      <point x="394" y="659" type="curve" smooth="yes"/>
      <point x="596" y="247" type="line"/>
      <point x="578" y="232"/>
      <point x="559" y="225"/>
      <point x="543" y="225" type="curve" smooth="yes"/>
      <point x="510" y="225"/>
      <point x="483" y="252"/>
      <point x="456" y="309" type="curve" smooth="yes"/>
      <point x="303" y="626" type="line"/>
      <point x="365" y="639" type="line"/>
      <point x="155" y="236" type="line"/>
      <point x="118" y="236"/>
      <point x="76" y="259"/>
      <point x="76" y="309" type="curve" smooth="yes"/>
      <point x="76" y="330"/>
      <point x="83" y="356"/>
      <point x="101" y="387" type="curve" smooth="yes"/>
      <point x="255" y="662" type="line" smooth="yes"/>
      <point x="277" y="700"/>
      <point x="301" y="719"/>
      <point x="329" y="719" type="curve" smooth="yes"/>
      <point x="358" y="719"/>
      <point x="375" y="700"/>
    </contour>
  </outline>
</glyph>
<glyph name="underscore" format="1">
  <advance width="603"/>
  <unicode hex="005F"/>
  <outline>
    <contour>
      <point x="118" y="-73" type="line"/>
      <point x="83" y="-73"/>
      <point x="-1" y="-73"/>
      <point x="-1" y="-154" type="curve" smooth="yes"/>
      <point x="-1" y="-165"/>
      <point x="3" y="-177"/>
      <point x="6" y="-183" type="curve"/>
      <point x="485" y="-183" type="line" smooth="yes"/>
      <point x="519" y="-183"/>
      <point x="603" y="-183"/>
      <point x="603" y="-99" type="curve" smooth="yes"/>
      <point x="603" y="-91"/>
      <point x="601" y="-79"/>
      <point x="599" y="-73" type="curve"/>
    </contour>
  </outline>
</glyph>
<glyph name="grave" format="1">
  <advance width="260"/>
  <unicode hex="0060"/>
  <outline>
    <contour>
      <point x="184" y="517" type="move" name="_top"/>
    </contour>
    <contour>
      <point x="89" y="660" type="curve" smooth="yes"/>
      <point x="175" y="586" type="line" smooth="yes"/>
      <point x="203" y="562"/>
      <point x="235" y="565"/>
      <point x="248" y="591" type="curve"/>
      <point x="181" y="698" type="line" smooth="yes"/>
      <point x="147" y="755"/>
      <point x="120" y="778"/>
      <point x="77" y="778" type="curve" smooth="yes"/>
      <point x="25" y="778"/>
      <point x="-2" y="728"/>
      <point x="20" y="677" type="curve"/>
      <point x="43" y="684"/>
      <point x="63" y="681"/>
    </contour>
  </outline>
</glyph>
<glyph name="a" format="1">
  <advance width="553"/>
  <unicode hex="0061"/>
  <outline>
    <contour>
      <point x="282" y="517" type="move" name="top"/>
    </contour>
    <contour>
      <point x="514" y="23" type="move" name="ogonek"/>
    </contour>
    <contour>
      <point x="474" y="355" type="line"/>
      <point x="474" y="476"/>
      <point x="389" y="527"/>
      <point x="276" y="527" type="curve" smooth="yes"/>
      <point x="167" y="527"/>
      <point x="69" y="485"/>
      <point x="69" y="407" type="curve" smooth="yes"/>
      <point x="69" y="371"/>
      <point x="97" y="341"/>
      <point x="150" y="341" type="curve" smooth="yes"/>
      <point x="179" y="341"/>
      <point x="205" y="351"/>
      <point x="224" y="369" type="curve"/>
      <point x="214" y="380"/>
      <point x="209" y="394"/>
      <point x="209" y="410" type="curve" smooth="yes"/>
      <point x="209" y="445"/>
      <point x="237" y="467"/>
      <point x="276" y="467" type="curve" smooth="yes"/>
      <point x="316" y="467"/>
      <point x="345" y="442"/>
      <point x="345" y="389" type="curve" smooth="yes"/>
      <point x="345" y="99" type="line" smooth="yes"/>
      <point x="345" y="25"/>
      <point x="373" y="-10"/>
      <point x="432" y="-10" type="curve" smooth="yes"/>
      <point x="473" y="-10"/>
      <point x="508" y="13"/>
      <point x="526" y="41" type="curve"/>
      <point x="494" y="49"/>
      <point x="474" y="71"/>
      <point x="474" y="113" type="curve" smooth="yes"/>
    </contour>
    <contour>
      <point x="356" y="232" type="curve"/>
      <point x="356" y="288" type="line"/>
      <point x="153" y="287"/>
      <point x="45" y="219"/>
      <point x="45" y="119" type="curve" smooth="yes"/>
      <point x="45" y="36"/>
      <point x="107" y="-10"/>
      <point x="193" y="-10" type="curve" smooth="yes"/>
      <point x="275" y="-10"/>
      <point x="334" y="34"/>
      <point x="366" y="86" type="curve"/>
      <point x="359" y="145" type="line"/>
      <point x="330" y="100"/>
      <point x="292" y="76"/>
      <point x="250" y="76" type="curve" smooth="yes"/>
      <point x="212" y="76"/>
      <point x="185" y="92"/>
      <point x="185" y="133" type="curve" smooth="yes"/>
      <point x="185" y="183"/>
      <point x="229" y="228"/>
    </contour>
  </outline>
</glyph>
<glyph name="b" format="1">
  <advance width="596"/>
  <unicode hex="0062"/>
  <outline>
    <contour>
      <point x="211" y="675" type="curve" smooth="yes"/>
      <point x="210" y="155" type="line" smooth="yes"/>
      <point x="210" y="90"/>
      <point x="244" y="65"/>
      <point x="298" y="65" type="curve" smooth="yes"/>
      <point x="382" y="65"/>
      <point x="438" y="141"/>
      <point x="438" y="261" type="curve" smooth="yes"/>
      <point x="438" y="378"/>
      <point x="385" y="435"/>
      <point x="321" y="435" type="curve" smooth="yes"/>
      <point x="275" y="435"/>
      <point x="229" y="406"/>
      <point x="205" y="347" type="curve"/>
      <point x="202" y="443" type="line"/>
      <point x="237" y="497"/>
      <point x="292" y="527"/>
      <point x="358" y="527" type="curve" smooth="yes"/>
      <point x="472" y="527"/>
      <point x="567" y="438"/>
      <point x="567" y="275" type="curve" smooth="yes"/>
      <point x="567" y="99"/>
      <point x="447" y="-10"/>
      <point x="292" y="-10" type="curve" smooth="yes"/>
      <point x="164" y="-10"/>
      <point x="81" y="30"/>
      <point x="81" y="155" type="curve" smooth="yes"/>
      <point x="82" y="678" type="line" smooth="yes"/>
      <point x="82" y="708"/>
      <point x="72" y="726"/>
      <point x="51" y="737" type="curve"/>
      <point x="69" y="759"/>
      <point x="95" y="775"/>
      <point x="129" y="775" type="curve" smooth="yes"/>
      <point x="185" y="775"/>
      <point x="211" y="742"/>
    </contour>
  </outline>
</glyph>
<glyph name="c" format="1">
  <advance width="511"/>
  <unicode hex="0063"/>
  <outline>
    <contour>
      <point x="256" y="517" type="move" name="top"/>
    </contour>
    <contour>
      <point x="256" y="0" type="move" name="bottom"/>
    </contour>
    <contour>
      <point x="471" y="417" type="curve" smooth="yes"/>
      <point x="471" y="484"/>
      <point x="399" y="527"/>
      <point x="314" y="527" type="curve" smooth="yes"/>
      <point x="160" y="527"/>
      <point x="49" y="396"/>
      <point x="49" y="237" type="curve" smooth="yes"/>
      <point x="49" y="82"/>
      <point x="145" y="-10"/>
      <point x="288" y="-10" type="curve" smooth="yes"/>
      <point x="387" y="-10"/>
      <point x="468" y="49"/>
      <point x="468" y="106" type="curve" smooth="yes"/>
      <point x="468" y="122"/>
      <point x="461" y="137"/>
      <point x="449" y="143" type="curve"/>
      <point x="418" y="110"/>
      <point x="372" y="84"/>
      <point x="310" y="84" type="curve" smooth="yes"/>
      <point x="236" y="84"/>
      <point x="174" y="139"/>
      <point x="174" y="255" type="curve" smooth="yes"/>
      <point x="174" y="376"/>
      <point x="234" y="450"/>
      <point x="294" y="450" type="curve" smooth="yes"/>
      <point x="331" y="450"/>
      <point x="349" y="425"/>
      <point x="349" y="392" type="curve" smooth="yes"/>
      <point x="349" y="385"/>
      <point x="348" y="374"/>
      <point x="346" y="366" type="curve"/>
      <point x="360" y="356"/>
      <point x="379" y="349"/>
      <point x="401" y="349" type="curve" smooth="yes"/>
      <point x="440" y="349"/>
      <point x="471" y="373"/>
    </contour>
  </outline>
</glyph>
<glyph name="d" format="1">
  <advance width="590"/>
  <unicode hex="0064"/>
  <outline>
    <contour>
      <point x="512" y="675" type="curve" smooth="yes"/>
      <point x="512" y="87" type="line" smooth="yes"/>
      <point x="512" y="57"/>
      <point x="522" y="39"/>
      <point x="542" y="29" type="curve"/>
      <point x="524" y="6"/>
      <point x="499" y="-10"/>
      <point x="465" y="-10" type="curve" smooth="yes"/>
      <point x="409" y="-10"/>
      <point x="383" y="23"/>
      <point x="383" y="90" type="curve" smooth="yes"/>
      <point x="383" y="678" type="line" smooth="yes"/>
      <point x="383" y="708"/>
      <point x="373" y="726"/>
      <point x="352" y="737" type="curve"/>
      <point x="370" y="759"/>
      <point x="396" y="775"/>
      <point x="429" y="775" type="curve" smooth="yes"/>
      <point x="486" y="775"/>
      <point x="512" y="742"/>
    </contour>
    <contour>
      <point x="420" y="494" type="curve"/>
      <point x="397" y="401" type="line"/>
      <point x="378" y="434"/>
      <point x="342" y="453"/>
      <point x="300" y="453" type="curve" smooth="yes"/>
      <point x="228" y="453"/>
      <point x="169" y="385"/>
      <point x="169" y="256" type="curve" smooth="yes"/>
      <point x="169" y="131"/>
      <point x="221" y="74"/>
      <point x="292" y="74" type="curve" smooth="yes"/>
      <point x="341" y="74"/>
      <point x="382" y="103"/>
      <point x="396" y="153" type="curve"/>
      <point x="410" y="81" type="line"/>
      <point x="387" y="25"/>
      <point x="323" y="-10"/>
      <point x="260" y="-10" type="curve" smooth="yes"/>
      <point x="141" y="-10"/>
      <point x="37" y="81"/>
      <point x="37" y="244" type="curve" smooth="yes"/>
      <point x="37" y="405"/>
      <point x="138" y="527"/>
      <point x="292" y="527" type="curve" smooth="yes"/>
      <point x="339" y="527"/>
      <point x="388" y="515"/>
    </contour>
  </outline>
</glyph>
<glyph name="e" format="1">
  <advance width="517"/>
  <unicode hex="0065"/>
  <outline>
    <contour>
      <point x="291" y="517" type="move" name="top"/>
    </contour>
    <contour>
      <point x="370" y="21" type="move" name="ogonek"/>
    </contour>
    <contour>
      <point x="259" y="0" type="move" name="bottom"/>
    </contour>
    <contour>
      <point x="485" y="351" type="curve" smooth="yes"/>
      <point x="485" y="282"/>
      <point x="453" y="253"/>
      <point x="372" y="251" type="curve" smooth="yes"/>
      <point x="164" y="244" type="line"/>
      <point x="164" y="307" type="line"/>
      <point x="317" y="322" type="line" smooth="yes"/>
      <point x="341" y="325"/>
      <point x="355" y="334"/>
      <point x="355" y="367" type="curve" smooth="yes"/>
      <point x="355" y="415"/>
      <point x="327" y="454"/>
      <point x="287" y="454" type="curve" smooth="yes"/>
      <point x="229" y="454"/>
      <point x="179" y="388"/>
      <point x="179" y="256" type="curve" smooth="yes"/>
      <point x="178" y="130"/>
      <point x="236" y="83"/>
      <point x="317" y="83" type="curve" smooth="yes"/>
      <point x="379" y="83"/>
      <point x="423" y="108"/>
      <point x="455" y="142" type="curve"/>
      <point x="467" y="136"/>
      <point x="474" y="121"/>
      <point x="474" y="106" type="curve" smooth="yes"/>
      <point x="474" y="52"/>
      <point x="395" y="-10"/>
      <point x="294" y="-10" type="curve" smooth="yes"/>
      <point x="145" y="-10"/>
      <point x="49" y="80"/>
      <point x="49" y="234" type="curve" smooth="yes"/>
      <point x="49" y="404"/>
      <point x="160" y="527"/>
      <point x="299" y="527" type="curve" smooth="yes"/>
      <point x="412" y="527"/>
      <point x="485" y="438"/>
    </contour>
  </outline>
</glyph>
<glyph name="f" format="1">
  <advance width="398"/>
  <unicode hex="0066"/>
  <outline>
    <contour>
      <point x="381" y="517" type="curve"/>
      <point x="114" y="517" type="line" smooth="yes"/>
      <point x="87" y="517"/>
      <point x="66" y="518"/>
      <point x="47" y="520" type="curve"/>
      <point x="37" y="512"/>
      <point x="29" y="498"/>
      <point x="29" y="482" type="curve" smooth="yes"/>
      <point x="29" y="456"/>
      <point x="50" y="433"/>
      <point x="145" y="433" type="curve" smooth="yes"/>
      <point x="261" y="433" type="line" smooth="yes"/>
      <point x="358" y="433"/>
      <point x="387" y="468"/>
      <point x="387" y="497" type="curve" smooth="yes"/>
      <point x="387" y="505"/>
      <point x="386" y="511"/>
    </contour>
    <contour>
      <point x="412" y="685" type="curve" smooth="yes"/>
      <point x="412" y="731"/>
      <point x="365" y="775"/>
      <point x="285" y="775" type="curve" smooth="yes"/>
      <point x="187" y="775"/>
      <point x="116" y="716"/>
      <point x="116" y="606" type="curve" smooth="yes"/>
      <point x="116" y="-81" type="line" smooth="yes"/>
      <point x="116" y="-153"/>
      <point x="97" y="-185"/>
      <point x="19" y="-185" type="curve"/>
      <point x="33" y="-226"/>
      <point x="62" y="-261"/>
      <point x="123" y="-261" type="curve" smooth="yes"/>
      <point x="190" y="-261"/>
      <point x="245" y="-215"/>
      <point x="245" y="-104" type="curve" smooth="yes"/>
      <point x="245" y="606" type="line" smooth="yes"/>
      <point x="245" y="665"/>
      <point x="274" y="687"/>
      <point x="310" y="687" type="curve" smooth="yes"/>
      <point x="342" y="687"/>
      <point x="367" y="670"/>
      <point x="387" y="648" type="curve"/>
      <point x="403" y="652"/>
      <point x="412" y="667"/>
    </contour>
  </outline>
</glyph>
<glyph name="g" format="1">
  <advance width="562"/>
  <unicode hex="0067"/>
  <outline>
    <contour>
      <point x="245" y="500" type="move" name="top"/>
    </contour>
    <contour>
      <point x="272" y="527" type="curve" smooth="yes"/>
      <point x="160" y="527"/>
      <point x="59" y="452"/>
      <point x="59" y="326" type="curve" smooth="yes"/>
      <point x="59" y="199"/>
      <point x="160" y="124"/>
      <point x="272" y="124" type="curve" smooth="yes"/>
      <point x="383" y="124"/>
      <point x="484" y="199"/>
      <point x="484" y="326" type="curve" smooth="yes"/>
      <point x="484" y="452"/>
      <point x="383" y="527"/>
    </contour>
    <contour>
      <point x="351" y="326" type="curve" smooth="yes"/>
      <point x="357" y="226"/>
      <point x="323" y="184"/>
      <point x="279" y="184" type="curve" smooth="yes"/>
      <point x="234" y="184"/>
      <point x="197" y="226"/>
      <point x="191" y="326" type="curve" smooth="yes"/>
      <point x="184" y="426"/>
      <point x="219" y="468"/>
      <point x="264" y="468" type="curve" smooth="yes"/>
      <point x="309" y="468"/>
      <point x="345" y="426"/>
    </contour>
    <contour>
      <point x="176" y="178" type="line"/>
      <point x="113" y="155"/>
      <point x="65" y="122"/>
      <point x="65" y="60" type="curve" smooth="yes"/>
      <point x="65" y="-27"/>
      <point x="153" y="-61"/>
      <point x="243" y="-61" type="curve" smooth="yes"/>
      <point x="390" y="-61" type="line" smooth="yes"/>
      <point x="423" y="-61"/>
      <point x="437" y="-74"/>
      <point x="437" y="-94" type="curve" smooth="yes"/>
      <point x="437" y="-134"/>
      <point x="383" y="-164"/>
      <point x="272" y="-164" type="curve" smooth="yes"/>
      <point x="153" y="-164"/>
      <point x="108" y="-126"/>
      <point x="105" y="-57" type="curve"/>
      <point x="63" y="-59"/>
      <point x="23" y="-85"/>
      <point x="23" y="-134" type="curve" smooth="yes"/>
      <point x="23" y="-193"/>
      <point x="83" y="-260"/>
      <point x="251" y="-260" type="curve" smooth="yes"/>
      <point x="416" y="-260"/>
      <point x="529" y="-180"/>
      <point x="529" y="-70" type="curve" smooth="yes"/>
      <point x="529" y="8"/>
      <point x="483" y="59"/>
      <point x="381" y="59" type="curve" smooth="yes"/>
      <point x="253" y="59" type="line" smooth="yes"/>
      <point x="194" y="59"/>
      <point x="167" y="67"/>
      <point x="167" y="100" type="curve" smooth="yes"/>
      <point x="167" y="130"/>
      <point x="200" y="142"/>
      <point x="248" y="142" type="curve"/>
    </contour>
    <contour>
      <point x="492" y="618" type="curve" smooth="yes"/>
      <point x="438" y="618"/>
      <point x="390" y="567"/>
      <point x="390" y="477" type="curve"/>
      <point x="432" y="434" type="line"/>
      <point x="432" y="476"/>
      <point x="458" y="505"/>
      <point x="491" y="505" type="curve" smooth="yes"/>
      <point x="508" y="505"/>
      <point x="526" y="499"/>
      <point x="540" y="488" type="curve"/>
      <point x="557" y="498"/>
      <point x="568" y="522"/>
      <point x="568" y="547" type="curve" smooth="yes"/>
      <point x="568" y="583"/>
      <point x="541" y="618"/>
    </contour>
  </outline>
</glyph>
<glyph name="h" format="1">
  <advance width="620"/>
  <unicode hex="0068"/>
  <outline>
    <contour>
      <point x="212" y="87" type="curve"/>
      <point x="212" y="675" type="line" smooth="yes"/>
      <point x="212" y="742"/>
      <point x="186" y="775"/>
      <point x="129" y="775" type="curve" smooth="yes"/>
      <point x="96" y="775"/>
      <point x="70" y="759"/>
      <point x="53" y="737" type="curve"/>
      <point x="73" y="726"/>
      <point x="83" y="708"/>
      <point x="83" y="678" type="curve" smooth="yes"/>
      <point x="83" y="90" type="line" smooth="yes"/>
      <point x="83" y="23"/>
      <point x="109" y="-10"/>
      <point x="165" y="-10" type="curve" smooth="yes"/>
      <point x="199" y="-10"/>
      <point x="224" y="6"/>
      <point x="242" y="29" type="curve"/>
      <point x="222" y="39"/>
      <point x="212" y="57"/>
    </contour>
    <contour>
      <point x="542" y="350" type="line"/>
      <point x="542" y="470"/>
      <point x="481" y="527"/>
      <point x="392" y="527" type="curve" smooth="yes"/>
      <point x="303" y="527"/>
      <point x="226" y="472"/>
      <point x="198" y="381" type="curve"/>
      <point x="207" y="266" type="line"/>
      <point x="221" y="370"/>
      <point x="283" y="422"/>
      <point x="337" y="422" type="curve" smooth="yes"/>
      <point x="389" y="422"/>
      <point x="413" y="388"/>
      <point x="413" y="334" type="curve" smooth="yes"/>
      <point x="413" y="90" type="line" smooth="yes"/>
      <point x="413" y="23"/>
      <point x="439" y="-10"/>
      <point x="495" y="-10" type="curve" smooth="yes"/>
      <point x="530" y="-10"/>
      <point x="554" y="6"/>
      <point x="572" y="29" type="curve"/>
      <point x="552" y="39"/>
      <point x="542" y="57"/>
      <point x="542" y="87" type="curve" smooth="yes"/>
    </contour>
  </outline>
</glyph>
<glyph name="i" format="1">
  <advance width="291"/>
  <unicode hex="0069"/>
  <outline>
    <contour>
      <point x="224" y="14" type="move" name="ogonek"/>
    </contour>
    <contour>
      <point x="212" y="87" type="curve"/>
      <point x="212" y="427" type="line" smooth="yes"/>
      <point x="212" y="495"/>
      <point x="186" y="527"/>
      <point x="129" y="527" type="curve" smooth="yes"/>
      <point x="96" y="527"/>
      <point x="70" y="511"/>
      <point x="53" y="489" type="curve"/>
      <point x="73" y="479"/>
      <point x="83" y="460"/>
      <point x="83" y="430" type="curve" smooth="yes"/>
      <point x="83" y="90" type="line" smooth="yes"/>
      <point x="83" y="23"/>
      <point x="109" y="-10"/>
      <point x="165" y="-10" type="curve" smooth="yes"/>
      <point x="199" y="-10"/>
      <point x="224" y="6"/>
      <point x="242" y="29" type="curve"/>
      <point x="222" y="39"/>
      <point x="212" y="57"/>
    </contour>
    <contour>
      <point x="231" y="692" type="curve" smooth="yes"/>
      <point x="231" y="734"/>
      <point x="197" y="764"/>
      <point x="154" y="764" type="curve" smooth="yes"/>
      <point x="112" y="764"/>
      <point x="57" y="730"/>
      <point x="57" y="673" type="curve" smooth="yes"/>
      <point x="57" y="634"/>
      <point x="90" y="601"/>
      <point x="135" y="601" type="curve" smooth="yes"/>
      <point x="188" y="601"/>
      <point x="231" y="645"/>
    </contour>
  </outline>
</glyph>
<glyph name="j" format="1">
  <advance width="289"/>
  <unicode hex="006A"/>
  <outline>
    <contour>
      <point x="231" y="692" type="curve" smooth="yes"/>
      <point x="231" y="645"/>
      <point x="188" y="601"/>
      <point x="135" y="601" type="curve" smooth="yes"/>
      <point x="90" y="601"/>
      <point x="57" y="634"/>
      <point x="57" y="673" type="curve" smooth="yes"/>
      <point x="57" y="730"/>
      <point x="112" y="764"/>
      <point x="154" y="764" type="curve" smooth="yes"/>
      <point x="197" y="764"/>
      <point x="231" y="734"/>
    </contour>
    <contour>
      <point x="212" y="-104" type="line"/>
      <point x="212" y="-215"/>
      <point x="156" y="-261"/>
      <point x="91" y="-261" type="curve" smooth="yes"/>
      <point x="30" y="-261"/>
      <point x="0" y="-226"/>
      <point x="-14" y="-185" type="curve"/>
      <point x="64" y="-185"/>
      <point x="83" y="-153"/>
      <point x="83" y="-81" type="curve" smooth="yes"/>
      <point x="83" y="430" type="line"/>
      <point x="83" y="460"/>
      <point x="73" y="479"/>
      <point x="53" y="489" type="curve"/>
      <point x="70" y="511"/>
      <point x="96" y="527"/>
      <point x="129" y="527" type="curve" smooth="yes"/>
      <point x="186" y="527"/>
      <point x="212" y="495"/>
      <point x="212" y="427" type="curve"/>
    </contour>
  </outline>
</glyph>
<glyph name="k" format="1">
  <advance width="608"/>
  <unicode hex="006B"/>
  <outline>
    <contour>
      <point x="306" y="0" type="move" name="bottom"/>
    </contour>
    <contour>
      <point x="212" y="87" type="curve" smooth="yes"/>
      <point x="212" y="675" type="line" smooth="yes"/>
      <point x="212" y="742"/>
      <point x="186" y="775"/>
      <point x="129" y="775" type="curve" smooth="yes"/>
      <point x="96" y="775"/>
      <point x="70" y="759"/>
      <point x="53" y="737" type="curve"/>
      <point x="73" y="726"/>
      <point x="83" y="708"/>
      <point x="83" y="678" type="curve" smooth="yes"/>
      <point x="83" y="90" type="line" smooth="yes"/>
      <point x="83" y="23"/>
      <point x="109" y="-10"/>
      <point x="165" y="-10" type="curve" smooth="yes"/>
      <point x="199" y="-10"/>
      <point x="224" y="6"/>
      <point x="242" y="29" type="curve"/>
      <point x="222" y="39"/>
      <point x="212" y="57"/>
    </contour>
    <contour>
      <point x="201" y="320" type="curve"/>
      <point x="201" y="291" type="line"/>
      <point x="334" y="60"/>
      <point x="391" y="-10"/>
      <point x="470" y="-10" type="curve" smooth="yes"/>
      <point x="528" y="-10"/>
      <point x="562" y="34"/>
      <point x="562" y="101" type="curve"/>
      <point x="490" y="101"/>
      <point x="446" y="118"/>
      <point x="272" y="310" type="curve"/>
      <point x="267" y="279" type="line"/>
      <point x="411" y="287"/>
      <point x="543" y="355"/>
      <point x="543" y="438" type="curve" smooth="yes"/>
      <point x="543" y="494"/>
      <point x="492" y="527"/>
      <point x="419" y="527" type="curve"/>
      <point x="419" y="433"/>
      <point x="386" y="373"/>
    </contour>
  </outline>
</glyph>
<glyph name="l" format="1">
  <advance width="295"/>
  <unicode hex="006C"/>
  <outline>
    <contour>
      <point x="168" y="760" type="move" name="top"/>
    </contour>
    <contour>
      <point x="269" y="700" type="move" name="topright"/>
    </contour>
    <contour>
      <point x="151" y="0" type="move" name="bottom"/>
    </contour>
    <contour>
      <point x="212" y="87" type="curve"/>
      <point x="212" y="675" type="line" smooth="yes"/>
      <point x="212" y="742"/>
      <point x="186" y="775"/>
      <point x="129" y="775" type="curve" smooth="yes"/>
      <point x="96" y="775"/>
      <point x="70" y="759"/>
      <point x="53" y="737" type="curve"/>
      <point x="73" y="726"/>
      <point x="83" y="708"/>
      <point x="83" y="678" type="curve" smooth="yes"/>
      <point x="83" y="90" type="line" smooth="yes"/>
      <point x="83" y="23"/>
      <point x="109" y="-10"/>
      <point x="165" y="-10" type="curve" smooth="yes"/>
      <point x="199" y="-10"/>
      <point x="224" y="6"/>
      <point x="242" y="29" type="curve"/>
      <point x="222" y="39"/>
      <point x="212" y="57"/>
    </contour>
  </outline>
</glyph>
<glyph name="m" format="1">
  <advance width="951"/>
  <unicode hex="006D"/>
  <outline>
    <contour>
      <point x="212" y="87" type="curve"/>
      <point x="212" y="427" type="line" smooth="yes"/>
      <point x="212" y="495"/>
      <point x="186" y="527"/>
      <point x="129" y="527" type="curve" smooth="yes"/>
      <point x="96" y="527"/>
      <point x="70" y="511"/>
      <point x="53" y="489" type="curve"/>
      <point x="73" y="479"/>
      <point x="83" y="460"/>
      <point x="83" y="430" type="curve" smooth="yes"/>
      <point x="83" y="90" type="line" smooth="yes"/>
      <point x="83" y="23"/>
      <point x="109" y="-10"/>
      <point x="165" y="-10" type="curve" smooth="yes"/>
      <point x="199" y="-10"/>
      <point x="224" y="6"/>
      <point x="242" y="29" type="curve"/>
      <point x="222" y="39"/>
      <point x="212" y="57"/>
    </contour>
    <contour>
      <point x="542" y="350" type="line"/>
      <point x="542" y="470"/>
      <point x="481" y="527"/>
      <point x="392" y="527" type="curve" smooth="yes"/>
      <point x="303" y="527"/>
      <point x="226" y="472"/>
      <point x="198" y="381" type="curve"/>
      <point x="207" y="266" type="line"/>
      <point x="221" y="370"/>
      <point x="283" y="422"/>
      <point x="337" y="422" type="curve" smooth="yes"/>
      <point x="389" y="422"/>
      <point x="413" y="388"/>
      <point x="413" y="334" type="curve" smooth="yes"/>
      <point x="413" y="90" type="line" smooth="yes"/>
      <point x="413" y="23"/>
      <point x="439" y="-10"/>
      <point x="495" y="-10" type="curve" smooth="yes"/>
      <point x="530" y="-10"/>
      <point x="554" y="6"/>
      <point x="572" y="29" type="curve"/>
      <point x="552" y="39"/>
      <point x="542" y="57"/>
      <point x="542" y="87" type="curve" smooth="yes"/>
    </contour>
    <contour>
      <point x="872" y="350" type="line"/>
      <point x="872" y="470"/>
      <point x="810" y="527"/>
      <point x="722" y="527" type="curve" smooth="yes"/>
      <point x="633" y="527"/>
      <point x="556" y="472"/>
      <point x="528" y="381" type="curve"/>
      <point x="537" y="266" type="line"/>
      <point x="551" y="370"/>
      <point x="614" y="422"/>
      <point x="667" y="422" type="curve" smooth="yes"/>
      <point x="719" y="422"/>
      <point x="743" y="388"/>
      <point x="743" y="334" type="curve" smooth="yes"/>
      <point x="743" y="90" type="line" smooth="yes"/>
      <point x="743" y="23"/>
      <point x="769" y="-10"/>
      <point x="825" y="-10" type="curve" smooth="yes"/>
      <point x="859" y="-10"/>
      <point x="885" y="6"/>
      <point x="902" y="29" type="curve"/>
      <point x="881" y="39"/>
      <point x="872" y="57"/>
      <point x="872" y="87" type="curve" smooth="yes"/>
    </contour>
  </outline>
</glyph>
<glyph name="n" format="1">
  <advance width="620"/>
  <unicode hex="006E"/>
  <outline>
    <contour>
      <point x="315" y="517" type="move" name="top"/>
    </contour>
    <contour>
      <point x="329" y="0" type="move" name="bottom"/>
    </contour>
    <contour>
      <point x="212" y="87" type="curve" smooth="yes"/>
      <point x="212" y="427" type="line" smooth="yes"/>
      <point x="212" y="495"/>
      <point x="186" y="527"/>
      <point x="129" y="527" type="curve" smooth="yes"/>
      <point x="96" y="527"/>
      <point x="70" y="511"/>
      <point x="53" y="489" type="curve"/>
      <point x="73" y="479"/>
      <point x="83" y="460"/>
      <point x="83" y="430" type="curve" smooth="yes"/>
      <point x="83" y="90" type="line" smooth="yes"/>
      <point x="83" y="23"/>
      <point x="109" y="-10"/>
      <point x="165" y="-10" type="curve" smooth="yes"/>
      <point x="199" y="-10"/>
      <point x="224" y="6"/>
      <point x="242" y="29" type="curve"/>
      <point x="222" y="39"/>
      <point x="212" y="57"/>
    </contour>
    <contour>
      <point x="542" y="350" type="line"/>
      <point x="542" y="470"/>
      <point x="481" y="527"/>
      <point x="392" y="527" type="curve" smooth="yes"/>
      <point x="303" y="527"/>
      <point x="226" y="472"/>
      <point x="198" y="381" type="curve"/>
      <point x="207" y="266" type="line"/>
      <point x="221" y="370"/>
      <point x="283" y="422"/>
      <point x="337" y="422" type="curve" smooth="yes"/>
      <point x="389" y="422"/>
      <point x="413" y="388"/>
      <point x="413" y="334" type="curve" smooth="yes"/>
      <point x="413" y="90" type="line" smooth="yes"/>
      <point x="413" y="23"/>
      <point x="439" y="-10"/>
      <point x="495" y="-10" type="curve" smooth="yes"/>
      <point x="530" y="-10"/>
      <point x="554" y="6"/>
      <point x="572" y="29" type="curve"/>
      <point x="552" y="39"/>
      <point x="542" y="57"/>
      <point x="542" y="87" type="curve" smooth="yes"/>
    </contour>
  </outline>
</glyph>
<glyph name="o" format="1">
  <advance width="597"/>
  <unicode hex="006F"/>
  <outline>
    <contour>
      <point x="298" y="517" type="move" name="top"/>
    </contour>
    <contour>
      <point x="548" y="259" type="curve" smooth="yes"/>
      <point x="548" y="437"/>
      <point x="437" y="527"/>
      <point x="299" y="527" type="curve" smooth="yes"/>
      <point x="160" y="527"/>
      <point x="49" y="438"/>
      <point x="49" y="259" type="curve" smooth="yes"/>
      <point x="49" y="81"/>
      <point x="160" y="-10"/>
      <point x="299" y="-10" type="curve" smooth="yes"/>
      <point x="437" y="-10"/>
      <point x="548" y="81"/>
    </contour>
    <contour>
      <point x="182" y="259" type="curve" smooth="yes"/>
      <point x="173" y="405"/>
      <point x="218" y="459"/>
      <point x="288" y="459" type="curve" smooth="yes"/>
      <point x="357" y="459"/>
      <point x="406" y="405"/>
      <point x="415" y="259" type="curve" smooth="yes"/>
      <point x="423" y="114"/>
      <point x="380" y="58"/>
      <point x="310" y="58" type="curve" smooth="yes"/>
      <point x="240" y="58"/>
      <point x="190" y="114"/>
    </contour>
  </outline>
</glyph>
<glyph name="p" format="1">
  <advance width="601"/>
  <unicode hex="0070"/>
  <outline>
    <contour>
      <point x="567" y="259" type="curve" smooth="yes"/>
      <point x="567" y="85"/>
      <point x="447" y="-10"/>
      <point x="334" y="-10" type="curve" smooth="yes"/>
      <point x="284" y="-10"/>
      <point x="237" y="6"/>
      <point x="198" y="42" type="curve"/>
      <point x="205" y="129" type="line"/>
      <point x="237" y="84"/>
      <point x="270" y="69"/>
      <point x="315" y="69" type="curve" smooth="yes"/>
      <point x="379" y="69"/>
      <point x="437" y="143"/>
      <point x="437" y="259" type="curve" smooth="yes"/>
      <point x="437" y="375"/>
      <point x="382" y="435"/>
      <point x="318" y="435" type="curve" smooth="yes"/>
      <point x="271" y="435"/>
      <point x="229" y="404"/>
      <point x="205" y="348" type="curve"/>
      <point x="202" y="444" type="line"/>
      <point x="240" y="498"/>
      <point x="290" y="527"/>
      <point x="357" y="527" type="curve" smooth="yes"/>
      <point x="471" y="527"/>
      <point x="567" y="436"/>
    </contour>
    <contour>
      <point x="212" y="427" type="curve" smooth="yes"/>
      <point x="212" y="-163" type="line" smooth="yes"/>
      <point x="212" y="-193"/>
      <point x="222" y="-211"/>
      <point x="242" y="-221" type="curve"/>
      <point x="224" y="-244"/>
      <point x="199" y="-261"/>
      <point x="165" y="-261" type="curve" smooth="yes"/>
      <point x="109" y="-261"/>
      <point x="83" y="-227"/>
      <point x="83" y="-160" type="curve" smooth="yes"/>
      <point x="83" y="430" type="line" smooth="yes"/>
      <point x="83" y="460"/>
      <point x="73" y="479"/>
      <point x="53" y="489" type="curve"/>
      <point x="70" y="511"/>
      <point x="96" y="527"/>
      <point x="129" y="527" type="curve" smooth="yes"/>
      <point x="186" y="527"/>
      <point x="212" y="495"/>
    </contour>
  </outline>
</glyph>
<glyph name="q" format="1">
  <advance width="575"/>
  <unicode hex="0071"/>
  <outline>
    <contour>
      <point x="436" y="433" type="line"/>
      <point x="414" y="483"/>
      <point x="358" y="527"/>
      <point x="287" y="527" type="curve" smooth="yes"/>
      <point x="130" y="527"/>
      <point x="37" y="394"/>
      <point x="37" y="244" type="curve" smooth="yes"/>
      <point x="37" y="83"/>
      <point x="143" y="-10"/>
      <point x="258" y="-10" type="curve" smooth="yes"/>
      <point x="333" y="-10"/>
      <point x="381" y="30"/>
      <point x="411" y="79" type="curve"/>
      <point x="392" y="144" type="line"/>
      <point x="372" y="101"/>
      <point x="332" y="74"/>
      <point x="285" y="74" type="curve" smooth="yes"/>
      <point x="220" y="74"/>
      <point x="170" y="131"/>
      <point x="170" y="256" type="curve" smooth="yes"/>
      <point x="170" y="385"/>
      <point x="224" y="453"/>
      <point x="294" y="453" type="curve" smooth="yes"/>
      <point x="339" y="453"/>
      <point x="383" y="421"/>
      <point x="383" y="358" type="curve"/>
    </contour>
    <contour>
      <point x="512" y="527" type="line"/>
      <point x="480" y="527" type="line" smooth="yes"/>
      <point x="415" y="527"/>
      <point x="383" y="495"/>
      <point x="383" y="408" type="curve"/>
      <point x="383" y="-160" type="line" smooth="yes"/>
      <point x="383" y="-227"/>
      <point x="409" y="-261"/>
      <point x="465" y="-261" type="curve" smooth="yes"/>
      <point x="499" y="-261"/>
      <point x="524" y="-244"/>
      <point x="542" y="-221" type="curve"/>
      <point x="522" y="-211"/>
      <point x="512" y="-193"/>
      <point x="512" y="-163" type="curve" smooth="yes"/>
    </contour>
  </outline>
</glyph>
<glyph name="r" format="1">
  <advance width="466"/>
  <unicode hex="0072"/>
  <outline>
    <contour>
      <point x="233" y="500" type="move" name="top"/>
    </contour>
    <contour>
      <point x="161" y="0" type="move" name="bottom"/>
    </contour>
    <contour>
      <point x="212" y="427" type="line"/>
      <point x="212" y="495"/>
      <point x="186" y="527"/>
      <point x="129" y="527" type="curve" smooth="yes"/>
      <point x="96" y="527"/>
      <point x="70" y="511"/>
      <point x="53" y="489" type="curve"/>
      <point x="73" y="479"/>
      <point x="83" y="460"/>
      <point x="83" y="430" type="curve" smooth="yes"/>
      <point x="83" y="90" type="line" smooth="yes"/>
      <point x="83" y="23"/>
      <point x="109" y="-10"/>
      <point x="165" y="-10" type="curve" smooth="yes"/>
      <point x="199" y="-10"/>
      <point x="224" y="6"/>
      <point x="242" y="29" type="curve"/>
      <point x="222" y="39"/>
      <point x="212" y="57"/>
      <point x="212" y="87" type="curve" smooth="yes"/>
    </contour>
    <contour>
      <point x="452" y="432" type="curve" smooth="yes"/>
      <point x="452" y="489"/>
      <point x="410" y="527"/>
      <point x="347" y="527" type="curve" smooth="yes"/>
      <point x="265" y="527"/>
      <point x="212" y="469"/>
      <point x="193" y="360" type="curve"/>
      <point x="208" y="300" type="line"/>
      <point x="220" y="394"/>
      <point x="264" y="425"/>
      <point x="299" y="425" type="curve" smooth="yes"/>
      <point x="328" y="425"/>
      <point x="349" y="406"/>
      <point x="349" y="373" type="curve" smooth="yes"/>
      <point x="349" y="365"/>
      <point x="348" y="358"/>
      <point x="346" y="348" type="curve"/>
      <point x="355" y="347"/>
      <point x="363" y="346"/>
      <point x="371" y="346" type="curve" smooth="yes"/>
      <point x="424" y="346"/>
      <point x="452" y="380"/>
    </contour>
  </outline>
</glyph>
<glyph name="t" format="1">
  <advance width="420"/>
  <unicode hex="0074"/>
  <outline>
    <contour>
      <point x="188" y="735" type="move" name="topright"/>
    </contour>
    <contour>
      <point x="234" y="0" type="move" name="bottom"/>
    </contour>
    <contour>
      <point x="216" y="563" type="line"/>
      <point x="216" y="631"/>
      <point x="189" y="663"/>
      <point x="132" y="663" type="curve" smooth="yes"/>
      <point x="100" y="663"/>
      <point x="74" y="647"/>
      <point x="56" y="625" type="curve"/>
      <point x="76" y="615"/>
      <point x="87" y="596"/>
      <point x="87" y="566" type="curve" smooth="yes"/>
      <point x="87" y="133" type="line" smooth="yes"/>
      <point x="87" y="35"/>
      <point x="147" y="-10"/>
      <point x="240" y="-10" type="curve" smooth="yes"/>
      <point x="334" y="-10"/>
      <point x="403" y="45"/>
      <point x="403" y="94" type="curve" smooth="yes"/>
      <point x="403" y="116"/>
      <point x="390" y="130"/>
      <point x="376" y="131" type="curve"/>
      <point x="348" y="101"/>
      <point x="309" y="81"/>
      <point x="270" y="81" type="curve" smooth="yes"/>
      <point x="232" y="81"/>
      <point x="216" y="100"/>
      <point x="216" y="146" type="curve" smooth="yes"/>
    </contour>
    <contour>
      <point x="373" y="517" type="curve"/>
      <point x="81" y="517" type="line" smooth="yes"/>
      <point x="61" y="517"/>
      <point x="44" y="519"/>
      <point x="29" y="521" type="curve"/>
      <point x="18" y="513"/>
      <point x="11" y="498"/>
      <point x="11" y="482" type="curve" smooth="yes"/>
      <point x="11" y="461"/>
      <point x="31" y="434"/>
      <point x="89" y="433" type="curve" smooth="yes"/>
      <point x="226" y="433" type="line" smooth="yes"/>
      <point x="350" y="433"/>
      <point x="379" y="469"/>
      <point x="379" y="498" type="curve" smooth="yes"/>
      <point x="379" y="506"/>
      <point x="377" y="511"/>
    </contour>
  </outline>
</glyph>
<glyph name="u" format="1">
  <advance width="620"/>
  <unicode hex="0075"/>
  <outline>
    <contour>
      <point x="310" y="517" type="move" name="top"/>
    </contour>
    <contour>
      <point x="558" y="12" type="move" name="ogonek"/>
    </contour>
    <contour>
      <point x="542" y="427" type="line"/>
      <point x="542" y="495"/>
      <point x="516" y="527"/>
      <point x="459" y="527" type="curve" smooth="yes"/>
      <point x="426" y="527"/>
      <point x="401" y="511"/>
      <point x="383" y="489" type="curve"/>
      <point x="403" y="479"/>
      <point x="413" y="460"/>
      <point x="413" y="430" type="curve" smooth="yes"/>
      <point x="413" y="90" type="line" smooth="yes"/>
      <point x="413" y="23"/>
      <point x="439" y="-10"/>
      <point x="495" y="-10" type="curve" smooth="yes"/>
      <point x="530" y="-10"/>
      <point x="554" y="6"/>
      <point x="572" y="29" type="curve"/>
      <point x="552" y="39"/>
      <point x="542" y="57"/>
      <point x="542" y="87" type="curve" smooth="yes"/>
    </contour>
    <contour>
      <point x="212" y="427" type="line"/>
      <point x="212" y="495"/>
      <point x="186" y="527"/>
      <point x="129" y="527" type="curve" smooth="yes"/>
      <point x="96" y="527"/>
      <point x="70" y="511"/>
      <point x="53" y="489" type="curve"/>
      <point x="73" y="479"/>
      <point x="83" y="460"/>
      <point x="83" y="430" type="curve" smooth="yes"/>
      <point x="83" y="167" type="line" smooth="yes"/>
      <point x="83" y="47"/>
      <point x="153" y="-10"/>
      <point x="263" y="-10" type="curve" smooth="yes"/>
      <point x="351" y="-10"/>
      <point x="413" y="46"/>
      <point x="439" y="132" type="curve"/>
      <point x="418" y="193" type="line"/>
      <point x="398" y="125"/>
      <point x="355" y="91"/>
      <point x="300" y="91" type="curve" smooth="yes"/>
      <point x="237" y="91"/>
      <point x="212" y="125"/>
      <point x="212" y="179" type="curve" smooth="yes"/>
    </contour>
  </outline>
</glyph>
<glyph name="v" format="1">
  <advance width="587"/>
  <unicode hex="0076"/>
  <outline>
    <contour>
      <point x="184" y="431" type="curve"/>
      <point x="288" y="50" type="line"/>
      <point x="266" y="78" type="line"/>
      <point x="366" y="168"/>
      <point x="448" y="394"/>
      <point x="388" y="501" type="curve"/>
      <point x="409" y="518"/>
      <point x="432" y="527"/>
      <point x="460" y="527" type="curve" smooth="yes"/>
      <point x="503" y="527"/>
      <point x="541" y="491"/>
      <point x="541" y="403" type="curve" smooth="yes"/>
      <point x="541" y="220"/>
      <point x="355" y="-10"/>
      <point x="266" y="-10" type="curve" smooth="yes"/>
      <point x="203" y="-10"/>
      <point x="180" y="24"/>
      <point x="156" y="95" type="curve" smooth="yes"/>
      <point x="51" y="408" type="line"/>
      <point x="40" y="443"/>
      <point x="28" y="471"/>
      <point x="7" y="479" type="curve"/>
      <point x="23" y="510"/>
      <point x="51" y="527"/>
      <point x="85" y="527" type="curve" smooth="yes"/>
      <point x="139" y="527"/>
      <point x="166" y="499"/>
    </contour>
  </outline>
</glyph>
<glyph name="w" format="1">
  <advance width="871"/>
  <unicode hex="0077"/>
  <outline>
    <contour>
      <point x="183" y="431" type="curve" smooth="yes"/>
      <point x="306" y="16" type="line"/>
      <point x="257" y="61" type="line"/>
      <point x="329" y="123"/>
      <point x="387" y="280"/>
      <point x="411" y="433" type="curve"/>
      <point x="479" y="354" type="line"/>
      <point x="448" y="171"/>
      <point x="358" y="-10"/>
      <point x="274" y="-10" type="curve" smooth="yes"/>
      <point x="210" y="-10"/>
      <point x="186" y="25"/>
      <point x="161" y="95" type="curve" smooth="yes"/>
      <point x="52" y="408" type="line" smooth="yes"/>
      <point x="39" y="444"/>
      <point x="31" y="465"/>
      <point x="7" y="474" type="curve"/>
      <point x="24" y="509"/>
      <point x="52" y="527"/>
      <point x="92" y="527" type="curve" smooth="yes"/>
      <point x="137" y="527"/>
      <point x="162" y="497"/>
    </contour>
    <contour>
      <point x="511" y="431" type="curve"/>
      <point x="616" y="50" type="line"/>
      <point x="594" y="78" type="line"/>
      <point x="695" y="168"/>
      <point x="738" y="402"/>
      <point x="678" y="509" type="curve"/>
      <point x="696" y="522"/>
      <point x="730" y="527"/>
      <point x="750" y="527" type="curve" smooth="yes"/>
      <point x="793" y="527"/>
      <point x="831" y="491"/>
      <point x="831" y="403" type="curve" smooth="yes"/>
      <point x="831" y="220"/>
      <point x="683" y="-10"/>
      <point x="594" y="-10" type="curve" smooth="yes"/>
      <point x="532" y="-10"/>
      <point x="508" y="24"/>
      <point x="484" y="95" type="curve" smooth="yes"/>
      <point x="378" y="408" type="line"/>
      <point x="366" y="443"/>
      <point x="355" y="471"/>
      <point x="334" y="479" type="curve"/>
      <point x="350" y="510"/>
      <point x="377" y="527"/>
      <point x="412" y="527" type="curve" smooth="yes"/>
      <point x="466" y="527"/>
      <point x="493" y="499"/>
    </contour>
  </outline>
</glyph>
<glyph name="x" format="1">
  <advance width="554"/>
  <unicode hex="0078"/>
  <outline>
    <contour>
      <point x="231" y="278" type="line"/>
      <point x="87" y="92" type="line" smooth="yes"/>
      <point x="67" y="67"/>
      <point x="58" y="58"/>
      <point x="32" y="58" type="curve"/>
      <point x="36" y="12"/>
      <point x="72" y="-10"/>
      <point x="109" y="-10" type="curve" smooth="yes"/>
      <point x="153" y="-10"/>
      <point x="180" y="6"/>
      <point x="238" y="145" type="curve" smooth="yes"/>
      <point x="287" y="241" type="line"/>
    </contour>
    <contour>
      <point x="200" y="471" type="line"/>
      <point x="173" y="508"/>
      <point x="144" y="527"/>
      <point x="105" y="527" type="curve" smooth="yes"/>
      <point x="66" y="527"/>
      <point x="32" y="505"/>
      <point x="32" y="460" type="curve"/>
      <point x="48" y="460"/>
      <point x="58" y="453"/>
      <point x="70" y="437" type="curve" smooth="yes"/>
      <point x="354" y="47" type="line" smooth="yes"/>
      <point x="381" y="10"/>
      <point x="410" y="-10"/>
      <point x="449" y="-10" type="curve" smooth="yes"/>
      <point x="488" y="-10"/>
      <point x="522" y="13"/>
      <point x="522" y="58" type="curve"/>
      <point x="506" y="58"/>
      <point x="495" y="64"/>
      <point x="484" y="81" type="curve" smooth="yes"/>
    </contour>
    <contour>
      <point x="323" y="240" type="line"/>
      <point x="467" y="426" type="line" smooth="yes"/>
      <point x="486" y="450"/>
      <point x="496" y="459"/>
      <point x="522" y="460" type="curve"/>
      <point x="517" y="505"/>
      <point x="482" y="527"/>
      <point x="445" y="527" type="curve" smooth="yes"/>
      <point x="400" y="527"/>
      <point x="374" y="512"/>
      <point x="316" y="373" type="curve" smooth="yes"/>
      <point x="266" y="276" type="line"/>
    </contour>
  </outline>
</glyph>
<glyph name="y" format="1">
  <advance width="598"/>
  <unicode hex="0079"/>
  <outline>
    <contour>
      <point x="284" y="517" type="move" name="top"/>
    </contour>
    <contour>
      <point x="543" y="398" type="line"/>
      <point x="575" y="482"/>
      <point x="532" y="527"/>
      <point x="477" y="527" type="curve" smooth="yes"/>
      <point x="456" y="527"/>
      <point x="435" y="521"/>
      <point x="419" y="511" type="curve"/>
      <point x="434" y="490"/>
      <point x="435" y="463"/>
      <point x="422" y="425" type="curve" smooth="yes"/>
      <point x="240" y="-97" type="line" smooth="yes"/>
      <point x="226" y="-136"/>
      <point x="200" y="-153"/>
      <point x="172" y="-153" type="curve" smooth="yes"/>
      <point x="153" y="-153"/>
      <point x="135" y="-145"/>
      <point x="120" y="-132" type="curve"/>
      <point x="111" y="-146"/>
      <point x="104" y="-163"/>
      <point x="104" y="-182" type="curve" smooth="yes"/>
      <point x="104" y="-227"/>
      <point x="141" y="-261"/>
      <point x="200" y="-261" type="curve" smooth="yes"/>
      <point x="261" y="-261"/>
      <point x="309" y="-226"/>
      <point x="342" y="-137" type="curve" smooth="yes"/>
    </contour>
    <contour>
      <point x="189" y="433" type="line"/>
      <point x="171" y="497"/>
      <point x="144" y="527"/>
      <point x="96" y="527" type="curve" smooth="yes"/>
      <point x="64" y="527"/>
      <point x="38" y="514"/>
      <point x="17" y="491" type="curve"/>
      <point x="37" y="476"/>
      <point x="45" y="455"/>
      <point x="56" y="421" type="curve" smooth="yes"/>
      <point x="167" y="81" type="line" smooth="yes"/>
      <point x="191" y="4"/>
      <point x="254" y="-32"/>
      <point x="316" y="5" type="curve"/>
    </contour>
  </outline>
</glyph>
<glyph name="z" format="1">
  <advance width="503"/>
  <unicode hex="007A"/>
  <outline>
    <contour>
      <point x="252" y="517" type="move" name="top"/>
    </contour>
    <contour>
      <point x="353" y="517" type="curve" smooth="yes"/>
      <point x="169" y="517" type="line" smooth="yes"/>
      <point x="129" y="517"/>
      <point x="96" y="521"/>
      <point x="71" y="527" type="curve"/>
      <point x="61" y="515"/>
      <point x="54" y="498"/>
      <point x="54" y="481" type="curve" smooth="yes"/>
      <point x="54" y="444"/>
      <point x="87" y="409"/>
      <point x="171" y="409" type="curve" smooth="yes"/>
      <point x="226" y="409"/>
      <point x="304" y="417"/>
      <point x="376" y="429" type="curve"/>
      <point x="367" y="442" type="line"/>
      <point x="109" y="227" type="line" smooth="yes"/>
      <point x="60" y="188"/>
      <point x="44" y="160"/>
      <point x="44" y="125" type="curve" smooth="yes"/>
      <point x="44" y="45"/>
      <point x="147" y="-10"/>
      <point x="278" y="-10" type="curve" smooth="yes"/>
      <point x="429" y="-10"/>
      <point x="471" y="56"/>
      <point x="471" y="98" type="curve" smooth="yes"/>
      <point x="471" y="130"/>
      <point x="456" y="156"/>
      <point x="426" y="170" type="curve"/>
      <point x="404" y="127"/>
      <point x="359" y="101"/>
      <point x="294" y="101" type="curve" smooth="yes"/>
      <point x="224" y="101"/>
      <point x="170" y="111"/>
      <point x="118" y="140" type="curve"/>
      <point x="90" y="87" type="line"/>
      <point x="416" y="345" type="line" smooth="yes"/>
      <point x="452" y="372"/>
      <point x="461" y="399"/>
      <point x="461" y="429" type="curve" smooth="yes"/>
      <point x="461" y="477"/>
      <point x="425" y="517"/>
    </contour>
  </outline>
</glyph>
<glyph name="braceleft" format="1">
  <advance width="511"/>
  <unicode hex="007B"/>
  <outline>
    <contour>
      <point x="389" y="976" type="curve"/>
      <point x="325" y="964"/>
      <point x="279" y="916"/>
      <point x="279" y="836" type="curve" smooth="yes"/>
      <point x="279" y="770"/>
      <point x="303" y="619"/>
      <point x="303" y="550" type="curve" smooth="yes"/>
      <point x="303" y="430"/>
      <point x="210" y="392"/>
      <point x="197" y="391" type="curve"/>
      <point x="211" y="389"/>
      <point x="303" y="352"/>
      <point x="303" y="233" type="curve" smooth="yes"/>
      <point x="303" y="162"/>
      <point x="279" y="9"/>
      <point x="279" y="-59" type="curve" smooth="yes"/>
      <point x="279" y="-138"/>
      <point x="325" y="-186"/>
      <point x="389" y="-199" type="curve"/>
      <point x="373" y="-221"/>
      <point x="332" y="-233"/>
      <point x="306" y="-233" type="curve" smooth="yes"/>
      <point x="234" y="-233"/>
      <point x="154" y="-175"/>
      <point x="154" y="-38" type="curve" smooth="yes"/>
      <point x="154" y="53"/>
      <point x="179" y="160"/>
      <point x="179" y="242" type="curve" smooth="yes"/>
      <point x="179" y="357"/>
      <point x="100" y="358"/>
      <point x="100" y="391" type="curve" smooth="yes"/>
      <point x="100" y="425"/>
      <point x="179" y="424"/>
      <point x="179" y="540" type="curve" smooth="yes"/>
      <point x="179" y="621"/>
      <point x="154" y="727"/>
      <point x="154" y="815" type="curve" smooth="yes"/>
      <point x="154" y="954"/>
      <point x="234" y="1010"/>
      <point x="306" y="1010" type="curve" smooth="yes"/>
      <point x="332" y="1010"/>
      <point x="373" y="999"/>
    </contour>
  </outline>
</glyph>
<glyph name="bar" format="1">
  <advance width="340"/>
  <unicode hex="007C"/>
  <outline>
    <contour>
      <point x="234" y="-109" type="line"/>
      <point x="234" y="-139"/>
      <point x="243" y="-158"/>
      <point x="264" y="-168" type="curve"/>
      <point x="246" y="-190"/>
      <point x="221" y="-206"/>
      <point x="187" y="-206" type="curve" smooth="yes"/>
      <point x="130" y="-206"/>
      <point x="105" y="-173"/>
      <point x="105" y="-106" type="curve" smooth="yes"/>
      <point x="105" y="854" type="line" smooth="yes"/>
      <point x="105" y="884"/>
      <point x="95" y="902"/>
      <point x="75" y="912" type="curve"/>
      <point x="92" y="934"/>
      <point x="118" y="950"/>
      <point x="151" y="950" type="curve" smooth="yes"/>
      <point x="207" y="950"/>
      <point x="234" y="918"/>
      <point x="234" y="851" type="curve" smooth="yes"/>
    </contour>
  </outline>
</glyph>
<glyph name="braceright" format="1">
  <advance width="511"/>
  <unicode hex="007D"/>
  <outline>
    <contour>
      <point x="334" y="815" type="curve" smooth="yes"/>
      <point x="334" y="727"/>
      <point x="310" y="621"/>
      <point x="310" y="540" type="curve" smooth="yes"/>
      <point x="310" y="424"/>
      <point x="389" y="425"/>
      <point x="389" y="391" type="curve" smooth="yes"/>
      <point x="389" y="358"/>
      <point x="310" y="357"/>
      <point x="310" y="242" type="curve" smooth="yes"/>
      <point x="310" y="160"/>
      <point x="334" y="53"/>
      <point x="334" y="-38" type="curve" smooth="yes"/>
      <point x="334" y="-175"/>
      <point x="255" y="-233"/>
      <point x="183" y="-233" type="curve" smooth="yes"/>
      <point x="157" y="-233"/>
      <point x="116" y="-221"/>
      <point x="100" y="-199" type="curve"/>
      <point x="164" y="-186"/>
      <point x="209" y="-138"/>
      <point x="209" y="-59" type="curve" smooth="yes"/>
      <point x="209" y="9"/>
      <point x="186" y="162"/>
      <point x="186" y="233" type="curve" smooth="yes"/>
      <point x="186" y="352"/>
      <point x="278" y="389"/>
      <point x="292" y="391" type="curve"/>
      <point x="279" y="392"/>
      <point x="186" y="430"/>
      <point x="186" y="550" type="curve" smooth="yes"/>
      <point x="186" y="619"/>
      <point x="209" y="770"/>
      <point x="209" y="836" type="curve" smooth="yes"/>
      <point x="209" y="916"/>
      <point x="164" y="964"/>
      <point x="100" y="976" type="curve"/>
      <point x="116" y="999"/>
      <point x="157" y="1010"/>
      <point x="183" y="1010" type="curve" smooth="yes"/>
      <point x="255" y="1010"/>
      <point x="334" y="954"/>
    </contour>
  </outline>
</glyph>
<glyph name="asciitilde" format="1">
  <advance width="711"/>
  <unicode hex="007E"/>
  <outline>
    <contour>
      <point x="586" y="461" type="curve"/>
      <point x="608" y="451"/>
      <point x="622" y="431"/>
      <point x="622" y="402" type="curve" smooth="yes"/>
      <point x="622" y="342"/>
      <point x="570" y="296"/>
      <point x="500" y="296" type="curve" smooth="yes"/>
      <point x="403" y="296"/>
      <point x="266" y="360"/>
      <point x="189" y="360" type="curve" smooth="yes"/>
      <point x="151" y="360"/>
      <point x="128" y="339"/>
      <point x="125" y="305" type="curve"/>
      <point x="103" y="311"/>
      <point x="89" y="332"/>
      <point x="89" y="363" type="curve" smooth="yes"/>
      <point x="89" y="424"/>
      <point x="141" y="470"/>
      <point x="211" y="470" type="curve" smooth="yes"/>
      <point x="298" y="470"/>
      <point x="438" y="406"/>
      <point x="523" y="406" type="curve" smooth="yes"/>
      <point x="560" y="406"/>
      <point x="583" y="428"/>
    </contour>
  </outline>
</glyph>
<glyph name="exclamdown" format="1">
  <advance width="341"/>
  <unicode hex="00A1"/>
  <outline>
    <contour>
      <point x="99" y="438" type="curve" smooth="yes"/>
      <point x="99" y="402"/>
      <point x="125" y="374"/>
      <point x="164" y="374" type="curve" smooth="yes"/>
      <point x="208" y="374"/>
      <point x="252" y="416"/>
      <point x="252" y="463" type="curve" smooth="yes"/>
      <point x="252" y="499"/>
      <point x="227" y="527"/>
      <point x="188" y="527" type="curve" smooth="yes"/>
      <point x="142" y="527"/>
      <point x="99" y="485"/>
    </contour>
    <contour>
      <point x="168" y="-259" type="curve" smooth="yes"/>
      <point x="221" y="-259"/>
      <point x="262" y="-209"/>
      <point x="248" y="-122" type="curve" smooth="yes"/>
      <point x="212" y="175" type="line" smooth="yes"/>
      <point x="205" y="223"/>
      <point x="205" y="262"/>
      <point x="211" y="293" type="curve"/>
      <point x="202" y="303"/>
      <point x="192" y="308"/>
      <point x="177" y="308" type="curve" smooth="yes"/>
      <point x="143" y="308"/>
      <point x="125" y="280"/>
      <point x="119" y="226" type="curve" smooth="yes"/>
      <point x="88" y="-122" type="line" smooth="yes"/>
      <point x="79" y="-209"/>
      <point x="116" y="-259"/>
    </contour>
  </outline>
</glyph>
<glyph name="cent" format="1">
  <advance width="511"/>
  <unicode hex="00A2"/>
  <outline>
    <contour>
      <point x="232" y="490" type="line"/>
      <point x="361" y="490" type="line"/>
      <point x="361" y="567" type="line" smooth="yes"/>
      <point x="361" y="635"/>
      <point x="335" y="668"/>
      <point x="278" y="668" type="curve" smooth="yes"/>
      <point x="245" y="668"/>
      <point x="220" y="651"/>
      <point x="201" y="629" type="curve"/>
      <point x="222" y="619"/>
      <point x="232" y="600"/>
      <point x="232" y="570" type="curve" smooth="yes"/>
    </contour>
    <contour>
      <point x="334" y="45" type="line"/>
      <point x="204" y="45" type="line"/>
      <point x="204" y="-50" type="line" smooth="yes"/>
      <point x="204" y="-117"/>
      <point x="230" y="-150"/>
      <point x="287" y="-150" type="curve" smooth="yes"/>
      <point x="321" y="-150"/>
      <point x="345" y="-134"/>
      <point x="363" y="-111" type="curve"/>
      <point x="343" y="-101"/>
      <point x="334" y="-83"/>
      <point x="334" y="-53" type="curve" smooth="yes"/>
    </contour>
    <component base="c"/>
  </outline>
</glyph>
<glyph name="sterling" format="1">
  <advance width="644"/>
  <unicode hex="00A3"/>
  <outline>
    <contour>
      <point x="571" y="632" type="curve" smooth="yes"/>
      <point x="571" y="685"/>
      <point x="521" y="738"/>
      <point x="414" y="738" type="curve" smooth="yes"/>
      <point x="291" y="738"/>
      <point x="172" y="647"/>
      <point x="172" y="499" type="curve" smooth="yes"/>
      <point x="172" y="459"/>
      <point x="173" y="436"/>
      <point x="174" y="413" type="curve"/>
      <point x="120" y="413" type="line" smooth="yes"/>
      <point x="97" y="413"/>
      <point x="39" y="413"/>
      <point x="39" y="358" type="curve" smooth="yes"/>
      <point x="39" y="351"/>
      <point x="41" y="342"/>
      <point x="43" y="339" type="curve"/>
      <point x="177" y="339" type="line"/>
      <point x="179" y="314"/>
      <point x="179" y="291"/>
      <point x="179" y="253" type="curve" smooth="yes"/>
      <point x="179" y="175"/>
      <point x="164" y="151"/>
      <point x="151" y="135" type="curve"/>
      <point x="93" y="121"/>
      <point x="60" y="78"/>
      <point x="60" y="38" type="curve" smooth="yes"/>
      <point x="60" y="18"/>
      <point x="65" y="4"/>
      <point x="73" y="-9" type="curve"/>
      <point x="109" y="21"/>
      <point x="151" y="27"/>
      <point x="194" y="27" type="curve" smooth="yes"/>
      <point x="284" y="27"/>
      <point x="375" y="-10"/>
      <point x="496" y="-10" type="curve" smooth="yes"/>
      <point x="575" y="-10"/>
      <point x="624" y="43"/>
      <point x="624" y="95" type="curve" smooth="yes"/>
      <point x="624" y="114"/>
      <point x="619" y="129"/>
      <point x="612" y="140" type="curve"/>
      <point x="578" y="110"/>
      <point x="539" y="104"/>
      <point x="499" y="104" type="curve" smooth="yes"/>
      <point x="412" y="104"/>
      <point x="345" y="130"/>
      <point x="264" y="139" type="curve"/>
      <point x="310" y="169"/>
      <point x="320" y="248"/>
      <point x="320" y="290" type="curve" smooth="yes"/>
      <point x="320" y="339" type="line"/>
      <point x="411" y="339" type="line" smooth="yes"/>
      <point x="435" y="339"/>
      <point x="493" y="339"/>
      <point x="493" y="396" type="curve" smooth="yes"/>
      <point x="493" y="401"/>
      <point x="492" y="410"/>
      <point x="489" y="413" type="curve"/>
      <point x="318" y="413" type="line"/>
      <point x="315" y="449"/>
      <point x="313" y="489"/>
      <point x="313" y="533" type="curve" smooth="yes"/>
      <point x="313" y="600"/>
      <point x="332" y="654"/>
      <point x="384" y="654" type="curve" smooth="yes"/>
      <point x="433" y="654"/>
      <point x="468" y="603"/>
      <point x="480" y="548" type="curve"/>
      <point x="533" y="552"/>
      <point x="571" y="585"/>
    </contour>
  </outline>
</glyph>
<glyph name="currency" format="1">
  <advance width="709"/>
  <unicode hex="00A4"/>
  <outline>
    <contour>
      <point x="355" y="517" type="curve" smooth="yes"/>
      <point x="230" y="517"/>
      <point x="129" y="443"/>
      <point x="129" y="298" type="curve" smooth="yes"/>
      <point x="129" y="153"/>
      <point x="230" y="80"/>
      <point x="355" y="80" type="curve" smooth="yes"/>
      <point x="480" y="80"/>
      <point x="579" y="153"/>
      <point x="579" y="298" type="curve" smooth="yes"/>
      <point x="579" y="443"/>
      <point x="480" y="517"/>
    </contour>
    <contour>
      <point x="344" y="450" type="curve" smooth="yes"/>
      <point x="412" y="450"/>
      <point x="463" y="409"/>
      <point x="471" y="298" type="curve" smooth="yes"/>
      <point x="480" y="188"/>
      <point x="434" y="146"/>
      <point x="366" y="146" type="curve" smooth="yes"/>
      <point x="297" y="146"/>
      <point x="246" y="188"/>
      <point x="239" y="298" type="curve" smooth="yes"/>
      <point x="231" y="409"/>
      <point x="275" y="450"/>
    </contour>
    <contour>
      <point x="179" y="393" type="line"/>
      <point x="252" y="465" type="line"/>
      <point x="206" y="512" type="line" smooth="yes"/>
      <point x="179" y="539"/>
      <point x="149" y="550"/>
      <point x="124" y="544" type="curve" smooth="yes"/>
      <point x="99" y="542"/>
      <point x="79" y="526"/>
      <point x="72" y="499" type="curve"/>
    </contour>
    <contour>
      <point x="503" y="512" type="curve"/>
      <point x="457" y="465" type="line"/>
      <point x="530" y="393" type="line"/>
      <point x="638" y="499" type="line"/>
      <point x="630" y="526"/>
      <point x="610" y="542"/>
      <point x="585" y="544" type="curve" smooth="yes"/>
      <point x="560" y="550"/>
      <point x="530" y="539"/>
    </contour>
    <contour>
      <point x="206" y="80" type="curve"/>
      <point x="250" y="125" type="line"/>
      <point x="178" y="197" type="line"/>
      <point x="72" y="93" type="line"/>
      <point x="79" y="66"/>
      <point x="99" y="50"/>
      <point x="124" y="49" type="curve" smooth="yes"/>
      <point x="149" y="42"/>
      <point x="178" y="53"/>
    </contour>
    <contour>
      <point x="531" y="197" type="line"/>
      <point x="458" y="125" type="line"/>
      <point x="504" y="80" type="line" smooth="yes"/>
      <point x="530" y="53"/>
      <point x="560" y="42"/>
      <point x="585" y="49" type="curve" smooth="yes"/>
      <point x="610" y="50"/>
      <point x="631" y="66"/>
      <point x="638" y="93" type="curve"/>
    </contour>
  </outline>
</glyph>
<glyph name="yen" format="1">
  <advance width="668"/>
  <unicode hex="00A5"/>
  <outline>
    <contour>
      <point x="579" y="226" type="curve" smooth="yes"/>
      <point x="579" y="231"/>
      <point x="577" y="240"/>
      <point x="574" y="243" type="curve"/>
      <point x="154" y="243" type="line" smooth="yes"/>
      <point x="123" y="243"/>
      <point x="70" y="239"/>
      <point x="70" y="188" type="curve" smooth="yes"/>
      <point x="70" y="181"/>
      <point x="72" y="172"/>
      <point x="74" y="169" type="curve"/>
      <point x="495" y="169" type="line" smooth="yes"/>
      <point x="524" y="169"/>
      <point x="579" y="173"/>
    </contour>
    <contour>
      <point x="306" y="320" type="line"/>
      <point x="278" y="394" type="line"/>
      <point x="154" y="394" type="line" smooth="yes"/>
      <point x="123" y="394"/>
      <point x="70" y="391"/>
      <point x="70" y="339" type="curve" smooth="yes"/>
      <point x="70" y="331"/>
      <point x="72" y="323"/>
      <point x="74" y="320" type="curve"/>
    </contour>
    <contour>
      <point x="369" y="394" type="line"/>
      <point x="337" y="320" type="line"/>
      <point x="495" y="320" type="line" smooth="yes"/>
      <point x="524" y="320"/>
      <point x="579" y="323"/>
      <point x="579" y="377" type="curve" smooth="yes"/>
      <point x="579" y="382"/>
      <point x="577" y="390"/>
      <point x="574" y="394" type="curve"/>
    </contour>
    <component base="Y"/>
  </outline>
</glyph>
<glyph name="brokenbar" format="1">
  <advance width="340"/>
  <unicode hex="00A6"/>
  <outline>
    <contour>
      <point x="235" y="536" type="line"/>
      <point x="235" y="505"/>
      <point x="244" y="487"/>
      <point x="264" y="477" type="curve"/>
      <point x="246" y="454"/>
      <point x="222" y="438"/>
      <point x="188" y="438" type="curve" smooth="yes"/>
      <point x="131" y="438"/>
      <point x="106" y="471"/>
      <point x="106" y="538" type="curve" smooth="yes"/>
      <point x="106" y="782" type="line" smooth="yes"/>
      <point x="106" y="811"/>
      <point x="96" y="830"/>
      <point x="76" y="840" type="curve"/>
      <point x="93" y="862"/>
      <point x="118" y="878"/>
      <point x="152" y="878" type="curve" smooth="yes"/>
      <point x="208" y="878"/>
      <point x="235" y="846"/>
      <point x="235" y="779" type="curve" smooth="yes"/>
    </contour>
    <contour>
      <point x="235" y="-13" type="line"/>
      <point x="235" y="-43"/>
      <point x="244" y="-62"/>
      <point x="264" y="-72" type="curve"/>
      <point x="246" y="-94"/>
      <point x="222" y="-110"/>
      <point x="188" y="-110" type="curve" smooth="yes"/>
      <point x="131" y="-110"/>
      <point x="106" y="-77"/>
      <point x="106" y="-10" type="curve" smooth="yes"/>
      <point x="106" y="234" type="line" smooth="yes"/>
      <point x="106" y="263"/>
      <point x="96" y="282"/>
      <point x="76" y="291" type="curve"/>
      <point x="93" y="314"/>
      <point x="118" y="330"/>
      <point x="152" y="330" type="curve" smooth="yes"/>
      <point x="208" y="330"/>
      <point x="235" y="298"/>
      <point x="235" y="231" type="curve" smooth="yes"/>
    </contour>
  </outline>
</glyph>
<glyph name="section" format="1">
  <advance width="680"/>
  <unicode hex="00A7"/>
  <outline>
    <contour>
      <point x="586" y="593" type="curve" smooth="yes"/>
      <point x="586" y="546"/>
      <point x="557" y="519"/>
      <point x="522" y="519" type="curve" smooth="yes"/>
      <point x="500" y="519"/>
      <point x="469" y="525"/>
      <point x="452" y="539" type="curve"/>
      <point x="455" y="550"/>
      <point x="458" y="564"/>
      <point x="458" y="574" type="curve" smooth="yes"/>
      <point x="458" y="612"/>
      <point x="420" y="654"/>
      <point x="344" y="654" type="curve" smooth="yes"/>
      <point x="274" y="654"/>
      <point x="231" y="628"/>
      <point x="231" y="571" type="curve" smooth="yes"/>
      <point x="231" y="452"/>
      <point x="604" y="424"/>
      <point x="604" y="207" type="curve" smooth="yes"/>
      <point x="604" y="108"/>
      <point x="529" y="55"/>
      <point x="466" y="55" type="curve" smooth="yes"/>
      <point x="447" y="55"/>
      <point x="429" y="59"/>
      <point x="413" y="67" type="curve"/>
      <point x="461" y="89"/>
      <point x="487" y="129"/>
      <point x="487" y="175" type="curve" smooth="yes"/>
      <point x="487" y="332"/>
      <point x="115" y="331"/>
      <point x="115" y="540" type="curve" smooth="yes"/>
      <point x="115" y="663"/>
      <point x="227" y="738"/>
      <point x="355" y="738" type="curve" smooth="yes"/>
      <point x="494" y="738"/>
      <point x="586" y="674"/>
    </contour>
    <contour>
      <point x="300" y="274" type="curve"/>
      <point x="255" y="251"/>
      <point x="231" y="216"/>
      <point x="231" y="171" type="curve" smooth="yes"/>
      <point x="231" y="6"/>
      <point x="604" y="16"/>
      <point x="604" y="-205" type="curve" smooth="yes"/>
      <point x="604" y="-332"/>
      <point x="486" y="-420"/>
      <point x="349" y="-420" type="curve" smooth="yes"/>
      <point x="210" y="-420"/>
      <point x="100" y="-352"/>
      <point x="100" y="-254" type="curve" smooth="yes"/>
      <point x="100" y="-198"/>
      <point x="143" y="-169"/>
      <point x="187" y="-169" type="curve" smooth="yes"/>
      <point x="215" y="-169"/>
      <point x="239" y="-179"/>
      <point x="254" y="-198" type="curve"/>
      <point x="243" y="-212"/>
      <point x="234" y="-230"/>
      <point x="234" y="-253" type="curve" smooth="yes"/>
      <point x="234" y="-296"/>
      <point x="272" y="-336"/>
      <point x="356" y="-336" type="curve" smooth="yes"/>
      <point x="436" y="-336"/>
      <point x="487" y="-288"/>
      <point x="487" y="-231" type="curve" smooth="yes"/>
      <point x="487" y="-102"/>
      <point x="115" y="-89"/>
      <point x="115" y="133" type="curve" smooth="yes"/>
      <point x="115" y="228"/>
      <point x="178" y="286"/>
      <point x="247" y="286" type="curve" smooth="yes"/>
      <point x="264" y="286"/>
      <point x="283" y="282"/>
    </contour>
  </outline>
</glyph>
<glyph name="dieresis" format="1">
  <advance width="352"/>
  <unicode hex="00A8"/>
  <outline>
    <contour>
      <point x="176" y="517" type="move" name="_top"/>
    </contour>
    <contour>
      <point x="156" y="670" type="curve" smooth="yes"/>
      <point x="156" y="704"/>
      <point x="131" y="730"/>
      <point x="95" y="730" type="curve" smooth="yes"/>
      <point x="54" y="730"/>
      <point x="12" y="690"/>
      <point x="12" y="647" type="curve" smooth="yes"/>
      <point x="12" y="613"/>
      <point x="36" y="586"/>
      <point x="72" y="586" type="curve" smooth="yes"/>
      <point x="116" y="586"/>
      <point x="156" y="626"/>
    </contour>
    <contour>
      <point x="340" y="670" type="curve" smooth="yes"/>
      <point x="340" y="704"/>
      <point x="316" y="730"/>
      <point x="280" y="730" type="curve" smooth="yes"/>
      <point x="238" y="730"/>
      <point x="196" y="690"/>
      <point x="196" y="647" type="curve" smooth="yes"/>
      <point x="196" y="613"/>
      <point x="221" y="586"/>
      <point x="257" y="586" type="curve" smooth="yes"/>
      <point x="300" y="586"/>
      <point x="340" y="626"/>
    </contour>
  </outline>
</glyph>
<glyph name="copyright" format="1">
  <advance width="869"/>
  <unicode hex="00A9"/>
  <outline>
    <contour>
      <point x="797" y="363" type="curve" smooth="yes"/>
      <point x="797" y="583"/>
      <point x="642" y="739"/>
      <point x="434" y="739" type="curve" smooth="yes"/>
      <point x="227" y="739"/>
      <point x="72" y="583"/>
      <point x="72" y="363" type="curve" smooth="yes"/>
      <point x="72" y="143"/>
      <point x="227" y="-10"/>
      <point x="434" y="-10" type="curve" smooth="yes"/>
      <point x="642" y="-10"/>
      <point x="797" y="143"/>
    </contour>
    <contour>
      <point x="127" y="363" type="curve" smooth="yes"/>
      <point x="127" y="545"/>
      <point x="244" y="693"/>
      <point x="434" y="693" type="curve" smooth="yes"/>
      <point x="626" y="693"/>
      <point x="741" y="545"/>
      <point x="741" y="363" type="curve" smooth="yes"/>
      <point x="741" y="181"/>
      <point x="624" y="36"/>
      <point x="434" y="36" type="curve" smooth="yes"/>
      <point x="243" y="36"/>
      <point x="127" y="181"/>
    </contour>
    <contour>
      <point x="603" y="507" type="curve" smooth="yes"/>
      <point x="603" y="569"/>
      <point x="535" y="609"/>
      <point x="459" y="609" type="curve" smooth="yes"/>
      <point x="322" y="609"/>
      <point x="226" y="486"/>
      <point x="226" y="350" type="curve" smooth="yes"/>
      <point x="226" y="217"/>
      <point x="307" y="129"/>
      <point x="437" y="129" type="curve" smooth="yes"/>
      <point x="530" y="129"/>
      <point x="602" y="187"/>
      <point x="602" y="238" type="curve" smooth="yes"/>
      <point x="602" y="254"/>
      <point x="594" y="267"/>
      <point x="585" y="271" type="curve"/>
      <point x="555" y="236"/>
      <point x="515" y="212"/>
      <point x="460" y="212" type="curve" smooth="yes"/>
      <point x="391" y="212"/>
      <point x="337" y="263"/>
      <point x="337" y="365" type="curve" smooth="yes"/>
      <point x="337" y="464"/>
      <point x="380" y="540"/>
      <point x="441" y="540" type="curve" smooth="yes"/>
      <point x="477" y="540"/>
      <point x="495" y="513"/>
      <point x="495" y="483" type="curve" smooth="yes"/>
      <point x="495" y="477"/>
      <point x="493" y="469"/>
      <point x="492" y="463" type="curve"/>
      <point x="506" y="453"/>
      <point x="522" y="447"/>
      <point x="541" y="447" type="curve" smooth="yes"/>
      <point x="576" y="447"/>
      <point x="603" y="469"/>
    </contour>
  </outline>
</glyph>
<glyph name="ordfeminine" format="1">
  <advance width="450"/>
  <unicode hex="00AA"/>
  <outline>
    <contour>
      <point x="383" y="600" type="line"/>
      <point x="383" y="697"/>
      <point x="316" y="740"/>
      <point x="226" y="740" type="curve" smooth="yes"/>
      <point x="137" y="740"/>
      <point x="56" y="699"/>
      <point x="56" y="641" type="curve" smooth="yes"/>
      <point x="56" y="607"/>
      <point x="79" y="583"/>
      <point x="121" y="583" type="curve" smooth="yes"/>
      <point x="144" y="583"/>
      <point x="165" y="591"/>
      <point x="181" y="606" type="curve"/>
      <point x="173" y="615"/>
      <point x="168" y="628"/>
      <point x="168" y="639" type="curve" smooth="yes"/>
      <point x="168" y="662"/>
      <point x="190" y="681"/>
      <point x="222" y="681" type="curve" smooth="yes"/>
      <point x="259" y="681"/>
      <point x="278" y="658"/>
      <point x="278" y="612" type="curve" smooth="yes"/>
      <point x="278" y="393" type="line" smooth="yes"/>
      <point x="278" y="334"/>
      <point x="302" y="306"/>
      <point x="349" y="306" type="curve" smooth="yes"/>
      <point x="382" y="306"/>
      <point x="409" y="324"/>
      <point x="424" y="347" type="curve"/>
      <point x="399" y="353"/>
      <point x="383" y="371"/>
      <point x="383" y="405" type="curve" smooth="yes"/>
    </contour>
    <contour>
      <point x="287" y="500" type="curve"/>
      <point x="287" y="546" type="line"/>
      <point x="124" y="545"/>
      <point x="36" y="490"/>
      <point x="36" y="410" type="curve" smooth="yes"/>
      <point x="36" y="342"/>
      <point x="86" y="306"/>
      <point x="156" y="306" type="curve" smooth="yes"/>
      <point x="222" y="306"/>
      <point x="270" y="342"/>
      <point x="296" y="383" type="curve"/>
      <point x="289" y="431" type="line"/>
      <point x="266" y="395"/>
      <point x="236" y="375"/>
      <point x="202" y="375" type="curve" smooth="yes"/>
      <point x="171" y="375"/>
      <point x="149" y="388"/>
      <point x="149" y="422" type="curve" smooth="yes"/>
      <point x="149" y="462"/>
      <point x="185" y="497"/>
    </contour>
  </outline>
</glyph>
<glyph name="guillemotleft" format="1">
  <advance width="595"/>
  <unicode hex="00AB"/>
  <outline>
    <contour>
      <point x="551" y="527" type="curve"/>
      <point x="548" y="534"/>
      <point x="536" y="548"/>
      <point x="519" y="548" type="curve" smooth="yes"/>
      <point x="460" y="548"/>
      <point x="293" y="372"/>
      <point x="293" y="297" type="curve" smooth="yes"/>
      <point x="293" y="222"/>
      <point x="459" y="47"/>
      <point x="519" y="47" type="curve" smooth="yes"/>
      <point x="536" y="47"/>
      <point x="548" y="61"/>
      <point x="551" y="68" type="curve"/>
      <point x="459" y="183"/>
      <point x="419" y="245"/>
      <point x="419" y="297" type="curve" smooth="yes"/>
      <point x="419" y="349"/>
      <point x="459" y="411"/>
    </contour>
    <contour>
      <point x="317" y="527" type="curve"/>
      <point x="314" y="534"/>
      <point x="302" y="548"/>
      <point x="285" y="548" type="curve" smooth="yes"/>
      <point x="226" y="548"/>
      <point x="59" y="372"/>
      <point x="59" y="297" type="curve" smooth="yes"/>
      <point x="59" y="222"/>
      <point x="225" y="47"/>
      <point x="285" y="47" type="curve" smooth="yes"/>
      <point x="302" y="47"/>
      <point x="314" y="61"/>
      <point x="317" y="68" type="curve"/>
      <point x="225" y="183"/>
      <point x="185" y="245"/>
      <point x="185" y="297" type="curve" smooth="yes"/>
      <point x="185" y="349"/>
      <point x="225" y="411"/>
    </contour>
  </outline>
</glyph>
<glyph name="logicalnot" format="1">
  <advance width="803"/>
  <unicode hex="00AC"/>
  <outline>
    <contour>
      <point x="712" y="403" type="line"/>
      <point x="712" y="465"/>
      <point x="685" y="491"/>
      <point x="608" y="491" type="curve" smooth="yes"/>
      <point x="147" y="491" type="line" smooth="yes"/>
      <point x="93" y="491"/>
      <point x="52" y="474"/>
      <point x="52" y="426" type="curve" smooth="yes"/>
      <point x="52" y="415"/>
      <point x="56" y="402"/>
      <point x="59" y="396" type="curve"/>
      <point x="552" y="396" type="line" smooth="yes"/>
      <point x="574" y="396"/>
      <point x="584" y="391"/>
      <point x="584" y="370" type="curve" smooth="yes"/>
      <point x="584" y="307" type="line" smooth="yes"/>
      <point x="584" y="240"/>
      <point x="609" y="208"/>
      <point x="665" y="208" type="curve" smooth="yes"/>
      <point x="699" y="208"/>
      <point x="725" y="224"/>
      <point x="742" y="247" type="curve"/>
      <point x="722" y="257"/>
      <point x="712" y="275"/>
      <point x="712" y="306" type="curve" smooth="yes"/>
    </contour>
  </outline>
</glyph>
<glyph name="registered" format="1">
  <advance width="678"/>
  <unicode hex="00AE"/>
  <outline>
    <contour>
      <point x="614" y="544" type="curve" smooth="yes"/>
      <point x="614" y="378"/>
      <point x="497" y="268"/>
      <point x="339" y="268" type="curve" smooth="yes"/>
      <point x="180" y="268"/>
      <point x="64" y="378"/>
      <point x="64" y="544" type="curve" smooth="yes"/>
      <point x="64" y="710"/>
      <point x="180" y="821"/>
      <point x="339" y="821" type="curve" smooth="yes"/>
      <point x="497" y="821"/>
      <point x="614" y="710"/>
    </contour>
    <contour>
      <point x="451" y="434" type="line"/>
      <point x="459" y="422"/>
      <point x="473" y="411"/>
      <point x="485" y="406" type="curve"/>
      <point x="476" y="388"/>
      <point x="456" y="379"/>
      <point x="438" y="379" type="curve" smooth="yes"/>
      <point x="416" y="379"/>
      <point x="398" y="388"/>
      <point x="378" y="419" type="curve" smooth="yes"/>
      <point x="309" y="525" type="line"/>
      <point x="381" y="531" type="line"/>
    </contour>
    <contour>
      <point x="469" y="615" type="curve" smooth="yes"/>
      <point x="469" y="549"/>
      <point x="409" y="514"/>
      <point x="338" y="514" type="curve" smooth="yes"/>
      <point x="296" y="514" type="line"/>
      <point x="296" y="424" type="line" smooth="yes"/>
      <point x="296" y="409"/>
      <point x="301" y="402"/>
      <point x="310" y="397" type="curve"/>
      <point x="301" y="387"/>
      <point x="287" y="379"/>
      <point x="270" y="379" type="curve" smooth="yes"/>
      <point x="243" y="379"/>
      <point x="229" y="394"/>
      <point x="229" y="425" type="curve" smooth="yes"/>
      <point x="229" y="672" type="line" smooth="yes"/>
      <point x="229" y="685"/>
      <point x="225" y="693"/>
      <point x="216" y="699" type="curve"/>
      <point x="225" y="709"/>
      <point x="236" y="717"/>
      <point x="255" y="717" type="curve" smooth="yes"/>
      <point x="338" y="717" type="line" smooth="yes"/>
      <point x="409" y="717"/>
      <point x="469" y="679"/>
    </contour>
    <contour>
      <point x="297" y="671" type="line"/>
      <point x="297" y="559" type="line"/>
      <point x="329" y="559" type="line" smooth="yes"/>
      <point x="373" y="559"/>
      <point x="397" y="578"/>
      <point x="397" y="615" type="curve" smooth="yes"/>
      <point x="397" y="653"/>
      <point x="373" y="671"/>
      <point x="329" y="671" type="curve" smooth="yes"/>
    </contour>
    <contour>
      <point x="109" y="545" type="curve" smooth="yes"/>
      <point x="109" y="415"/>
      <point x="196" y="307"/>
      <point x="339" y="307" type="curve" smooth="yes"/>
      <point x="481" y="307"/>
      <point x="569" y="415"/>
      <point x="569" y="545" type="curve" smooth="yes"/>
      <point x="569" y="674"/>
      <point x="483" y="781"/>
      <point x="340" y="781" type="curve" smooth="yes"/>
      <point x="197" y="781"/>
      <point x="109" y="672"/>
    </contour>
  </outline>
</glyph>
<glyph name="macron" format="1">
  <advance width="398"/>
  <unicode hex="00AF"/>
  <outline>
    <contour>
      <point x="199" y="517" type="move" name="_top"/>
    </contour>
    <contour>
      <point x="379" y="681" type="curve"/>
      <point x="79" y="681" type="line" smooth="yes"/>
      <point x="38" y="681"/>
      <point x="12" y="662"/>
      <point x="12" y="633" type="curve" smooth="yes"/>
      <point x="12" y="623"/>
      <point x="16" y="615"/>
      <point x="19" y="611" type="curve"/>
      <point x="319" y="611" type="line" smooth="yes"/>
      <point x="359" y="611"/>
      <point x="386" y="630"/>
      <point x="386" y="659" type="curve" smooth="yes"/>
      <point x="386" y="669"/>
      <point x="383" y="677"/>
    </contour>
  </outline>
</glyph>
<glyph name="degree" format="1">
  <advance width="805"/>
  <unicode hex="00B0"/>
  <outline>
    <contour>
      <point x="244" y="873" type="curve" smooth="yes"/>
      <point x="145" y="873"/>
      <point x="72" y="807"/>
      <point x="72" y="709" type="curve" smooth="yes"/>
      <point x="72" y="610"/>
      <point x="144" y="543"/>
      <point x="244" y="543" type="curve" smooth="yes"/>
      <point x="343" y="543"/>
      <point x="415" y="611"/>
      <point x="415" y="710" type="curve" smooth="yes"/>
      <point x="415" y="807"/>
      <point x="344" y="873"/>
    </contour>
    <contour>
      <point x="244" y="625" type="curve" smooth="yes"/>
      <point x="196" y="625"/>
      <point x="165" y="661"/>
      <point x="165" y="710" type="curve" smooth="yes"/>
      <point x="165" y="758"/>
      <point x="195" y="793"/>
      <point x="244" y="793" type="curve" smooth="yes"/>
      <point x="292" y="793"/>
      <point x="323" y="758"/>
      <point x="323" y="709" type="curve" smooth="yes"/>
      <point x="323" y="660"/>
      <point x="292" y="625"/>
    </contour>
  </outline>
</glyph>
<glyph name="plusminus" format="1">
  <advance width="722"/>
  <unicode hex="00B1"/>
  <outline>
    <contour>
      <point x="174" y="159" type="line"/>
      <point x="140" y="159"/>
      <point x="56" y="159"/>
      <point x="56" y="79" type="curve" smooth="yes"/>
      <point x="56" y="69"/>
      <point x="61" y="56"/>
      <point x="63" y="50" type="curve"/>
      <point x="548" y="50" type="line" smooth="yes"/>
      <point x="582" y="50"/>
      <point x="666" y="50"/>
      <point x="666" y="133" type="curve" smooth="yes"/>
      <point x="666" y="141"/>
      <point x="664" y="153"/>
      <point x="661" y="159" type="curve"/>
    </contour>
    <contour>
      <point x="416" y="734" type="curve"/>
      <point x="412" y="529" type="line"/>
      <point x="651" y="533" type="line"/>
      <point x="654" y="527"/>
      <point x="657" y="515"/>
      <point x="657" y="507" type="curve" smooth="yes"/>
      <point x="657" y="430"/>
      <point x="585" y="425"/>
      <point x="547" y="425" type="curve" smooth="yes"/>
      <point x="526" y="425"/>
      <point x="504" y="425"/>
      <point x="412" y="428" type="curve"/>
      <point x="415" y="355"/>
      <point x="415" y="337"/>
      <point x="416" y="320" type="curve"/>
      <point x="416" y="273"/>
      <point x="402" y="210"/>
      <point x="333" y="210" type="curve" smooth="yes"/>
      <point x="325" y="210"/>
      <point x="313" y="212"/>
      <point x="309" y="215" type="curve"/>
      <point x="313" y="428" type="line"/>
      <point x="73" y="425" type="line"/>
      <point x="70" y="430"/>
      <point x="66" y="443"/>
      <point x="66" y="454" type="curve" smooth="yes"/>
      <point x="66" y="527"/>
      <point x="137" y="533"/>
      <point x="174" y="533" type="curve" smooth="yes"/>
      <point x="196" y="532"/>
      <point x="218" y="532"/>
      <point x="311" y="529" type="curve"/>
      <point x="308" y="601"/>
      <point x="307" y="618"/>
      <point x="306" y="636" type="curve" smooth="yes"/>
      <point x="306" y="674"/>
      <point x="314" y="741"/>
      <point x="386" y="741" type="curve" smooth="yes"/>
      <point x="397" y="741"/>
      <point x="409" y="737"/>
    </contour>
  </outline>
</glyph>
<glyph name="twosuperior" format="1">
  <advance width="412"/>
  <unicode hex="00B2"/>
  <outline>
    <contour>
      <point x="349" y="614" type="curve" smooth="yes"/>
      <point x="349" y="526"/>
      <point x="261" y="440"/>
      <point x="88" y="360" type="curve"/>
      <point x="75" y="371" type="line"/>
      <point x="153" y="382"/>
      <point x="222" y="386"/>
      <point x="274" y="386" type="curve" smooth="yes"/>
      <point x="349" y="386"/>
      <point x="370" y="363"/>
      <point x="370" y="336" type="curve" smooth="yes"/>
      <point x="370" y="323"/>
      <point x="363" y="312"/>
      <point x="355" y="303" type="curve"/>
      <point x="333" y="309"/>
      <point x="307" y="311"/>
      <point x="274" y="311" type="curve" smooth="yes"/>
      <point x="97" y="311" type="line" smooth="yes"/>
      <point x="54" y="311"/>
      <point x="29" y="336"/>
      <point x="40" y="374" type="curve"/>
      <point x="154" y="451"/>
      <point x="253" y="526"/>
      <point x="253" y="616" type="curve" smooth="yes"/>
      <point x="253" y="665"/>
      <point x="229" y="689"/>
      <point x="190" y="689" type="curve" smooth="yes"/>
      <point x="156" y="689"/>
      <point x="138" y="670"/>
      <point x="138" y="647" type="curve" smooth="yes"/>
      <point x="138" y="630"/>
      <point x="151" y="617"/>
      <point x="170" y="609" type="curve"/>
      <point x="160" y="593"/>
      <point x="141" y="582"/>
      <point x="111" y="582" type="curve" smooth="yes"/>
      <point x="75" y="582"/>
      <point x="41" y="602"/>
      <point x="41" y="639" type="curve" smooth="yes"/>
      <point x="41" y="695"/>
      <point x="114" y="740"/>
      <point x="195" y="740" type="curve" smooth="yes"/>
      <point x="289" y="740"/>
      <point x="349" y="684"/>
    </contour>
  </outline>
</glyph>
<glyph name="threesuperior" format="1">
  <advance width="386"/>
  <unicode hex="00B3"/>
  <outline>
    <contour>
      <point x="329" y="648" type="curve" smooth="yes"/>
      <point x="329" y="703"/>
      <point x="276" y="738"/>
      <point x="201" y="738" type="curve" smooth="yes"/>
      <point x="127" y="738"/>
      <point x="71" y="707"/>
      <point x="71" y="676" type="curve" smooth="yes"/>
      <point x="71" y="664"/>
      <point x="78" y="651"/>
      <point x="89" y="648" type="curve"/>
      <point x="113" y="664"/>
      <point x="137" y="673"/>
      <point x="167" y="673" type="curve" smooth="yes"/>
      <point x="201" y="673"/>
      <point x="233" y="657"/>
      <point x="233" y="627" type="curve" smooth="yes"/>
      <point x="233" y="571"/>
      <point x="108" y="564"/>
      <point x="108" y="523" type="curve" smooth="yes"/>
      <point x="108" y="517"/>
      <point x="110" y="511"/>
      <point x="116" y="507" type="curve"/>
      <point x="125" y="509"/>
      <point x="139" y="510"/>
      <point x="149" y="510" type="curve" smooth="yes"/>
      <point x="228" y="510"/>
      <point x="266" y="475"/>
      <point x="266" y="434" type="curve" smooth="yes"/>
      <point x="266" y="402"/>
      <point x="237" y="380"/>
      <point x="194" y="380" type="curve" smooth="yes"/>
      <point x="146" y="380"/>
      <point x="104" y="397"/>
      <point x="82" y="448" type="curve"/>
      <point x="69" y="447"/>
      <point x="36" y="424"/>
      <point x="36" y="390" type="curve" smooth="yes"/>
      <point x="36" y="340"/>
      <point x="102" y="307"/>
      <point x="175" y="307" type="curve" smooth="yes"/>
      <point x="255" y="307"/>
      <point x="351" y="368"/>
      <point x="351" y="442" type="curve" smooth="yes"/>
      <point x="351" y="501"/>
      <point x="300" y="546"/>
      <point x="238" y="559" type="curve"/>
      <point x="289" y="572"/>
      <point x="329" y="607"/>
    </contour>
  </outline>
</glyph>
<glyph name="acute" format="1">
  <advance width="265"/>
  <unicode hex="00B4"/>
  <outline>
    <contour>
      <point x="80" y="517" type="move" name="_top"/>
    </contour>
    <contour>
      <point x="86" y="585" type="line"/>
      <point x="57" y="562"/>
      <point x="25" y="565"/>
      <point x="12" y="591" type="curve"/>
      <point x="84" y="695" type="line" smooth="yes"/>
      <point x="121" y="751"/>
      <point x="149" y="772"/>
      <point x="191" y="771" type="curve" smooth="yes"/>
      <point x="243" y="770"/>
      <point x="268" y="720"/>
      <point x="245" y="669" type="curve"/>
      <point x="223" y="677"/>
      <point x="202" y="675"/>
      <point x="176" y="655" type="curve" smooth="yes"/>
    </contour>
  </outline>
</glyph>
<glyph name="paragraph" format="1">
  <advance width="696"/>
  <unicode hex="00B6"/>
  <outline>
    <contour>
      <point x="569" y="729" type="line"/>
      <point x="558" y="689"/>
      <point x="555" y="644"/>
      <point x="555" y="597" type="curve" smooth="yes"/>
      <point x="555" y="0" type="line"/>
      <point x="545" y="-3"/>
      <point x="536" y="-5"/>
      <point x="525" y="-5" type="curve" smooth="yes"/>
      <point x="496" y="-5"/>
      <point x="468" y="11"/>
      <point x="468" y="60" type="curve" smooth="yes"/>
      <point x="468" y="569" type="line" smooth="yes"/>
      <point x="468" y="598"/>
      <point x="471" y="623"/>
      <point x="474" y="649" type="curve"/>
      <point x="419" y="649" type="line" smooth="yes"/>
      <point x="392" y="649"/>
      <point x="378" y="634"/>
      <point x="378" y="605" type="curve" smooth="yes"/>
      <point x="378" y="0" type="line"/>
      <point x="369" y="-3"/>
      <point x="359" y="-5"/>
      <point x="348" y="-5" type="curve" smooth="yes"/>
      <point x="320" y="-5"/>
      <point x="292" y="11"/>
      <point x="292" y="60" type="curve" smooth="yes"/>
      <point x="292" y="276" type="line"/>
      <point x="253" y="276" type="line" smooth="yes"/>
      <point x="124" y="276"/>
      <point x="52" y="375"/>
      <point x="52" y="501" type="curve" smooth="yes"/>
      <point x="52" y="631"/>
      <point x="124" y="729"/>
      <point x="253" y="729" type="curve" smooth="yes"/>
    </contour>
  </outline>
</glyph>
<glyph name="periodcentered" format="1">
  <advance width="398"/>
  <unicode hex="00B7"/>
  <outline>
    <contour>
      <point x="283" y="360" type="curve" smooth="yes"/>
      <point x="283" y="401"/>
      <point x="255" y="431"/>
      <point x="213" y="431" type="curve" smooth="yes"/>
      <point x="163" y="431"/>
      <point x="115" y="384"/>
      <point x="115" y="333" type="curve" smooth="yes"/>
      <point x="115" y="294"/>
      <point x="144" y="263"/>
      <point x="186" y="263" type="curve" smooth="yes"/>
      <point x="237" y="263"/>
      <point x="283" y="309"/>
    </contour>
  </outline>
</glyph>
<glyph name="cedilla" format="1">
  <advance width="365"/>
  <unicode hex="00B8"/>
  <outline>
    <contour>
      <point x="193" y="0" type="move" name="_bottom"/>
    </contour>
    <contour>
      <point x="159" y="-197" type="curve" smooth="yes"/>
      <point x="206" y="-197"/>
      <point x="233" y="-180"/>
      <point x="233" y="-151" type="curve" smooth="yes"/>
      <point x="233" y="-125"/>
      <point x="211" y="-108"/>
      <point x="170" y="-108" type="curve" smooth="yes"/>
      <point x="154" y="-108" type="line" smooth="yes"/>
      <point x="132" y="-108"/>
      <point x="125" y="-98"/>
      <point x="131" y="-71" type="curve" smooth="yes"/>
      <point x="150" y="17" type="line"/>
      <point x="233" y="17" type="line"/>
      <point x="210" y="-89" type="line"/>
      <point x="152" y="-76" type="line"/>
      <point x="178" y="-69"/>
      <point x="200" y="-64"/>
      <point x="225" y="-64" type="curve" smooth="yes"/>
      <point x="294" y="-64"/>
      <point x="345" y="-92"/>
      <point x="345" y="-151" type="curve" smooth="yes"/>
      <point x="345" y="-211"/>
      <point x="275" y="-259"/>
      <point x="171" y="-259" type="curve" smooth="yes"/>
      <point x="79" y="-259"/>
      <point x="14" y="-216"/>
      <point x="14" y="-173" type="curve" smooth="yes"/>
      <point x="14" y="-159"/>
      <point x="22" y="-146"/>
      <point x="33" y="-139" type="curve"/>
      <point x="61" y="-178"/>
      <point x="110" y="-197"/>
    </contour>
  </outline>
</glyph>
<glyph name="onesuperior" format="1">
  <advance width="224"/>
  <unicode hex="00B9"/>
  <outline>
    <contour>
      <point x="177" y="361" type="line"/>
      <point x="177" y="343"/>
      <point x="183" y="332"/>
      <point x="196" y="327" type="curve"/>
      <point x="184" y="313"/>
      <point x="168" y="304"/>
      <point x="146" y="304" type="curve" smooth="yes"/>
      <point x="111" y="304"/>
      <point x="93" y="323"/>
      <point x="93" y="363" type="curve" smooth="yes"/>
      <point x="93" y="661" type="line" smooth="yes"/>
      <point x="93" y="673"/>
      <point x="86" y="680"/>
      <point x="73" y="680" type="curve" smooth="yes"/>
      <point x="60" y="680"/>
      <point x="45" y="674"/>
      <point x="32" y="666" type="curve"/>
      <point x="25" y="668"/>
      <point x="20" y="675"/>
      <point x="20" y="683" type="curve" smooth="yes"/>
      <point x="20" y="707"/>
      <point x="61" y="738"/>
      <point x="115" y="738" type="curve" smooth="yes"/>
      <point x="156" y="738"/>
      <point x="177" y="715"/>
      <point x="177" y="680" type="curve" smooth="yes"/>
    </contour>
  </outline>
</glyph>
<glyph name="ordmasculine" format="1">
  <advance width="447"/>
  <unicode hex="00BA"/>
  <outline>
    <contour>
      <point x="36" y="523" type="curve" smooth="yes"/>
      <point x="36" y="402"/>
      <point x="99" y="307"/>
      <point x="225" y="307" type="curve" smooth="yes"/>
      <point x="351" y="307"/>
      <point x="414" y="402"/>
      <point x="414" y="523" type="curve" smooth="yes"/>
      <point x="414" y="647"/>
      <point x="351" y="739"/>
      <point x="225" y="739" type="curve" smooth="yes"/>
      <point x="99" y="739"/>
      <point x="36" y="647"/>
    </contour>
    <contour>
      <point x="221" y="684" type="curve" smooth="yes"/>
      <point x="280" y="684"/>
      <point x="308" y="622"/>
      <point x="309" y="526" type="curve" smooth="yes"/>
      <point x="312" y="431"/>
      <point x="288" y="362"/>
      <point x="229" y="362" type="curve" smooth="yes"/>
      <point x="171" y="362"/>
      <point x="144" y="425"/>
      <point x="141" y="519" type="curve" smooth="yes"/>
      <point x="138" y="615"/>
      <point x="163" y="684"/>
    </contour>
  </outline>
</glyph>
<glyph name="guillemotright" format="1">
  <advance width="595"/>
  <unicode hex="00BB"/>
  <outline>
    <contour>
      <point x="303" y="297" type="curve" smooth="yes"/>
      <point x="303" y="372"/>
      <point x="135" y="548"/>
      <point x="76" y="548" type="curve" smooth="yes"/>
      <point x="60" y="548"/>
      <point x="47" y="534"/>
      <point x="45" y="527" type="curve"/>
      <point x="137" y="411"/>
      <point x="176" y="349"/>
      <point x="176" y="297" type="curve" smooth="yes"/>
      <point x="176" y="245"/>
      <point x="137" y="183"/>
      <point x="45" y="68" type="curve"/>
      <point x="47" y="61"/>
      <point x="60" y="47"/>
      <point x="76" y="47" type="curve" smooth="yes"/>
      <point x="136" y="47"/>
      <point x="303" y="222"/>
    </contour>
    <contour>
      <point x="537" y="297" type="curve" smooth="yes"/>
      <point x="537" y="372"/>
      <point x="369" y="548"/>
      <point x="310" y="548" type="curve" smooth="yes"/>
      <point x="294" y="548"/>
      <point x="281" y="534"/>
      <point x="279" y="527" type="curve"/>
      <point x="371" y="411"/>
      <point x="410" y="349"/>
      <point x="410" y="297" type="curve" smooth="yes"/>
      <point x="410" y="245"/>
      <point x="371" y="183"/>
      <point x="279" y="68" type="curve"/>
      <point x="281" y="61"/>
      <point x="294" y="47"/>
      <point x="310" y="47" type="curve" smooth="yes"/>
      <point x="370" y="47"/>
      <point x="537" y="222"/>
    </contour>
  </outline>
</glyph>
<glyph name="onequarter" format="1">
  <advance width="679"/>
  <unicode hex="00BC"/>
  <outline>
    <contour>
      <point x="595" y="374" type="line"/>
      <point x="595" y="412"/>
      <point x="577" y="431"/>
      <point x="546" y="431" type="curve" smooth="yes"/>
      <point x="466" y="431"/>
      <point x="325" y="215"/>
      <point x="325" y="144" type="curve" smooth="yes"/>
      <point x="325" y="117"/>
      <point x="343" y="101"/>
      <point x="383" y="101" type="curve" smooth="yes"/>
      <point x="612" y="101" type="line" smooth="yes"/>
      <point x="647" y="101"/>
      <point x="669" y="119"/>
      <point x="669" y="141" type="curve" smooth="yes"/>
      <point x="669" y="152"/>
      <point x="664" y="160"/>
      <point x="658" y="166" type="curve"/>
      <point x="647" y="157"/>
      <point x="627" y="156"/>
      <point x="614" y="156" type="curve" smooth="yes"/>
      <point x="419" y="156" type="line" smooth="yes"/>
      <point x="403" y="156"/>
      <point x="397" y="159"/>
      <point x="397" y="169" type="curve" smooth="yes"/>
      <point x="397" y="214"/>
      <point x="481" y="334"/>
      <point x="501" y="334" type="curve" smooth="yes"/>
      <point x="507" y="334"/>
      <point x="508" y="329"/>
      <point x="508" y="324" type="curve" smooth="yes"/>
      <point x="508" y="52" type="line" smooth="yes"/>
      <point x="508" y="13"/>
      <point x="527" y="-6"/>
      <point x="564" y="-6" type="curve" smooth="yes"/>
      <point x="586" y="-6"/>
      <point x="602" y="3"/>
      <point x="615" y="17" type="curve"/>
      <point x="601" y="22"/>
      <point x="595" y="33"/>
      <point x="595" y="51" type="curve" smooth="yes"/>
    </contour>
    <contour>
      <point x="541" y="738" type="curve" smooth="yes"/>
      <point x="522" y="738"/>
      <point x="508" y="714"/>
      <point x="502" y="705" type="curve" smooth="yes"/>
      <point x="98" y="44" type="line" smooth="yes"/>
      <point x="91" y="32"/>
      <point x="81" y="17"/>
      <point x="75" y="12" type="curve"/>
      <point x="86" y="-6"/>
      <point x="100" y="-8"/>
      <point x="108" y="-8" type="curve" smooth="yes"/>
      <point x="127" y="-8"/>
      <point x="135" y="8"/>
      <point x="147" y="27" type="curve" smooth="yes"/>
      <point x="551" y="686" type="line" smooth="yes"/>
      <point x="558" y="697"/>
      <point x="565" y="714"/>
      <point x="574" y="719" type="curve"/>
      <point x="562" y="736"/>
      <point x="549" y="738"/>
    </contour>
    <contour>
      <point x="188" y="360" type="curve"/>
      <point x="188" y="680" type="line" smooth="yes"/>
      <point x="188" y="715"/>
      <point x="167" y="738"/>
      <point x="125" y="738" type="curve" smooth="yes"/>
      <point x="71" y="738"/>
      <point x="32" y="706"/>
      <point x="32" y="683" type="curve" smooth="yes"/>
      <point x="32" y="675"/>
      <point x="37" y="668"/>
      <point x="45" y="665" type="curve"/>
      <point x="58" y="674"/>
      <point x="69" y="679"/>
      <point x="83" y="679" type="curve" smooth="yes"/>
      <point x="96" y="679"/>
      <point x="103" y="673"/>
      <point x="103" y="660" type="curve" smooth="yes"/>
      <point x="103" y="361" type="line" smooth="yes"/>
      <point x="103" y="322"/>
      <point x="121" y="303"/>
      <point x="158" y="303" type="curve" smooth="yes"/>
      <point x="179" y="303"/>
      <point x="196" y="312"/>
      <point x="208" y="325" type="curve"/>
      <point x="194" y="331"/>
      <point x="188" y="342"/>
    </contour>
  </outline>
</glyph>
